$MeshFormat
4.1 0 8
$EndMeshFormat
$PhysicalNames
1
2 1 "dual_barycentric_curved"
$EndPhysicalNames
$Entities
0 0 1 0
1 -0.9988919806764129 -0.9999506831579499 -1 1 0.9996103390278308 1 1 1 0 
$EndEntities
$Nodes
1 812 1 812
2 1 0 812
1
2
3
4
5
6
7
8
9
10
11
12
13
14
15
16
17
18
19
20
21
22
23
24
25
26
27
28
29
30
31
32
33
34
35
36
37
38
39
40
41
42
43
44
45
46
47
48
49
50
51
52
53
54
55
56
57
58
59
60
61
62
63
64
65
66
67
68
69
70
71
72
73
74
75
76
77
78
79
80
81
82
83
84
85
86
87
88
89
90
91
92
93
94
95
96
97
98
99
100
101
102
103
104
105
106
107
108
109
110
111
112
113
114
115
116
117
118
119
120
121
122
123
124
125
126
127
128
129
130
131
132
133
134
135
136
137
138
139
140
141
142
143
144
145
146
147
148
149
150
151
152
153
154
155
156
157
158
159
160
161
162
163
164
165
166
167
168
169
170
171
172
173
174
175
176
177
178
179
180
181
182
183
184
185
186
187
188
189
190
191
192
193
194
195
196
197
198
199
200
201
202
203
204
205
206
207
208
209
210
211
212
213
214
215
216
217
218
219
220
221
222
223
224
225
226
227
228
229
230
231
232
233
234
235
236
237
238
239
240
241
242
243
244
245
246
247
248
249
250
251
252
253
254
255
256
257
258
259
260
261
262
263
264
265
266
267
268
269
270
271
272
273
274
275
276
277
278
279
280
281
282
283
284
285
286
287
288
289
290
291
292
293
294
295
296
297
298
299
300
301
302
303
304
305
306
307
308
309
310
311
312
313
314
315
316
317
318
319
320
321
322
323
324
325
326
327
328
329
330
331
332
333
334
335
336
337
338
339
340
341
342
343
344
345
346
347
348
349
350
351
352
353
354
355
356
357
358
359
360
361
362
363
364
365
366
367
368
369
370
371
372
373
374
375
376
377
378
379
380
381
382
383
384
385
386
387
388
389
390
391
392
393
394
395
396
397
398
399
400
401
402
403
404
405
406
407
408
409
410
411
412
413
414
415
416
417
418
419
420
421
422
423
424
425
426
427
428
429
430
431
432
433
434
435
436
437
438
439
440
441
442
443
444
445
446
447
448
449
450
451
452
453
454
455
456
457
458
459
460
461
462
463
464
465
466
467
468
469
470
471
472
473
474
475
476
477
478
479
480
481
482
483
484
485
486
487
488
489
490
491
492
493
494
495
496
497
498
499
500
501
502
503
504
505
506
507
508
509
510
511
512
513
514
515
516
517
518
519
520
521
522
523
524
525
526
527
528
529
530
531
532
533
534
535
536
537
538
539
540
541
542
543
544
545
546
547
548
549
550
551
552
553
554
555
556
557
558
559
560
561
562
563
564
565
566
567
568
569
570
571
572
573
574
575
576
577
578
579
580
581
582
583
584
585
586
587
588
589
590
591
592
593
594
595
596
597
598
599
600
601
602
603
604
605
606
607
608
609
610
611
612
613
614
615
616
617
618
619
620
621
622
623
624
625
626
627
628
629
630
631
632
633
634
635
636
637
638
639
640
641
642
643
644
645
646
647
648
649
650
651
652
653
654
655
656
657
658
659
660
661
662
663
664
665
666
667
668
669
670
671
672
673
674
675
676
677
678
679
680
681
682
683
684
685
686
687
688
689
690
691
692
693
694
695
696
697
698
699
700
701
702
703
704
705
706
707
708
709
710
711
712
713
714
715
716
717
718
719
720
721
722
723
724
725
726
727
728
729
730
731
732
733
734
735
736
737
738
739
740
741
742
743
744
745
746
747
748
749
750
751
752
753
754
755
756
757
758
759
760
761
762
763
764
765
766
767
768
769
770
771
772
773
774
775
776
777
778
779
780
781
782
783
784
785
786
787
788
789
790
791
792
793
794
795
796
797
798
799
800
801
802
803
804
805
806
807
808
809
810
811
812
6.123233995736766e-17 -1.499759782661858e-32 1
6.123233995736766e-17 -1.499759782661858e-32 -1
0.8660254037844384 -2.121150477449813e-16 -0.5000000000000004
0.8660254037844404 -2.121150477449818e-16 0.4999999999999969
0.5890168448360209 0.8080951308365307 0.006435527772413227
0.1214342941510615 0.5654857914664706 0.815769288373602
-0.8455952142933379 -0.5289758795786953 0.0717861573574564
-0.3166643087523706 0.9481430563631945 0.02735800125454698
0.6270195097547273 -0.7753369625389051 -0.07549257518382875
-0.8587474091421756 0.3679546947652 0.3565981350089332
-0.8892017392068798 0.2707557364564421 -0.3687975029299816
0.08478667767004826 0.57993800134968 -0.8102364678784916
-0.6540168643511398 -0.09833745325827732 0.7500611217967366
0.009327240008085012 -0.8536211258944382 0.5208108831625387
-0.1430592977153724 -0.9610519629698847 -0.2364596409726526
-0.4523518410557238 -0.4686136075591983 -0.7588010929775014
0.4439084485871991 -0.5818773583190393 -0.6814426088443269
0.5000000000000016 -1.224646799147357e-16 0.8660254037844378
0.06372297185342767 0.2967401871526106 0.9528298086157889
-0.3495806139938347 -0.05256266185540097 0.9354306820381552
0.005348112674560495 -0.4894547538941173 0.872012294398003
0.4999999999999998 -1.224646799147353e-16 -0.8660254037844387
0.04455997774757883 0.3047887373967245 -0.9513770198713263
-0.2411865031710521 -0.2498570075050315 -0.9377635877388025
0.242068003691501 -0.3173039192424953 -0.9169085583754595
1 -2.449293598294706e-16 -2.019110820702741e-15
0.8381474683333469 0.4654867504536728 -0.2843077671793042
0.8397011593762352 -0.4360561028320927 -0.3236619194855856
0.552920032097327 0.3372478585150097 -0.7619339341652469
0.7052125265789773 -0.3132579567100555 -0.636038320318781
0.836363422866481 0.4644959349248913 0.291100929798094
0.5676462411148544 0.3250723898918727 0.7563766827964509
0.8605000154602388 -0.4468569312292964 0.2446601855743278
0.5495734106367156 -0.5359296928799263 0.6408965833976303
0.4056419959236194 0.7842652032059396 0.4694493180136155
0.1532177756231036 0.9880095569385349 0.01901127642290552
0.3872982151055391 0.7978331021536446 -0.4620199494436963
-0.1119711594573151 0.868118446979777 0.4835626344778975
-0.4414663047781102 0.5588975888377414 0.7019551174661522
-0.3098874618632786 0.2718140264834453 0.9110910470347032
-0.965788284058971 -0.09124478355455043 0.2427496237865497
-0.9752186820322253 -0.1451588366821655 -0.1669653687098313
-0.8232929457522556 -0.3443974938957913 0.4511973976796319
-0.4858993866766173 -0.8033346458765259 0.3443185048203535
-0.5505507140303375 -0.829749809135526 -0.09170150227910012
-0.7310967216414441 -0.5619138319893495 -0.3869760057473563
-0.6508877118714022 0.728793018471433 0.2126168449632065
-0.6897526768774652 0.6972073777289616 -0.1953026297331305
-0.1338367501262228 0.8819884942723297 -0.4518672595872371
0.3526156771666857 -0.9026464889514557 0.2467620315200233
0.2645508560996093 -0.9491755010799861 -0.1705248154566403
0.5674418063761256 -0.7191334765968336 -0.4010696189121672
-0.9392383856511984 0.3432029786940913 -0.006555176186305402
-0.7988689996499865 0.1423809775158442 0.5844107961356144
-0.4841233968204577 0.5119754237492417 -0.709581356947747
-0.7606772641123933 -0.1121878293106163 -0.6393621749971266
-0.2275443207278608 0.06891630679079534 -0.9713259621583339
-0.3761848125918753 -0.5554802592933186 0.7415704068466076
-0.07261424023008559 -0.9853367238413834 0.1543979040186
-0.3234305525482062 -0.7766020743074056 -0.5406310163686475
0.1652696612909791 -0.84759888996323 -0.5042440488393151
-0.004736380201724747 -0.589280272286784 -0.8079148020652911
-0.1415026149471015 0.04285687110186004 -0.9890097565557635
0.370613220498049 -0.3614123711127926 0.855585728491712
-0.5368322295462481 0.1632068188322387 -0.8277527961940482
0.623597476292915 -0.6761401630984201 0.3923782198419648
-0.5977013043843014 -0.5939511929151341 0.5384933900912748
-0.4647426650263581 0.7457065287483245 -0.4774264637473739
0.9495674984833882 -0.3120868312374191 -0.03038709581692695
0.143568042945012 0.9391302619490126 -0.3121258850792706
-0.4270733550283409 0.7624206915628138 0.4861306804777061
0.1572980957874314 0.9274123275543192 0.339357751881297
0.6287579770354961 0.5667752367492495 -0.5323807259115065
0.6372409810454199 0.555226817986656 0.5344596454969109
0.9443966525080195 0.3287979717779113 0.00261848933144579
-0.7928537457866649 0.6093841572710738 0.005821224877776477
-0.8627522584848237 -0.2867100132850054 -0.4164803822047902
-0.9988429892318638 0.04226169760728027 0.02294845915754937
-0.8902411329696363 -0.09790353379041937 0.4448433693338441
0.370733765571218 0.2261252283514496 -0.9007906838818828
0.3827007234359642 0.2191601560442747 0.8975015221626305
-0.3818219598015128 -0.91374627032457 0.1388515195497322
-0.253283224724969 -0.374001891186163 0.8921716165974427
-0.5540045718397922 -0.753012861912143 -0.3550360040552121
0.501849854704375 -0.2229235218247713 -0.8357343039210717
0.7231816607149046 -0.5067300667614458 -0.4692898092283415
-0.5530508649989926 0.331951773918907 0.7641614754199253
-0.05775737377820268 -0.7668605532440258 -0.6392096507817382
0.1865103350159177 -0.9792741339290214 0.07896876312704482
0.3452659835448531 -0.8626420123557089 -0.369648696907886
-0.2000811000613867 0.175498708801962 0.9639334814223799
-0.003178074643820893 -0.3954025250710538 -0.9185024458372406
-0.07805203296504375 -0.08085795486034716 -0.99366486869861
-0.1595797934279846 -0.1653165874539405 -0.9732444273881383
-0.2119635642148256 -0.1591018351693373 -0.9642396245182505
-0.17853036799402 -0.06065332942447935 -0.9820631758362827
-0.07644927726073468 0.1373880382523154 -0.9875626739359338
-0.01378547965993912 0.2254211504946506 -0.9741638801866006
0.02953514362805812 0.2020193812981844 -0.9789360780310269
0.01451895538833223 0.09930916272438177 -0.9949506973380209
-0.0580607671781608 0.01758485393333372 -0.9981581639333652
-0.1345442906078699 -0.06962501407986441 -0.9884584924412374
-0.1066136109313769 0.03229004483837967 -0.9937760768747196
-0.03643642062303658 0.1207660725054577 -0.9920120679627782
-0.4039272920951457 -0.32714071133259 -0.8542960246246554
-0.3287897462040079 -0.1432742939591538 -0.9334718953892559
-0.1977072815810698 0.05987956820293815 -0.9784305126689647
-0.1690228567666444 0.05119192170705968 -0.9842817996094313
-0.3191595868559693 -0.330633174907881 -0.8881547510249896
-0.390260164825219 -0.4042897743017358 -0.8271921071586965
-0.3426219145494335 -0.2732457399790297 -0.8988587148455497
-0.2777900060517461 -0.1150962365018305 -0.9537219557506714
-0.2275279524906761 -0.0874644243267889 -0.9698355558096352
-0.278067145454906 -0.2167375675821008 -0.935790302053379
0.07259477694166086 0.4965458136219087 -0.8649695100611045
0.0590702872561162 0.4040387625963689 -0.9128326130693815
-0.1133952168899551 0.2771987728359796 -0.9540976706421137
-0.005272913875247358 0.4510751028537902 -0.8924704185376158
-0.008193084725594364 0.3775087879730703 -0.9259697556431217
-0.01104815567310366 0.3017853028770306 -0.9533118950394156
-0.08848072361359632 0.1825520097077585 -0.9792067837287856
-0.1008255208920443 0.2292519253657339 -0.9681310701826236
0.001669626873259062 -0.1528028409411092 0.9882552828831375
0.003504588772315682 -0.3207370037683084 0.9471618089171803
0.1209143055264594 -0.4570400939210813 0.8811890167652247
0.2446754998642386 -0.4142416335245501 0.8766628592686572
0.4237385106986428 -0.2372082486589507 0.8741727068028661
0.4670243178982144 -0.114774719935243 0.8767639649047478
0.3273268353539896 -8.01719522382592e-17 0.9449111825230677
0.1555427542095643 -3.809698721466128e-17 0.9878291611472619
0.1483922050335563 -0.1447082179199151 0.9782838469236429
0.1368609497625689 -0.3009360620243361 0.9437725186735269
0.2799422772868106 -0.2729924261011992 0.9203844070163596
0.3076160246725743 -0.1320322330463362 0.9423056143319111
0.1704055104413163 -0.7969095175688258 0.5795663748178076
0.3589642345041337 -0.6927239097985747 0.6255223921973039
0.4963771945249569 -0.484054126829307 0.7206256192053194
0.4360367580950198 -0.4252117029815612 0.7931374113213333
0.007009177544631296 -0.6414740075366169 0.7671127486133055
0.00834813436629505 -0.7640142047055463 0.6451454128030005
0.1583223132178675 -0.7051834871894296 0.6911224888054932
0.3270818423627239 -0.6118759988460846 0.7201563930374516
0.2884132742412732 -0.5175998794991824 0.8055483523562442
0.1416250855112529 -0.5900691156932864 0.7948338026649807
0.7777137710478209 -1.904849360733063e-16 0.6286185570937097
0.654653670707979 -1.603439044765184e-16 0.7559289460184527
0.7065747162073508 -0.3463619548992874 0.617078249993342
0.8102312126759078 -0.1593819035137654 0.5640237502428924
0.7187515724796703 -0.1488113699788345 0.6791548816161329
0.6024983149919616 -0.1337740253111275 0.7868292639346257
0.5291738753166765 -0.2792391245209614 0.8012493500896569
0.6249486626894164 -0.3161765710498262 0.7137727543986839
-0.3328965643010439 0.1010279663819329 -0.9375357206449747
-0.4375554754334418 0.1329344695657763 -0.8893107627367839
-0.526851815161959 0.2889350380285203 -0.7993395452872367
-0.5086788348794151 0.4066868822716498 -0.7588488800373141
-0.2817899996418445 0.560202635557734 -0.7789527605805233
-0.08522424344776548 0.5807376310022783 -0.8096175839657992
-0.1654919444980048 0.4507137700455129 -0.8771941140919893
-0.2513530178845695 0.2871267423811413 -0.9243267248164541
-0.3924335818905787 0.2913756656061395 -0.8724082217042143
-0.3387395400392026 0.4365755752504848 -0.8334610315478088
-0.5609573427844913 -0.368928343594199 -0.7410929340298713
-0.667586191414845 -0.248021523787793 -0.7020071230195626
-0.7042071277803207 -0.02819980283883245 -0.7094343467180328
-0.6294784945359915 0.06500450006798326 -0.77429402676736
-0.5102743663023562 -0.2376293475564656 -0.8265303166095102
-0.6131991169288056 -0.1360324834635645 -0.7781272430910436
-0.5362696979531689 -0.006387857900523469 -0.844022515297228
-0.434020371535479 -0.07702985444653235 -0.8976038762261173
-0.798854782059662 0.354203205744439 -0.4861801376247001
-0.6631815647829407 0.439133939176716 -0.6060953683993885
-0.8301560550547981 0.02712830214759888 -0.5568707026576669
-0.8720423259118357 0.157583625119585 -0.4633676541499695
-0.7866979564397403 0.2394418167047394 -0.5690113722472255
-0.6647719868039128 0.3257004109682826 -0.6723075545134608
-0.6538758097524016 0.1989073961281005 -0.7299878582457245
-0.7555372339217982 0.1094384179789136 -0.6458999309707892
0.5800290448084123 -0.5886543051276298 0.5630740770390236
0.6049126441841414 -0.6358147670647446 0.479395739330832
0.7174228624388034 -0.6047829417516143 0.3457485066003573
0.7968725361924549 -0.5268916703217427 0.2955999472391169
0.8903056028464246 -0.2926096932224785 0.3489061492328728
0.8895741922972166 -0.1391364463847737 0.4350848258514328
0.8247429524372234 -0.2828380881590418 0.4896954954782307
0.7214735750959947 -0.4387276442776717 0.5357181484556678
0.7252357861819382 -0.5263016947058942 0.4438914063042558
0.8210870073818629 -0.4085109015479724 0.3986664892176909
0.1185621336212541 -0.887636378361543 0.4450221121252061
0.2355549007924499 -0.9056949943854421 0.3524634248511652
0.4430106350222336 -0.8461548144476476 0.2962492316348924
0.5351935475116868 -0.7706804018638733 0.3458606437350091
0.2632926545382346 -0.827211709174175 0.4963846958472329
0.355909569268557 -0.8443405716525466 0.40052138215646
0.4826980132824928 -0.7544345680253928 0.4447820933237685
0.4231895306669814 -0.7281132013789992 0.5392233184048003
0.7180130137798626 -0.6956822319238676 0.02198963910993016
0.8001055418285812 -0.5852193864449566 0.1317170894917625
0.4609015054652835 -0.8771353518646468 0.1349198901908746
0.5534128287621691 -0.8325249183012747 0.02522897875281127
0.6434536322707169 -0.7574571814963013 0.1105714308368119
0.7279455489460378 -0.6548765242783857 0.2030566810491902
0.6387974103121523 -0.7182518733635397 0.2757754793092627
0.5507614367037177 -0.8093901242337885 0.2038368627919626
-0.7600188428429314 -0.6302791310684545 0.1584915627510987
-0.6391554545292865 -0.7264516189594149 0.2524843564593782
-0.527786097564606 -0.742859993856168 0.4118262555320364
-0.5655740741066512 -0.6725187428510799 0.4773306057780154
-0.6871082749158635 -0.5127493639242787 0.5147526671493736
-0.7625841971861033 -0.4281888588131423 0.4848913727736607
-0.8487116099697276 -0.4184517428438472 0.3233987353307675
-0.8551886288572255 -0.4805348734494857 0.1942643674794358
-0.7733531141615383 -0.5748125191455219 0.2674238744955837
-0.6633072110279393 -0.665519912424238 0.3422086935850274
-0.6797153745138853 -0.5935685399136159 0.4308867578311809
-0.7747316914920523 -0.5067267851360757 0.3781782270616871
-0.1096475972131751 -0.7882535953508109 0.605502827278203
-0.2423365468878986 -0.6886746235535915 0.6833741734333895
-0.4531258501758234 -0.5738661869260481 0.6821690138121161
-0.5278177895630748 -0.5869428766690141 0.6139270645184589
-0.3142608057985967 -0.8498259703209403 0.4231264185877417
-0.1439380071086598 -0.8642275010768107 0.4820712359103357
-0.2463412302522392 -0.7925286310412964 0.5578659043691608
-0.3522898562924797 -0.6947274540747957 0.6270929928712142
-0.4620083290818904 -0.6896383787194467 0.557626407602951
-0.3893778562931668 -0.7782582867663954 0.4926448255162872
-0.7209519525164783 -0.178791638520779 0.6695235859607434
-0.7793809498168222 -0.2626071685847465 0.5688609760482174
-0.4953457328457974 -0.4005983356583981 0.7708135821449833
-0.5886492608638074 -0.2428622466625553 0.7710447307585399
-0.6550098020962452 -0.307283351121567 0.6903181160025702
-0.7143457532622313 -0.3702586582775366 0.5938170347562739
-0.6299652514253995 -0.4807892246518989 0.609906143152501
-0.565056693905121 -0.4427957059882343 0.6961629805091588
-0.2691079669480489 0.9554867359225343 -0.120937998996134
-0.207279101735548 0.9356978432975757 -0.2854906654025134
-0.242128601934568 0.8507270301090528 -0.4665160880045214
-0.3541211089068871 0.8052975985558176 -0.475493446838955
-0.5523966767111121 0.7399031380749408 -0.3839287145100951
-0.627912877883794 0.7229020174034158 -0.2883367666839647
-0.5708804434559033 0.812543281252497 -0.1177664441639328
-0.4420718408274635 0.8960199621016816 -0.04148150265743633
-0.3896667788058664 0.9037719894634341 -0.1770762337423248
-0.3221862341205554 0.8900619764162564 -0.3224681514215041
-0.4396448374209525 0.8245178965756925 -0.3562059167890115
-0.5126360028393895 0.825979798379432 -0.2344391205876829
-0.4836253554855709 0.5953653195745862 -0.6415969543095619
-0.4772168004228963 0.6743884490907022 -0.5634397440074411
-0.05558167659141895 0.7965631527382918 -0.6019948678576251
0.01926345831529219 0.6909966235687227 -0.7226012630700005
-0.1377534254171203 0.6815559881678007 -0.7186831212561365
-0.3105518487815623 0.650689689693956 -0.692936127607976
-0.3352643227779842 0.7342030906209948 -0.5903758595969171
-0.1915002415432842 0.7746896870541519 -0.6026471158653328
-0.8515364190857568 0.4115693419161214 -0.3248020993856672
-0.7855562433518798 0.5585534859915425 -0.2663069503741461
-0.7619299077648881 0.4812388211969724 -0.4334420522126776
-0.704645674449026 0.6075409886542525 -0.3665629831083472
-0.6007971642846998 0.6479040869746804 -0.4682553378969314
-0.6380338571839178 0.5456489327650884 -0.5433047388522689
0.8993382171565438 -0.4078790593011282 0.1575609220121401
0.929682039432367 -0.3625991444646145 0.06490890532434204
0.9780687632879608 -0.2073019102752321 -0.02018445631169074
0.994726386769373 -0.1020814556781658 -0.009939410011390152
0.9819805060619662 -2.40515856714777e-16 0.188982236504611
0.9332565252573839 -2.285819232879673e-16 0.3592106040535468
0.9440105459980277 -0.1305457332343683 0.3029882845570217
0.9338775220183076 -0.2697897420707093 0.234704641927606
0.9642795079086151 -0.241067548489598 0.1097791769541677
0.981340641637742 -0.1181151570924572 0.151721306134139
0.7094411423325377 -0.6873769525684889 -0.1555833880707109
0.7834354571311024 -0.5730264241060785 -0.2405610146843855
0.8855690850112442 -0.4016343111522347 -0.233360827427436
0.9231724383947436 -0.3600602379708532 -0.1345707026832939
0.7863796953652147 -0.614835878128371 -0.05986499547671544
0.8441955344074684 -0.515563536866258 -0.1467247052832054
0.8946169878205638 -0.4447306568798853 -0.04330228555223105
0.8524975094135309 -0.5206336840331758 0.04678208517980381
0.9332565252573825 -2.285819232879669e-16 -0.3592106040535507
0.9819805060619654 -2.405158567147768e-16 -0.188982236504615
0.8717562127594977 -0.2865132120530394 -0.3974308554129479
0.8789541680457226 -0.137475390513698 -0.4566618962407069
0.936524257210812 -0.1295104661358446 -0.3258057010198149
0.9776770234431351 -0.1176742002827397 -0.1740701594736696
0.9583035837391606 -0.2395735818775579 -0.1557521757762594
0.9213306979810272 -0.2661650650215086 -0.2833829619435327
0.5430110252040918 0.8280668177728456 -0.1394430773124074
0.4754881153724569 0.8269053270804546 -0.3002309647346783
0.312121338313588 0.8529881236902853 -0.4183198907686094
0.230085133869065 0.9009288004104334 -0.3679512573201402
0.1488431548347813 0.9686023444663413 -0.1991361683701288
0.1520082677218402 0.9845080888315961 -0.0873917019479736
0.3183847473202136 0.9478449473512426 0.01486971602162568
0.4661135813843412 0.8846618912317361 0.01055781470528382
0.4279574704069937 0.8950469515493893 -0.1254725390075143
0.3762005542317811 0.8857627467795353 -0.2718409450639719
0.2658805824945519 0.9342189974818595 -0.2377864180232911
0.2955299395169048 0.9492183111101039 -0.1079196585540213
-0.04453367054509036 0.9104798540068701 -0.4111486198875167
0.04893741943682565 0.9300374971908563 -0.3641914095607313
0.2856309843821559 0.7409976189740141 -0.6077314122502823
0.1815401257747712 0.6645062690846167 -0.7248962691867874
0.1135329039959436 0.7586264090151831 -0.6415576757042004
0.03663180184191357 0.843681249963908 -0.5355931847523384
0.1334350129632018 0.8795835049377351 -0.4566486123453784
0.2134976399438218 0.814932760583686 -0.5387980637176333
-0.1763260586648606 0.9840040697771422 0.02539904915025909
-0.01637879504072707 0.9996103390278307 0.02260321175583759
-0.138669923548385 0.9839241644090878 -0.1125339548534738
0.004315228377710865 0.9948513157849419 -0.10125333715497
0.02646444871235552 0.9722380752735693 -0.2324924900780593
-0.09398108962883668 0.9605973621470651 -0.2615726717917544
-0.4296538791737879 0.8988115877099173 0.08680595549438795
-0.5440225225501999 0.8255598064401896 0.1499683331525494
-0.5888748512797882 0.749543339567161 0.3023428379186694
-0.5138420796129646 0.761564984053937 0.3949494806705672
-0.3219890502720859 0.8092121685409606 0.491425190430971
-0.2155911124566727 0.8444562681051575 0.4903203886109618
-0.1923802905231896 0.9251839149683816 0.3271460641701068
-0.2617187382166739 0.9499585210782664 0.1705347773829876
-0.3721209574047534 0.9026520907040421 0.2162063741146212
-0.4834870932831172 0.8354924744112679 0.2611370441564709
-0.4087953105579811 0.8309979945922428 0.377264796992079
-0.299871767378863 0.8858204323488037 0.3541173319147985
-0.762429372312402 0.4395271439015171 0.4748866622775288
-0.6222671328332707 0.5073839216728406 0.5961083554382958
-0.4410385422380897 0.6322575567280623 0.6369736150114553
-0.4362372759167574 0.7008366395914681 0.5643802297271454
-0.7416702364998866 0.6140186179257384 0.2700118462785811
-0.8111469678764095 0.4905017733361227 0.3185099792141934
-0.7189759476553828 0.548601835658305 0.4267430287718622
-0.5943437903688095 0.5986861661851502 0.5369639962498074
-0.5578356150617698 0.6846469359180399 0.4691247165804594
-0.660577934100877 0.6540986248082906 0.3684993649966313
0.05200891375347715 0.6759330746838816 0.735125534475968
-0.02773393157903369 0.7813735376441189 0.6234470496430987
-0.2401169267844569 0.5843967337380089 0.775128582280343
-0.04597194791808805 0.5839112109626401 0.8105148226385249
-0.1018923596399427 0.681239302620316 0.7249351416591627
-0.1598043115338212 0.7708129843580936 0.6166927315610025
-0.2987782225469283 0.7442903505132796 0.5972967837386348
-0.2709718045100053 0.6679609927922371 0.6931106645180124
0.156338634506075 0.9800423233322095 0.1227814148736723
0.1577936354658495 0.9601111783731587 0.2308412739727779
0.2455230867894668 0.8881381843519771 0.3884957906455942
0.329083600504518 0.8396009509249187 0.4321738389640853
0.4864849835470833 0.8167593600067741 0.3102200970674189
0.5477897462871104 0.8227892434490969 0.1514736106626044
0.4326764957908863 0.8897715869778616 0.1452500361343055
0.3001245766502715 0.9442041067260071 0.1356607656333929
0.2756930209669509 0.9247592594238302 0.2623235984428499
0.3866701143913846 0.8757613538075555 0.2890125841788051
-0.02507959899928378 0.8968662732781215 0.441590196415465
0.06562585107717663 0.9171290295161034 0.3931508500426352
-0.1321395937753314 0.978473696141384 0.1585192534561926
-0.08082813698889948 0.9503379563825877 0.3005404813489704
0.03757964913086268 0.9626516856865656 0.268122177404286
0.009788716164114435 0.9897518926967559 0.1424618262519745
0.2136819621314335 0.6494344664719355 0.7297772898754615
0.3114349689960196 0.7259331126954903 0.613212341671859
0.1420553604485434 0.7431436698448324 0.6538790106261166
0.2365722858395117 0.7998502985044179 0.5516095118424463
0.153481481487051 0.8651485717541866 0.4774530171987933
0.06093188423757626 0.8285022508818781 0.5566608714171671
0.7957001122945012 0.1045222544562932 -0.5966040811274191
0.6909484695619973 0.2205520734402446 -0.6884380838616807
0.5844648989532846 0.4162127716321067 -0.6965398126610185
0.6103082270718198 0.4938368238782102 -0.6193941066480483
0.7108154530385641 0.5387231812712376 -0.4522374660314843
0.7810645605870175 0.5042657487425559 -0.3683126482217502
0.8755602542024679 0.3048321221666757 -0.3747954356129098
0.8825247215451439 0.14497724605652 -0.4473608319774246
0.8097912689127116 0.2347853598685924 -0.5376931611840677
0.7095388676492503 0.3278252735672302 -0.6237669318788792
0.7168206613881927 0.4359821880910916 -0.5441393857039738
0.8060809064936419 0.3714835640198529 -0.4606881090819432
0.4704147108257146 0.7333976899099942 -0.4907523084749001
0.5521791042511615 0.6558219970184689 -0.5147773742649269
0.3938411572366378 0.4411041468804894 -0.806421896076329
0.2324893364391498 0.5226112722814668 -0.8202598164767247
0.3140242698663095 0.60222765373666 -0.7339690804180846
0.3956283158641341 0.6750225561844393 -0.6227541925420771
0.5062108366361827 0.5917939270906899 -0.6273201230079227
0.4521777076687081 0.5185923088436712 -0.725670268025129
0.683736551796596 0.7248862302826009 -0.08393021436872951
0.7710662365301099 0.6096642443333516 -0.1837562735384455
0.6317255011921361 0.7445921713951194 -0.2156510826326767
0.7139776288227377 0.6354208279578214 -0.2940685582275976
0.6403587518202476 0.6516287103816275 -0.4065964741283322
0.5600199427839528 0.7487049546491792 -0.3547091126092318
0.4856462034534917 0.7196385673529381 0.4962540654235698
0.5640106165330901 0.6427441876513965 0.5184321881194396
0.7147039858671903 0.5303574187501883 0.455981601561059
0.7815151172606023 0.4995436070326695 0.3737516637634364
0.7696578845682666 0.6085506930015788 0.1931134246219025
0.6830295123705555 0.7241366387288697 0.09537721783159638
0.6349896082382132 0.7387689886029906 0.2258507890355819
0.568667064403468 0.7382859060752837 0.3627005524580015
0.646513125518116 0.6418183079814462 0.4124197353093447
0.715674298766252 0.6297781240059588 0.3019765100284604
0.2640388014876914 0.5067557270095776 0.8206595789070752
0.4175685115846646 0.4258821166856808 0.8026586826418139
0.5970415847752696 0.403833185442726 0.6931522952311528
0.6207693188474914 0.4816226664653945 0.6186154378322487
0.3408573627934694 0.5861675998955417 0.7349991857561351
0.472074028656682 0.5033966699364475 0.7236973843843472
0.5220320777055161 0.5772370950704063 0.6279170693022613
0.416815208545021 0.6595021515226147 0.6255573467417778
0.8816121189192532 0.1448273277457737 0.4492049831788632
0.873961043987705 0.3042753465007892 0.3789572628987935
0.697954016067146 0.2129410583428403 0.6837516340949932
0.7978464617772482 0.1013511454019154 0.5942802106374113
0.8110202669054238 0.2309256600646785 0.5375122939918191
0.8067065312710594 0.367004171610512 0.4631765434746204
0.7215018349058931 0.4273969210897628 0.5447632275313929
0.7152796201376055 0.3195646660537047 0.6214929518713684
0.8830793129869976 0.4269167484285529 -0.1947126520943203
0.9193633547617359 0.3810081293500609 -0.0979991188246806
0.97597806425623 0.2178619007933836 0.001735013935369013
0.9942712021611751 0.1068833570348153 0.0008512002935752943
0.9392043845841285 0.1362924101189121 -0.315149968938483
0.9236077847305944 0.2820905914101419 -0.2595641697594656
0.9584527678836536 0.2528325716317483 -0.1320756694408187
0.9788962182412339 0.1235276479193897 -0.1627977706005643
0.881892096114761 0.426342799113558 0.2012415177201996
0.9188001855756921 0.3807747373653021 0.1040039343989403
0.7629212235367218 0.6464709590135128 0.005148381238831187
0.8316894237440676 0.5457213913200369 0.1023760982260208
0.8831784507116943 0.469022251495777 0.003735210880747849
0.83239899931491 0.5461869864769692 -0.09376396825403419
0.9385602939496258 0.1361989430670622 0.3171031733184124
0.978580930167101 0.1234878614808592 0.1647122071377091
0.957935640462616 0.2526961573397733 0.1360292644881615
0.9225232342958606 0.2817593453134693 0.2637471393453016
-0.728723782085944 0.6724669474261008 -0.1294212271684182
-0.7633402833078392 0.6430201240656438 -0.06194135876869116
-0.7508294067755765 0.6559629824644712 0.07725132722064644
-0.7029462184501281 0.6959427344581712 0.1467321516285642
-0.5343956106425569 0.8450129815380504 0.01934922112497695
-0.6368014806176502 0.7691228122866476 -0.05416616936286624
-0.6975149095557871 0.7164775334027068 0.01152801268889386
-0.6230567333003708 0.7777496337912954 0.08310122879101366
-0.9190341035196762 0.2982854742615922 -0.2576860345698269
-0.9366656650254092 0.3230250255251026 -0.1353228171706996
-0.9017641149326103 0.4322204104502263 -0.002645337415834092
-0.8529394781670581 0.5220076063691959 0.001518379665803171
-0.8782501040299874 0.4232859152598628 -0.2224989633996898
-0.8954383619838512 0.4303702503217441 -0.1138928774141599
-0.8375966680470447 0.5389616917428328 -0.08917464051058638
-0.81488784869648 0.5512153783951198 -0.1792188624769933
-0.9258488682097381 0.3575482404665225 0.1223238691917519
-0.8979295947547997 0.3656432609279124 0.2450049970949238
-0.851072479358822 0.4777488697280286 0.21778809047241
-0.7858569891576354 0.5901807605223116 0.1847037154509941
-0.8235423404524597 0.5593557092437464 0.09433559253277711
-0.882035793663549 0.4582871591209837 0.1094793975190372
-0.801732096219957 -0.1704194176869855 -0.5728724709444348
-0.8363295119870519 -0.2292221507909481 -0.498006177638663
-0.9113589435578497 -0.2404947197584582 -0.3340466520793479
-0.9488853020687515 -0.192753583837549 -0.2499254677612412
-0.9692735428156937 0.004630497338316416 -0.245941777036586
-0.9380438066552699 0.1462129769913224 -0.314158530291676
-0.9137047211079935 0.04774004088096099 -0.4035648288957404
-0.8685052794259196 -0.05987140402346971 -0.4920508048866133
-0.8963940349945784 -0.1503727398258715 -0.4169721491219757
-0.9407685218232009 -0.07121417086201057 -0.3314862443828184
-0.5513863165945997 -0.5096315073442114 -0.6604913751097035
-0.6476513856445854 -0.5425293176310972 -0.5349856280157296
-0.7816164480197481 -0.4780968703944122 -0.4006234025915873
-0.8262240145129501 -0.3855908020760697 -0.4106989301135777
-0.6430383258671553 -0.4113317755880411 -0.6459937165774567
-0.7187078695592274 -0.4488693969656842 -0.5310134298690569
-0.7829786233008188 -0.3431591922583654 -0.5188316145172158
-0.7289695155607006 -0.2964955044473802 -0.6170039393923601
-0.9071232530249635 -0.4208614315402928 -0.001749074973586162
-0.9531658172248608 -0.2907807385477771 -0.08319547441821813
-0.79316059901153 -0.5648647651334543 -0.2276489870093833
-0.8305035151079151 -0.5524755815450507 -0.07095521960966132
-0.8847644177693073 -0.4475717547048223 -0.1298901437361003
-0.9259558953109246 -0.3258672867117547 -0.1908302685374181
-0.8835852520292822 -0.3581263463579541 -0.3016995565801394
-0.8431381281789669 -0.4675353674447336 -0.2655725456427791
-0.9681743176896718 0.250260715635955 0.002839854841052635
-0.9887405471117127 0.1490939297198632 0.01277225970294736
-0.9951923562670524 -0.002835450812895246 0.09789859164625341
-0.9839953979882381 -0.0476676283027257 0.1716998950202422
-0.9533256736201258 0.07696765437883862 0.291969416542475
-0.9146641919588475 0.2332870423059257 0.3301008510143858
-0.9434936752216848 0.241732332689241 0.2266829595476819
-0.9618679666536185 0.2475413192936515 0.1163327553528749
-0.9861265722188249 0.1259084124940496 0.1081732648447807
-0.9740792231283971 0.1016247797485169 0.2020942136990661
-0.9908085127380225 -0.08448572617444915 -0.105643992534569
-0.9988919806764129 -0.02152638351538738 -0.04185003886618399
-0.9596516922464311 0.1821296698901294 -0.2142368150301752
-0.985251577775427 0.05240402529757846 -0.1628899831900122
-0.9919878136500538 0.1010431499682567 -0.07583178366805307
-0.9701825322467333 0.21731289355185 -0.1073357369166408
-0.9053012311185709 -0.4052319228210895 0.1273450810275854
-0.9484337951240582 -0.2566401912718047 0.1860353420470078
-0.9496161116318134 -0.3087000111431797 0.0541621976056724
-0.976723556525992 -0.182233462155517 0.1131461859632528
-0.9940247295783696 -0.1029489977324619 0.03628141194235088
-0.9794577645019 -0.2001106461927494 -0.02486396664373351
-0.8512842627361495 -0.2658308008965952 0.452381574903803
-0.873889878489191 -0.1831152500449029 0.4503168722967639
-0.9201855462530427 -0.09618421395885574 0.3794827498742289
-0.9455018364905299 -0.0939533065048868 0.3117676272319405
-0.9005344291509163 -0.3653084344724754 0.2357699930379236
-0.8826692589717332 -0.3183387546962242 0.345767865084002
-0.9071469322908686 -0.2097150142091109 0.3648342857387976
-0.9321543456021454 -0.2344297002801055 0.2759184509988701
-0.7088269944827681 -0.02124208311474546 0.7050624552459677
-0.7579824713937579 0.05991702388809862 0.6495171462772973
-0.8357180451023666 0.06658611562220984 0.54510699710848
-0.8668187433710131 -0.01418148422405719 0.4984216604902925
-0.7657735518995548 -0.09998098926658414 0.6352910112668173
-0.8045952564341743 -0.01740847859218971 0.5935683770187985
-0.8441876830107855 -0.09938634465773263 0.526753747351128
-0.8146723302244986 -0.1828501986343598 0.5503406210938464
-0.829601224944879 0.223035148084965 0.5118760888034077
-0.8494174047502182 0.2989651652077905 0.4348676838990021
-0.8966915378935693 0.1801000372808534 0.4043615491629997
-0.9305634765248953 0.0469063744765476 0.3631134921637674
-0.901542092777918 0.01632430422298066 0.4323833623548061
-0.8702537041921959 0.1240558501928431 0.4767270040313354
0.1475041169405214 0.2839204184784376 -0.9474342887275221
0.2575536589817984 0.2576779193922459 -0.9312723568337948
0.417423817388403 0.1512686525835535 -0.8960330079982821
0.4608158693120273 0.07530376055527915 -0.8842952438164721
0.3273268353539885 -8.017195223825894e-17 -0.944911182523068
0.1555427542095638 -3.809698721466116e-17 -0.9878291611472618
0.1543094339968075 0.0941194443013528 -0.9835294244627303
0.1516261703171962 0.1896461895463313 -0.9700741349327369
0.2831922865759018 0.1727302080798558 -0.9433803072147532
0.3066245406870003 0.08614325535672514 -0.947924432961316
0.4960017208900609 0.3025311229101719 -0.8139147452557967
0.4348442473153834 0.265228754035937 -0.8605603921917754
0.2063479892134885 0.4480177426055964 -0.8698854003017498
0.3511092394821708 0.3829146734990256 -0.85445810591824
0.3053362947529864 0.3213092620577833 -0.8963984076416024
0.1777868483123522 0.367785741747299 -0.9127570787096365
0.7777137710478186 -1.904849360733057e-16 -0.6286185570937124
0.6546536707079769 -1.603439044765179e-16 -0.7559289460184546
0.7048519887125572 0.09736321893710807 -0.7026407884589093
0.5916300285135258 0.08752680022586221 -0.8014443016225811
0.5175038102710254 0.1772586713094867 -0.8371195672068393
0.6097816291014594 0.2006202717314119 -0.7667580266164709
0.5101611946051159 0.2921525886169354 0.8089390709339638
0.44808834490298 0.256605502881914 0.8563705103825259
0.4249618942071883 0.1468008750725952 0.8932283535299126
0.464322424144618 0.07322970405423396 0.8826336141800826
0.7076333824718114 0.09448676036879096 0.7002337096473674
0.6173624778235897 0.1940189832547132 0.7623779935913187
0.5253000291432837 0.1717281406354499 0.8334082583559852
0.5949231914406767 0.08502577690247279 0.7992728029578955
0.1038884083051353 0.4837794727207856 0.8690020830779545
0.08448905342717332 0.3934420633110779 0.9154588700037276
0.1648870894801589 0.2759103045165808 0.9469349246829634
0.2724820314774427 0.2500133519175878 0.9291107933851905
0.2334876837769855 0.4346719559228494 0.8697952588159256
0.2001727556146846 0.3570945903977457 0.9123674267630831
0.3235067696683796 0.3112492017581534 0.8935699773289398
0.37222663418888 0.3703083453784266 0.8510693638849361
0.04224452671358669 0.196721031655539 0.9795489960523289
0.02077768166102712 0.09675589454415712 0.9950912444674371
0.1600011004729721 0.09162738400932152 0.9828550607017529
0.3113588192349624 0.08380562337970204 0.9465898283705301
0.2929461117992005 0.1677606328988794 0.9412964175174032
0.1631605475252793 0.1844117685818368 0.9692115018610593
-0.7712081405487831 -0.6362162245048044 0.0216083231219091
-0.6720407318476205 -0.7397317385768272 -0.0340324797776967
-0.5010068529137932 -0.8652661718919662 -0.01750957203472566
-0.4443869688794966 -0.8938183114856201 0.0600753522094413
-0.4197252064163884 -0.8832223490526269 0.2091626956048331
-0.4546576626397029 -0.8461215378124481 0.278145201383918
-0.6884585235712988 -0.7178193717225984 0.1037314364202172
-0.6010955357359677 -0.7979578831500083 0.04412905660727001
-0.5161164457964174 -0.8471260020475995 0.1264964467221286
-0.5817077655488018 -0.7905701185559342 0.1913503675112138
-0.1229700883919347 -0.9856988684612852 -0.1152219513591995
-0.09921183396923325 -0.9949182573505764 0.01716604762178894
-0.172544181109539 -0.9733386586910385 0.1511302784446864
-0.2767884111827654 -0.9497779191225572 0.1459797238733712
-0.4146424371900324 -0.8980377331926619 -0.1469689730633488
-0.2753975399640403 -0.9411513848991477 -0.1959343402371592
-0.2460472411130054 -0.9654238039939571 -0.08612568619474695
-0.2114169129753335 -0.9768983647982101 0.03118451158128665
-0.3282416535682481 -0.9434871072839364 0.04571099705510929
-0.3745887276460537 -0.9256708686132705 -0.05307285672793754
-0.04459109678370963 -0.9564112369458763 0.2885986485264349
-0.01679557129173918 -0.9108469988764859 0.4124022956079207
-0.1553171475065043 -0.9119407582199318 0.3797902542031573
-0.3048591288332867 -0.8916270081232563 0.3347569117317522
-0.2922680748677674 -0.9253464636541985 0.241481458119994
-0.1650406682897673 -0.9491471381525528 0.2681068591947728
-0.3381460799896138 -0.4993116837904654 0.7977123986863862
-0.2968707488778562 -0.4383638973277222 0.8483542019583277
-0.2913491360142694 -0.2632484234768699 0.9196825259189616
-0.323534692306527 -0.1547673820155528 0.9334732777847328
-0.4624526933621611 -0.06953401754063916 0.8839131896327497
-0.5649793648216646 -0.08494984595720208 0.8207203183774336
-0.5079492055948972 -0.2165986280013751 0.833710164795557
-0.4317376344909647 -0.3583939562967461 0.8277417393451366
-0.3631299903600075 -0.3122046869042528 0.8778751867869133
-0.4186660751004777 -0.1869424155585315 0.8886907509505779
-0.08000811254644961 -0.4557331801813407 0.8865133785840776
-0.1670073689365651 -0.4169786454549275 0.8934412951926164
-0.1023882526764784 -0.697414439895397 0.7093163925493667
-0.0924128961724953 -0.5850041023449769 0.8057481348787344
-0.19534173906482 -0.5165488015721013 0.8336779597503808
-0.2207408616551533 -0.6082101417321513 0.7624656684008119
-0.1129958729643328 -0.01698996919144041 0.9934501867934306
-0.2312263466810805 -0.03476700877031957 0.9722785772100943
-0.1051754047292597 -0.1553036144329201 0.9822519644083728
-0.2149250161882112 -0.156016718228895 0.9640881811585404
-0.1934485398734579 -0.2856490785698005 0.9386065556627289
-0.09414397379717007 -0.3049567915246607 0.9477015709075629
-0.6781587491239625 -0.6294166684180214 -0.379388150189461
-0.6187573101265266 -0.6936824162335562 -0.3687059757765811
-0.5575613206933874 -0.7858654312936079 -0.2674713023192533
-0.5562902533790325 -0.8114956845136563 -0.1789298969183309
-0.7557565184123195 -0.6460162980625671 -0.1072148661092571
-0.7249303407178501 -0.6443613295339119 -0.2434635046736802
-0.645670753054614 -0.7190821403340402 -0.2569633322139631
-0.6633786306787542 -0.7343171447275353 -0.143899698811294
-0.4189743955127543 -0.5756532887197031 -0.702199221796003
-0.3756894234093275 -0.6806533763998744 -0.628942317175286
-0.4011227211850608 -0.7765365449998657 -0.4858925362966212
-0.4788578830382749 -0.7689092004924095 -0.4236434458955142
-0.5099068747534797 -0.6039489561167816 -0.6125688838690624
-0.4593671677335171 -0.6944263379233787 -0.5538536507118211
-0.5418050251561787 -0.6992959106846756 -0.4662966266393131
-0.5985332603416652 -0.6229357501833853 -0.5036953319301655
-0.2647884472252416 -0.8572237318818525 -0.4416498066506939
-0.2034310499816178 -0.9188293945732146 -0.3381839019994841
-0.32024374706499 -0.9008357289116712 -0.2931534273754158
-0.440236049852033 -0.8653648857242264 -0.2394490237319312
-0.4619955400732524 -0.8220983622344431 -0.3327377402157294
-0.3629093777385329 -0.8456768838365505 -0.3913149520449381
0.8279031669131389 -0.1009079448583793 -0.5517190706144325
0.7741407334432859 -0.2070144299203887 -0.5982066119900612
0.6466514370721358 -0.2872449087986421 -0.7066344750306213
0.5785154207898638 -0.2569786437586702 -0.7741329889368371
0.5040736316388026 -0.1496892486654796 -0.8505897381937035
0.5034624202605397 -0.07496228984499652 -0.8607591106033061
0.7436033573205292 -0.09493871484492379 -0.6618464228242318
0.6995773400543341 -0.1918474631055059 -0.6883212158451054
0.6088249719393323 -0.1726217376174589 -0.7742957375867444
0.6344051677357326 -0.08626592008426748 -0.7681720342359591
0.3874636885734759 -0.5078892917429968 -0.7693636054362289
0.3194129403702343 -0.4186880392726734 -0.8501033462432936
0.3286514727766298 -0.2895677851587605 -0.8989653537484089
0.4161234979355326 -0.2579228508119484 -0.8719616032228337
0.6239642407673593 -0.4140288598407771 -0.6627584246635864
0.5350926367912544 -0.5045397242918959 -0.6775806495637551
0.4767731286943245 -0.4430060392292373 -0.7592318703541417
0.4073061223540294 -0.3706271811233292 -0.8347078622521171
0.494761557544602 -0.3162833625330936 -0.8094293272181328
0.5645531318072748 -0.3687334488950999 -0.7384547413569246
0.1597064701851172 -0.2093440196363367 -0.9647118351215099
0.07749273771469525 -0.1015778583485994 -0.9918048267148095
0.2146667721478094 -0.09535575714002141 -0.9720213251343274
0.3600211709343091 -0.08644408380165945 -0.9289306631039697
0.3898973644021431 -0.1731938204384305 -0.9044246490417007
0.2732335000245679 -0.1932297494389761 -0.9423405533012336
0.6155226954353745 -0.7667900549180833 -0.1821121167926338
0.5957256970496823 -0.7482066575474675 -0.2920576851861921
0.6224992428634243 -0.6562392201623752 -0.426432619009312
0.6750091305768868 -0.585088952892547 -0.4494814688515403
0.7652975790338036 -0.4853853754209305 -0.4227536550433146
0.8043199157407847 -0.4617286018980559 -0.3740002290534108
0.6871239328921722 -0.6833506682782897 -0.2467641890761472
0.6579721257583805 -0.6729705182481627 -0.3379102888250034
0.7155800170046344 -0.584688204271004 -0.3822106003893609
0.7519474813268126 -0.5806424655213026 -0.3121366889034448
0.716211402936938 -0.3787944103402103 -0.5861365207851457
0.7223830350268501 -0.4438174571593935 -0.5302723973826723
0.5314810919596247 -0.6803312610818598 -0.5046555499389375
0.4895558610495362 -0.6337041901443653 -0.5989608153339593
0.5692376758339788 -0.5593823130015636 -0.6025445181164216
0.6460569118905986 -0.4736534180032547 -0.5985506713823125
0.6633591066086464 -0.5312624353423434 -0.5269866416461626
0.598852786274873 -0.6106457989697739 -0.5181573588895441
0.8352338841260086 -0.2186480387216823 -0.504556631084106
0.8280771190221451 -0.341252925659642 -0.4447861572494349
0.7779415833576289 -0.3940763950984916 -0.4893982914857821
0.7805770742053214 -0.3000557153256359 -0.5483301915137275
-0.7335303750383273 0.2033671939211535 0.6485175196806688
-0.6514898994608382 0.2675482090208631 0.7099146897692958
-0.5198871069031781 0.410490137075969 0.7491430060003201
-0.4824195958479583 0.4867246536836536 0.728265367183158
-0.7602201861576726 0.3651281377041158 0.5373515717061947
-0.7505693619933421 0.2856750632375615 0.5958484631860039
-0.6469331835970223 0.3498600336769974 0.6775510407316573
-0.6371408121993564 0.4304615530686141 0.6393390624384694
-0.5676378519780614 0.01330437995403457 0.8231708586167098
-0.4514888665562935 0.1403287441162806 0.8811728814202472
-0.3932994562172383 0.2942824583930214 0.8710415446012805
-0.4751808716296012 0.314563526278524 0.8217377484164597
-0.6284202245908179 0.07623936253721174 0.7741289175099622
-0.5223762438942328 0.1840122052665763 0.8326239055707472
-0.5897415335214601 0.2268469060076969 0.775077676671501
-0.6844299293736675 0.1402772648213407 0.7154564702005286
-0.1564376854857942 0.3929066534154282 0.9061741622126159
-0.008445276027083448 0.4919999446247454 0.870554267005839
-0.159513498882249 0.5037334556433759 0.8490041515445761
-0.322056482569039 0.5029687603014819 0.8020611249749289
-0.4016369164415631 0.411796595439651 0.8179922685060205
-0.2781771818728861 0.405574647551895 0.8707046920445621
-0.3219098144778946 -0.5179570580013202 -0.7925241683440477
-0.1698997568271431 -0.5601088701548808 -0.8108095498968304
-0.02233970433063439 -0.6522557067037015 -0.7576697372093429
-0.04013937649901548 -0.7119235358755946 -0.7011089141643122
-0.1507493850192776 -0.777311560549119 -0.6107874923023581
-0.2399953537653307 -0.7803437397118929 -0.5774650448845466
-0.2994845827721224 -0.6108329712213894 -0.7329338755649496
-0.1652242571657816 -0.6374804258146639 -0.7525421260947259
-0.1588056224627741 -0.7106977980135948 -0.6853389046105863
-0.2719437870719931 -0.6997489444954521 -0.6606042622860098
0.3638563584579346 -0.6782062689760672 -0.6384706783645538
0.2696668112206534 -0.7693642094641666 -0.5791014799857296
0.09367109692990411 -0.8281890904668889 -0.5525654314482366
0.01874548238925351 -0.801243960556114 -0.5980440807853102
0.1605602700692598 -0.6018703344917605 -0.7822867122315595
0.3129387450110465 -0.5981852348413842 -0.7377287893858211
0.2461582965822641 -0.6822076661405083 -0.6884757027541631
0.1721140622554835 -0.7604107055324778 -0.6262206547899191
0.06762788686584705 -0.7413675089718632 -0.6676830726916134
0.1153731080238121 -0.6740759259641105 -0.7295962527182775
0.05713360504758057 -0.9066582855586141 -0.4179790717274992
-0.0475545750023887 -0.9439731344069318 -0.3265781436567595
-0.1107648279041188 -0.9041004214809394 -0.4127148904235936
-0.175865647215575 -0.8493098463904948 -0.4977389465910831
-0.08032618870365586 -0.8308218117019714 -0.5507111952816998
-0.0102867274464598 -0.8741210203031771 -0.4855992433093103
0.01136308078559998 -0.9913134581184985 0.1310286539204452
0.09842212488363282 -0.9895133548099989 0.1057185224360045
0.2444314764017085 -0.9599802584412127 0.1367156053536812
0.3001469583265651 -0.9341623476972584 0.1930090970707284
0.08514906438738937 -0.9334447765069365 0.3484687734157362
0.04897804290882164 -0.9688974727013121 0.242567183901351
0.146462014785738 -0.9705126044844564 0.1914527690102687
0.1925784340239275 -0.9421219446286699 0.2744445084128759
-0.01542962177152164 -0.9754128277086415 -0.2198448141608529
0.1229067929928989 -0.972522498357835 -0.197721800578579
0.241010175288581 -0.9663334422572634 -0.09007648851168455
0.2148458468682438 -0.9766276573406303 -0.006299285738845058
-0.006930558893330236 -0.9940408569780012 -0.1087876004509106
0.1161565327893944 -0.9881479653128956 -0.1003556602206908
0.1079448453761652 -0.9941552556744379 0.001799436469747032
0.002118115900042157 -0.9999506831579499 0.009702826236896346
0.400547340732807 -0.9055656960890277 -0.1396875008677275
0.5229678128515459 -0.8455709481073208 -0.1073053513957121
0.4595254629120705 -0.888083624891825 -0.01199267002979631
0.3844171642890689 -0.9187897135766664 0.08971569553683716
0.301653339939123 -0.9524838670340473 0.04218703051222065
0.3541561998259308 -0.9337956656113783 -0.05098079060056336
0.2259037025714276 -0.8573816987106352 -0.4624544733058442
0.2862557141521 -0.8624763394935255 -0.4173634266788599
0.3199115687143809 -0.8972912533409637 -0.3041792150698439
0.2928216110501998 -0.9262299515418215 -0.2373890919330549
0.06286679842808271 -0.9512365339734191 -0.3019881158086175
0.1445076167643036 -0.9118714814070759 -0.3841978007401475
0.2329273757388629 -0.9088692085461972 -0.3459791892412257
0.1779128353386312 -0.945708012720712 -0.2719988560593788
0.4998144296731126 -0.7713201767484308 -0.3940186808151495
0.4253386260220723 -0.8197296205288401 -0.3835758105528808
0.4121460902632398 -0.7154351195115759 -0.5641703555223215
0.4579920876302447 -0.7469269228411449 -0.4820201443955932
0.3755712138420144 -0.808638048476763 -0.4528253193991343
0.3232751366668452 -0.7916588814805274 -0.5184297458537974
0.5204980731785033 -0.8294752221943833 -0.2026144407070823
0.411765382176844 -0.883973965968333 -0.2214481824964339
0.4201373632150632 -0.8552453037833908 -0.3033810580559531
0.5128271533666356 -0.8046777706591317 -0.2991688422562131
-0.2732410274481053 0.239670051264969 0.9316102229182283
-0.2365341082897433 0.2074730225880272 0.9492136537754627
-0.1089699664638228 0.219975895363747 0.9693998926489477
-0.02027026381440926 0.260618849322346 0.9652289530379776
-0.01246807664799839 0.417904587059966 0.9084053628083328
-0.1408974858671425 0.3355698774245914 0.9314186791349867
-0.1250037947346171 0.277680325329887 0.952506004299518
-0.01643761090948043 0.3402391572783294 0.9401952567430452
-0.3039910480582056 0.02097614882351532 0.9524439321456184
-0.2538511349535255 0.09760951713492226 0.9623055561761527
-0.4852152626423087 0.01599147314474376 0.874248489667335
-0.3965216490527304 0.0185750483925913 0.9178374308175257
-0.3204462429109042 0.1122295080264587 0.9405948877877365
-0.3866962574067476 0.1265527628101123 0.9134825683792449
-0.08379951373322179 0.07350372650840367 0.9937680029501117
-0.05262363111810552 0.1669352047601226 0.984562537810393
-0.1523617351543017 0.1336422469798627 0.9792474924568066
-0.1934128320841255 0.04797990735301055 0.9799435722915858
0.1633953022901043 -0.3452577648781952 -0.9241747946037255
0.08108152463522908 -0.3715393403392884 -0.9248698854125771
-0.08633784822627134 -0.3481130732031115 -0.9334682984594295
-0.1662712432329382 -0.299097520766342 -0.9396246839803651
-0.001344756604700463 -0.1673088950690258 -0.9859036085036184
0.08029062740734573 -0.256826008323529 -0.9631167201326832
-0.002439801777638756 -0.3035497562736258 -0.952812464671568
-0.08350539941820143 -0.2339405167159735 -0.9686581868268445
-0.004242682417477541 -0.5278564945624725 -0.8493229779030605
-0.003720448703589219 -0.462882397887256 -0.8864118929637553
0.268148592260221 -0.5233617303009743 -0.8088194061255158
0.135555602750355 -0.5306250937536067 -0.8366968916172477
0.1088385851403675 -0.453212236579822 -0.8847331976358515
0.2177395958536155 -0.4381323263970925 -0.872140775886196
-0.2739337750436461 -0.451176587222151 -0.8493526794170428
-0.2215707984786012 -0.3775580547203193 -0.8990863676963207
-0.1152436605135197 -0.4224214645819436 -0.8990433832534949
-0.1433000090449886 -0.4935935385096897 -0.8578056459065712
$EndNodes
$Elements
1 90 1 90
2 1 36 90
1 2 24 63 23 93 94 95 96 97 98 99 100 101 102 103 104 
2 16 57 63 24 105 106 107 108 96 95 109 110 111 112 113 114 
3 12 23 63 57 115 116 98 97 108 107 117 118 119 120 121 122 
4 1 21 64 18 123 124 125 126 127 128 129 130 131 132 133 134 
5 14 34 64 21 135 136 137 138 126 125 139 140 141 142 143 144 
6 4 18 64 34 145 146 128 127 138 137 147 148 149 150 151 152 
7 12 57 65 55 118 117 153 154 155 156 157 158 159 160 161 162 
8 16 56 65 57 163 164 165 166 154 153 106 105 167 168 169 170 
9 11 55 65 56 171 172 156 155 166 165 173 174 175 176 177 178 
10 4 34 66 33 148 147 179 180 181 182 183 184 185 186 187 188 
11 14 50 66 34 189 190 191 192 180 179 136 135 193 194 195 196 
12 9 33 66 50 197 198 182 181 192 191 199 200 201 202 203 204 
13 7 44 67 43 205 206 207 208 209 210 211 212 213 214 215 216 
14 14 58 67 44 217 218 219 220 208 207 221 222 223 224 225 226 
15 13 43 67 58 227 228 210 209 220 219 229 230 231 232 233 234 
16 8 49 68 48 235 236 237 238 239 240 241 242 243 244 245 246 
17 12 55 68 49 158 157 247 248 238 237 249 250 251 252 253 254 
18 11 48 68 55 255 256 240 239 248 247 172 171 257 258 259 260 
19 4 33 69 26 184 183 261 262 263 264 265 266 267 268 269 270 
20 9 28 69 33 271 272 273 274 262 261 198 197 275 276 277 278 
21 3 26 69 28 279 280 264 263 274 273 281 282 283 284 285 286 
22 5 37 70 36 287 288 289 290 291 292 293 294 295 296 297 298 
23 12 49 70 37 250 249 299 300 290 289 301 302 303 304 305 306 
24 8 36 70 49 307 308 292 291 300 299 236 235 309 310 311 312 
25 8 47 71 38 313 314 315 316 317 318 319 320 321 322 323 324 
26 10 39 71 47 325 326 327 328 316 315 329 330 331 332 333 334 
27 6 38 71 39 335 336 318 317 328 327 337 338 339 340 341 342 
28 5 36 72 35 294 293 343 344 345 346 347 348 349 350 351 352 
29 8 38 72 36 320 319 353 354 344 343 308 307 355 356 357 358 
30 6 35 72 38 359 360 346 345 354 353 336 335 361 362 363 364 
31 3 29 73 27 365 366 367 368 369 370 371 372 373 374 375 376 
32 12 37 73 29 302 301 377 378 368 367 379 380 381 382 383 384 
33 5 27 73 37 385 386 370 369 378 377 288 287 387 388 389 390 
34 5 35 74 31 348 347 391 392 393 394 395 396 397 398 399 400 
35 6 32 74 35 401 402 403 404 392 391 360 359 405 406 407 408 
36 4 31 74 32 409 410 394 393 404 403 411 412 413 414 415 416 
37 3 27 75 26 372 371 417 418 419 420 280 279 421 422 423 424 
38 5 31 75 27 396 395 425 426 418 417 386 385 427 428 429 430 
39 4 26 75 31 266 265 420 419 426 425 410 409 431 432 433 434 
40 8 48 76 47 242 241 435 436 437 438 314 313 439 440 441 442 
41 11 53 76 48 443 444 445 446 436 435 256 255 447 448 449 450 
42 10 47 76 53 330 329 438 437 446 445 451 452 453 454 455 456 
43 11 56 77 42 174 173 457 458 459 460 461 462 463 464 465 466 
44 16 46 77 56 467 468 469 470 458 457 164 163 471 472 473 474 
45 7 42 77 46 475 476 460 459 470 469 477 478 479 480 481 482 
46 10 53 78 41 452 451 483 484 485 486 487 488 489 490 491 492 
47 11 42 78 53 462 461 493 494 484 483 444 443 495 496 497 498 
48 7 41 78 42 499 500 486 485 494 493 476 475 501 502 503 504 
49 7 43 79 41 212 211 505 506 507 508 500 499 509 510 511 512 
50 13 54 79 43 513 514 515 516 506 505 228 227 517 518 519 520 
51 10 41 79 54 488 487 508 507 516 515 521 522 523 524 525 526 
52 2 23 80 22 100 99 527 528 529 530 531 532 533 534 535 536 
53 12 29 80 23 380 379 537 538 528 527 116 115 539 540 541 542 
54 3 22 80 29 543 544 530 529 538 537 366 365 545 546 547 548 
55 4 32 81 18 412 411 549 550 551 552 146 145 553 554 555 556 
56 6 19 81 32 557 558 559 560 550 549 402 401 561 562 563 564 
57 1 18 81 19 130 129 552 551 560 559 565 566 567 568 569 570 
58 7 45 82 44 571 572 573 574 575 576 206 205 577 578 579 580 
59 15 59 82 45 581 582 583 584 574 573 585 586 587 588 589 590 
60 14 44 82 59 222 221 576 575 584 583 591 592 593 594 595 596 
61 13 58 83 20 230 229 597 598 599 600 601 602 603 604 605 606 
62 14 21 83 58 140 139 607 608 598 597 218 217 609 610 611 612 
63 1 20 83 21 613 614 600 599 608 607 124 123 615 616 617 618 
64 7 46 84 45 478 477 619 620 621 622 572 571 623 624 625 626 
65 16 60 84 46 627 628 629 630 620 619 468 467 631 632 633 634 
66 15 45 84 60 586 585 622 621 630 629 635 636 637 638 639 640 
67 3 30 85 22 641 642 643 644 645 646 544 543 647 648 649 650 
68 17 25 85 30 651 652 653 654 644 643 655 656 657 658 659 660 
69 2 22 85 25 532 531 646 645 654 653 661 662 663 664 665 666 
70 9 52 86 28 667 668 669 670 671 672 272 271 673 674 675 676 
71 17 30 86 52 656 655 677 678 670 669 679 680 681 682 683 684 
72 3 28 86 30 282 281 672 671 678 677 642 641 685 686 687 688 
73 10 54 87 39 522 521 689 690 691 692 326 325 693 694 695 696 
74 13 40 87 54 697 698 699 700 690 689 514 513 701 702 703 704 
75 6 39 87 40 338 337 692 691 700 699 705 706 707 708 709 710 
76 16 62 88 60 711 712 713 714 715 716 628 627 717 718 719 720 
77 17 61 88 62 721 722 723 724 714 713 725 726 727 728 729 730 
78 15 60 88 61 636 635 716 715 724 723 731 732 733 734 735 736 
79 14 59 89 50 592 591 737 738 739 740 190 189 741 742 743 744 
80 15 51 89 59 745 746 747 748 738 737 582 581 749 750 751 752 
81 9 50 89 51 200 199 740 739 748 747 753 754 755 756 757 758 
82 15 61 90 51 732 731 759 760 761 762 746 745 763 764 765 766 
83 17 52 90 61 680 679 767 768 760 759 722 721 769 770 771 772 
84 9 51 90 52 754 753 762 761 768 767 668 667 773 774 775 776 
85 6 40 91 19 706 705 777 778 779 780 558 557 781 782 783 784 
86 13 20 91 40 602 601 785 786 778 777 698 697 787 788 789 790 
87 1 19 91 20 566 565 780 779 786 785 614 613 791 792 793 794 
88 2 25 92 24 662 661 795 796 797 798 94 93 799 800 801 802 
89 17 62 92 25 726 725 803 804 796 795 652 651 805 806 807 808 
90 16 24 92 62 110 109 798 797 804 803 712 711 809 810 811 812 
$EndElements
