$MeshFormat
4.1 0 8
$EndMeshFormat
$PhysicalNames
1
2 1 "sphere_primal"
$EndPhysicalNames
$Entities
2 3 1 1
1 6.123233995736766e-17 -1.499759782661858e-32 1 0 
2 6.123233995736766e-17 -1.499759782661858e-32 -1 0 
1 -1.000000000616482e-07 -1.000000000615789e-07 0.9999999000000001 1.000000000616482e-07 1.000000000615789e-07 1.0000001 0 2 1 -1 
2 -1.000000002249202e-07 -1.000000002449294e-07 -1.0000001 1.0000001 1e-07 1.0000001 0 2 2 -1 
3 -1.000000000616482e-07 -1.000000000615789e-07 -1.0000001 1.000000000616482e-07 1.000000000615789e-07 -0.9999999000000001 0 2 2 -2 
1 -1.0000001 -1.0000001 -1.0000001 1.0000001 1.0000001 1.0000001 1 1 4 -1 -2 3 2 
1 -1.0000001 -1.0000001 -1.0000001 1.0000001 1.0000001 1.0000001 0 1 1 
$EndEntities
$Nodes
4 192 1 192
0 1 0 1
1
6.123233995736766e-17 -1.499759782661858e-32 1
0 2 0 1
2
6.123233995736766e-17 -1.499759782661858e-32 -1
1 2 0 10
3
4
5
6
7
8
9
10
11
12
0.2817325568414293 -6.900457479029124e-17 -0.9594929736144975
0.5406408174555971 -1.324188093170811e-16 -0.8412535328311814
0.7557495743542578 -1.851052594379833e-16 -0.6548607339452855
0.9096319953545183 -2.227955823025862e-16 -0.4154150130018864
0.9898214418809326 -2.424363321053804e-16 -0.1423148382732862
0.989821441880933 -2.424363321053805e-16 0.1423148382732831
0.9096319953545197 -2.227955823025865e-16 0.4154150130018835
0.755749574354261 -1.851052594379841e-16 0.6548607339452819
0.5406408174556006 -1.324188093170819e-16 0.8412535328311793
0.2817325568414315 -6.900457479029177e-17 0.9594929736144968
2 1 0 180
13
14
15
16
17
18
19
20
21
22
23
24
25
26
27
28
29
30
31
32
33
34
35
36
37
38
39
40
41
42
43
44
45
46
47
48
49
50
51
52
53
54
55
56
57
58
59
60
61
62
63
64
65
66
67
68
69
70
71
72
73
74
75
76
77
78
79
80
81
82
83
84
85
86
87
88
89
90
91
92
93
94
95
96
97
98
99
100
101
102
103
104
105
106
107
108
109
110
111
112
113
114
115
116
117
118
119
120
121
122
123
124
125
126
127
128
129
130
131
132
133
134
135
136
137
138
139
140
141
142
143
144
145
146
147
148
149
150
151
152
153
154
155
156
157
158
159
160
161
162
163
164
165
166
167
168
169
170
171
172
173
174
175
176
177
178
179
180
181
182
183
184
185
186
187
188
189
190
191
192
0.9270362073438568 0.2474482505274753 -0.2817325568414299
0.3952970456773803 0.2479407607677369 0.8844578140469171
0.4026865546066541 0.2456457916295074 -0.8817605592187342
0.8183708767231977 -0.2213738459966791 0.5303420862424019
0.9300937800114859 -0.2456457916336383 -0.2731001747283017
0.4026865546452803 -0.2456457916552433 -0.8817605591939245
0.8154772362235717 0.2456457916327869 0.5240753974899666
0.4026865546091262 -0.2456457916327632 0.8817605592166982
0.6347955765865515 0.2456457916327814 0.7325931483430976
0.9691961815790657 0.246286728265627 0.001268500205738693
0.4591415296884047 0.4872193569523376 0.7428366939821581
0.868577043792787 0.4794656978305257 -0.1252460123120491
0.7916080909584619 0.4686168169975668 -0.3921159384112928
0.6958592601308755 0.6784508125699391 -0.2355512364928273
0.7429477750549301 0.6678380501097615 0.04495489257601078
0.5405670569782967 0.8393538741289031 -0.05720429087598651
0.4681255522335952 0.8183330201965383 -0.3334509490194977
0.5613293792889601 0.7973268347495014 0.2217639432716959
0.7316258587124839 0.6064367605840983 0.3113808893870745
0.532973598993722 0.6920052515062945 0.4868961641493896
0.6855467573227227 0.4730641060378946 0.5533859368495621
0.2709755377391019 0.7103375978874363 0.6496096943353843
0.2951596308243747 0.9428697477235995 -0.1545232382499616
0.2038181948169383 0.8875067138559032 -0.4132674392233927
0.3684487245972663 0.7431939213484353 -0.5584875402490046
0.08669210347656625 0.7893658174978945 -0.6077714088048969
0.158444117020839 0.507714776504819 0.8468300700259459
0.3278407354744738 0.8666902087340106 0.3759900720074312
0.06511348434524568 0.8580355095828825 0.5094460702088734
-0.07948792939910458 0.8972177009520564 -0.4343754898450754
-0.1953348400534735 0.7388145159668708 -0.6449786130236586
-0.02193651432158492 0.6053125309749072 -0.7956855718084694
0.09234537653300506 0.9655059012032539 0.243455717071237
-0.1666634812007917 0.9200210393960216 0.3546612060864528
-0.3572688799446348 0.832660730836788 -0.4231253416488456
-0.4580747603520739 0.6313337265248474 -0.6257677202290314
-0.6081653636354102 0.70007730103565 -0.3742013669788622
-0.6847793803679565 0.4758817090510434 -0.5519182903415465
-0.5207924047764774 0.3937989311957311 -0.7574283285672867
-0.717342559751627 0.2156442277852856 -0.6625082784327087
-0.8576876934594532 0.2882558472355874 -0.4257703454007767
-0.8576915358701422 0.01760164393857691 -0.5138632224895805
-0.9625760108062514 0.08389051682461852 -0.2577009984598849
-0.9249509223992514 -0.1888617524973936 -0.3298439473393249
-0.9860356052840641 -0.1597872021030141 -0.04692371635090404
-0.7956992136016007 -0.256467330628931 -0.5487141968218654
-0.8151631461754036 -0.4489681735155588 -0.3659735294902084
-0.989435446994414 0.1435987020681509 0.01992257501696088
-0.9747984473480806 -0.04952024489533603 0.2175217975129785
-0.6511985878942489 -0.5062927195745341 -0.5653389082933867
-0.6443517202690817 -0.6770761534908077 -0.3554978803880093
-0.440951604623157 -0.6990647480291677 -0.56291221379819
-0.4204180170646523 -0.8484569356840481 -0.3215113049599668
-0.5997428372760374 -0.7929303372036915 -0.1075639785343055
-0.3571183166021207 -0.9324910316175817 -0.05410160718542253
-0.5163783039968303 -0.8412307077242644 0.1602633568320916
-0.1614357017248038 -0.9511360478590276 -0.2632085345723608
-0.08758723004353114 -0.9961130628953112 0.009340399489502644
-0.932047877449504 0.2195489789399622 0.2882446877017762
-0.8799492246463538 0.01111317025361248 0.4749377427528739
0.1133987008521606 -0.9746228181713864 -0.1930054324227869
0.186579899553305 -0.9791302788978662 0.08057194318164092
-0.801831063494153 0.27844791568709 0.528709470186936
-0.4602037996087961 -0.4793853977224915 -0.7472630750117898
0.3814121970791853 -0.9176542824802981 -0.111513917359215
-0.01301856482022919 -0.9602928234810066 0.2786901687194899
0.2553026111594873 -0.9022985148463634 0.3473873441004935
0.04774567227674939 -0.8445223745022781 0.5333875792928395
0.0437602071552241 -0.8890483014468588 -0.4557171951596597
-0.8154576166876355 0.475914463743408 0.3294454409852193
-0.7123373047342805 0.06335167263232519 0.6989721953401206
-0.7626827306214814 -0.2086144007350199 0.6122050997972243
-0.5621709128958098 -0.1496703701572179 0.813365013380151
-0.5674305628734423 -0.4289219346444341 0.7028858586555887
-0.6118747192706915 0.3317349664852465 0.7180259326294872
-0.361000287523766 -0.3437835196912665 0.8668862001418888
-0.7364608560594842 -0.6682042039419405 0.1054919396278661
-0.5225279666260572 0.1162384446806999 -0.8446615583012228
-0.48351574547168 0.8550612219853012 -0.1873041124427571
-0.1926271202963697 0.7768247083787285 0.5995316213333799
0.3179375891430008 -0.7525418345268476 0.5767117795718265
0.5089990889493782 -0.7763286644124529 0.3717979723724702
0.09722429513359579 -0.6603233009354988 0.7446613825608402
-0.4154292739734922 0.8129771796034425 0.4080277242662429
-0.1811039961159855 -0.7329787700466005 0.6557007436718322
0.5440882536247592 -0.6184363788415005 0.5670135955979995
-0.7028503367258485 0.7001698951578489 -0.1255528656742183
-0.1269667108034558 0.9910920124289077 0.04020046327307208
-0.3426082383094134 0.3124826378449535 -0.8859876952237993
-0.1995752488748753 -0.6736516401389778 -0.7115920093526885
-0.1626226063260968 -0.4469333557143731 -0.8796615618870686
0.06202911389645717 -0.6008832099704245 -0.7969264439111423
-0.350741526346155 0.004654312679408829 -0.9364607408054284
0.7065860140894555 -0.6013311140286679 0.3730108523812906
0.6540687165571973 -0.742158548953348 0.1462696217151101
0.8557857012170897 -0.4985531702294837 0.1381143368608244
0.7414094556978582 -0.6596476627367419 -0.123194886451343
-0.6298981394702833 -0.6909137905282717 0.3547766451582334
-0.8255507238735227 -0.4865071065427352 0.2859664973302264
-0.5526804465650728 0.8265876403844414 0.1062882719226952
-0.4442091615885485 0.6264957634710301 0.6404539633054431
-0.1932261141635838 0.5719975923813231 0.797171514239697
-0.8969977681508435 -0.4407928504580666 0.0331159616719491
-0.513906073216445 -0.170286066409011 -0.8407753585222392
-0.3892352126301511 -0.8263509941049354 0.406988923424884
-0.3781155640580728 -0.08992897522495039 0.9213801602118615
0.1010612450203347 -0.3525042542178 -0.9303372375183595
-0.1223384986256274 -0.5223446115179574 0.8439131463439715
0.1246615800796518 -0.4720956514841809 0.872688481820272
-0.09334109765181925 -0.2958703302904697 0.9506567136158888
0.05860895963945633 0.2455000867759753 0.9676232207026499
-0.4731800432831236 -0.6393547781402033 0.6060743471785229
-0.6783851384301698 0.4969144979592441 0.5411742655328242
0.9314527803185368 0.2377021474377533 0.2754875807370417
0.6458985889949752 0.2394783120369346 -0.7248897507885186
0.4946226630579844 0.4834640328719663 -0.7222263842512276
0.1914530229517256 0.4787974516601478 -0.8567956234052521
0.01304025750465334 0.3204469348193005 -0.9471767066651963
0.8118731583146797 -0.2405677532337458 -0.5319672272915078
0.8010654103184253 -0.4759914419369378 -0.3629412563958083
0.650932551414148 -0.4566906003472407 -0.6063996281858559
0.6065832961856239 -0.6727225130962193 -0.4236757311459917
0.4599761553224213 -0.6323833616121888 -0.6233082868780676
0.3565322830204309 -0.8367416345381958 -0.4156298451682552
0.9320167413290161 -0.2381963569601637 0.2731433495682226
0.9693027730489917 -0.2457816506933388 0.006596540153176736
0.6059306500393832 -0.2139415698875432 0.7662095353210531
0.1728813246058161 -0.2766813300013166 0.9452827562328856
0.1379542628464564 0.2456457916327895 -0.9594929736144976
0.6383195868683111 -0.214878844166867 -0.739171960608477
0.01547664693976043 0.7244750849818062 0.6891272194886127
0.8086633298221229 0.2345737902801377 -0.5394800792565067
0.3707432766021805 -0.491318241586821 0.7881343846948395
0.8771207883203158 0.4568138726700254 0.1482572373699225
0.5857492366614656 0.6414643925665895 -0.4954001057929708
0.3327784565363219 0.936937016381227 0.106806021365594
0.03145832801168793 0.9771362389443339 -0.2102739739968564
-0.226774744577236 0.9444638775141806 -0.2378259853186954
0.42658990919797 -0.8922582623774349 0.1479737902118757
-0.507607484036768 0.1264070302271219 0.8522651611200717
-0.2321274280978608 0.192882184435902 0.9533694562193122
-0.3931795750690313 0.3406137616706653 0.8540445463259485
-0.7966721125436338 -0.5865271734892857 -0.1459432076320547
-0.6586314773986636 -0.04206451993766767 -0.7512889944236287
-0.3017701490986086 0.525540535391756 -0.7954507670328503
-0.2650316472467888 -0.9412257698866008 0.2094093504574936
-0.8860176341862102 -0.261763683443882 0.3826911626115271
-0.9271925538525023 0.3337919474046246 -0.169990893662875
-0.7981856842163368 0.5171468615169438 -0.3089639738469086
-0.9114442581933105 0.4012479254795561 0.09093660706667292
-0.2129976202472743 -0.8299672653635751 -0.5155447140587388
-0.6391457174009093 0.6781613458296802 0.3627532783457012
-0.7690452975623604 0.6283965427054629 0.1169919459323678
-0.154641464529516 -0.211455726488874 -0.965076418312679
0.2120464640636851 -0.7465587337323503 -0.6306237817954838
0.3027379641565286 -0.4874685991088203 -0.8189774660765976
0.8883366245085942 -0.4420980726887052 -0.1241262892445002
0.1282182403108203 0.9917309983647276 0.00545066363825708
-0.3374592110131063 0.9241838305341887 0.178900889549398
0.5689520790741891 -0.7919360037588554 -0.2216549067077283
-0.7162652092806301 -0.486367642959576 0.5004104973480488
0.683730557035137 0.4282932054617878 -0.590827771462791
0.6538608183246141 -0.4233070900036351 0.6271181211004195
0.5156465668302105 -0.3787950745516518 -0.7685199474389885
-0.3326752879838928 -0.5465867035543506 0.7684856070626322
-0.1183149371740424 0.3729498402845385 0.9202771279746333
-0.9148694589424894 -0.361055410339976 -0.1807010341932449
-0.6352309333088223 -0.3054900319102584 -0.7093359583237493
-0.1666741143148096 -0.880805920602636 0.4431711518687974
-0.3551308527748805 0.9346048297081253 -0.01989697699733153
-0.8451399247727994 0.5281385334433013 -0.08251179944338784
-0.3381362420235179 -0.2423294634551208 -0.9093625860853118
-0.9481323247704347 -0.2674005253742942 0.1718780199879038
-0.143239908844699 0.2448126389195638 -0.9589312281594554
-0.1268365132048131 0.4550827570662295 -0.8813694929704819
0.833069300016819 0.4060264339182511 0.3756834789142521
0.8261124633590941 -0.4067152238747473 0.390026825425231
-0.01850232994059392 -0.7753855573647958 -0.631217000101276
0.2394152106936911 0.6529981071252828 -0.7185219752932357
0.5690460339095528 -0.8216525021089897 -0.03276853780449911
$EndNodes
$Elements
1 380 1 380
2 1 2 380
1 1 153 122 
2 166 186 2 
3 73 136 77 
4 145 175 20 
5 81 136 73 
6 32 34 23 
7 130 187 129 
8 121 145 140 
9 112 164 96 
10 23 33 32 
11 114 178 39 
12 93 145 95 
13 87 154 113 
14 39 123 14 
15 149 150 100 
16 108 138 137 
17 119 166 2 
18 96 171 112 
19 159 173 84 
20 23 39 14 
21 97 124 117 
22 129 187 44 
23 113 154 114 
24 98 145 93 
25 109 134 132 
26 96 164 113 
27 113 164 125 
28 113 125 87 
29 116 184 76 
30 40 41 34 
31 32 40 34 
32 100 170 149 
33 140 145 20 
34 39 143 114 
35 136 172 77 
36 111 173 159 
37 98 175 145 
38 21 23 14 
39 137 189 108 
40 88 122 118 
41 76 184 103 
42 37 147 128 
43 57 179 115 
44 11 21 14 
45 115 185 57 
46 117 181 97 
47 76 180 116 
48 54 156 58 
49 120 122 88 
50 109 172 134 
51 154 178 114 
52 167 168 135 
53 10 139 16 
54 34 39 23 
55 104 168 167 
56 112 165 164 
57 14 123 12 
58 12 123 1 
59 95 145 121 
60 128 191 37 
61 52 156 54 
62 106 175 98 
63 21 33 23 
64 40 45 41 
65 41 143 34 
66 81 167 136 
67 18 168 119 
68 106 189 175 
69 39 178 123 
70 141 186 130 
71 108 169 138 
72 123 153 1 
73 150 182 100 
74 13 22 7 
75 127 144 5 
76 84 173 86 
77 45 46 41 
78 32 33 31 
79 97 177 124 
80 6 13 7 
81 134 172 136 
82 7 138 17 
83 46 92 41 
84 45 100 46 
85 8 138 7 
86 46 96 92 
87 7 22 8 
88 96 113 92 
89 113 114 92 
90 4 18 3 
91 51 52 50 
92 75 82 71 
93 48 51 50 
94 76 102 64 
95 69 81 73 
96 51 90 52 
97 86 88 85 
98 74 79 78 
99 62 76 64 
100 76 103 102 
101 72 83 75 
102 72 84 83 
103 103 104 102 
104 51 101 90 
105 52 53 50 
106 68 110 89 
107 84 85 83 
108 7 17 6 
109 17 131 6 
110 103 119 104 
111 101 105 90 
112 68 89 66 
113 95 121 120 
114 68 117 110 
115 110 111 89 
116 134 135 133 
117 105 116 90 
118 17 132 131 
119 85 152 83 
120 132 134 133 
121 117 124 110 
122 134 136 135 
123 111 115 89 
124 95 120 97 
125 2 141 3 
126 9 19 10 
127 1 140 12 
128 10 21 11 
129 121 122 120 
130 133 142 131 
131 12 20 11 
132 107 109 108 
133 132 133 131 
134 10 16 9 
135 99 112 91 
136 49 99 91 
137 73 74 70 
138 72 75 71 
139 54 56 55 
140 54 58 56 
141 61 72 71 
142 54 55 53 
143 69 73 70 
144 103 166 119 
145 61 71 60 
146 107 108 106 
147 49 91 47 
148 57 60 55 
149 65 163 69 
150 94 107 106 
151 57 61 60 
152 69 70 67 
153 56 57 55 
154 52 54 53 
155 48 49 47 
156 95 97 80 
157 67 68 66 
158 65 69 67 
159 94 106 98 
160 44 157 43 
161 58 62 59 
162 43 48 47 
163 74 78 70 
164 58 59 56 
165 3 15 4 
166 93 95 80 
167 65 67 66 
168 88 118 85 
169 48 50 49 
170 83 87 75 
171 79 94 93 
172 38 44 43 
173 43 47 42 
174 94 98 93 
175 79 93 80 
176 84 86 85 
177 73 77 74 
178 65 66 63 
179 79 80 78 
180 62 63 59 
181 38 43 42 
182 62 64 63 
183 64 65 63 
184 38 42 36 
185 37 38 36 
186 30 40 32 
187 29 37 36 
188 30 32 31 
189 29 36 35 
190 30 31 27 
191 29 35 28 
192 28 30 27 
193 26 29 28 
194 26 28 27 
195 26 27 24 
196 25 147 26 
197 25 26 24 
198 13 25 24 
199 13 24 22 
200 34 143 39 
201 2 186 141 
202 6 144 13 
203 40 148 45 
204 132 169 109 
205 6 131 5 
206 19 21 10 
207 12 140 20 
208 3 141 15 
209 22 126 8 
210 137 138 8 
211 8 126 9 
212 13 144 25 
213 26 147 29 
214 83 152 87 
215 43 157 48 
216 69 163 81 
217 118 152 85 
218 64 163 65 
219 15 129 128 
220 139 175 16 
221 124 177 86 
222 5 144 6 
223 9 126 19 
224 147 174 128 
225 49 161 99 
226 70 158 67 
227 50 161 49 
228 115 155 89 
229 94 151 107 
230 127 174 144 
231 91 150 47 
232 9 137 8 
233 35 148 28 
234 89 155 66 
235 118 153 152 
236 19 33 21 
237 136 167 135 
238 156 180 58 
239 67 158 68 
240 78 158 70 
241 129 191 128 
242 27 146 24 
243 28 148 30 
244 24 146 22 
245 31 146 27 
246 15 141 129 
247 71 162 60 
248 99 165 112 
249 148 170 45 
250 82 162 71 
251 55 160 53 
252 47 150 42 
253 131 142 5 
254 53 161 50 
255 92 143 41 
256 86 177 88 
257 60 160 55 
258 119 168 104 
259 66 155 63 
260 30 148 40 
261 77 151 74 
262 79 151 94 
263 72 159 84 
264 82 165 162 
265 16 137 9 
266 68 158 117 
267 108 189 106 
268 36 149 35 
269 11 14 12 
270 63 155 59 
271 75 125 82 
272 74 151 79 
273 61 159 72 
274 4 127 5 
275 11 139 10 
276 46 171 96 
277 111 185 115 
278 22 146 126 
279 135 176 133 
280 60 162 160 
281 35 170 148 
282 17 169 132 
283 124 173 110 
284 29 147 37 
285 48 157 51 
286 102 163 64 
287 62 180 76 
288 97 181 80 
289 42 149 36 
290 112 182 91 
291 90 156 52 
292 56 179 57 
293 87 125 75 
294 38 191 44 
295 4 142 18 
296 33 188 31 
297 107 192 109 
298 109 169 108 
299 160 161 53 
300 57 185 61 
301 51 157 101 
302 168 176 135 
303 25 174 147 
304 164 165 82 
305 138 169 17 
306 5 142 4 
307 100 171 46 
308 44 191 129 
309 159 185 111 
310 125 164 82 
311 42 150 149 
312 115 179 155 
313 15 128 127 
314 123 178 153 
315 103 184 166 
316 45 170 100 
317 86 173 124 
318 110 173 111 
319 58 180 62 
320 120 177 97 
321 153 178 154 
322 78 181 158 
323 101 186 105 
324 19 188 33 
325 155 179 59 
326 128 174 127 
327 122 140 1 
328 149 170 35 
329 165 183 162 
330 15 127 4 
331 20 139 11 
332 153 154 152 
333 171 182 112 
334 80 181 78 
335 114 143 92 
336 88 177 120 
337 158 181 117 
338 109 192 172 
339 144 174 25 
340 116 156 90 
341 59 179 56 
342 175 189 16 
343 44 187 157 
344 163 190 81 
345 152 154 87 
346 104 190 102 
347 129 141 130 
348 133 176 142 
349 37 191 38 
350 105 184 116 
351 99 183 165 
352 121 140 122 
353 31 188 146 
354 91 182 150 
355 161 183 99 
356 18 176 168 
357 162 183 160 
358 126 188 19 
359 146 188 126 
360 81 190 167 
361 116 180 156 
362 160 183 161 
363 151 192 107 
364 16 189 137 
365 61 185 159 
366 100 182 171 
367 77 192 151 
368 157 187 101 
369 142 176 18 
370 102 190 163 
371 167 190 104 
372 172 192 77 
373 166 184 105 
374 101 187 186 
375 186 187 130 
376 3 18 2 
377 18 119 2 
378 20 175 139 
379 105 186 166 
380 122 153 118 
$EndElements
