$MeshFormat
4.1 0 8
$EndMeshFormat
$PhysicalNames
1
2 1 "flat_diamonds"
$EndPhysicalNames
$Entities
0 0 1 0
1 -0.9882029804787908 -0.9871883145566538 -1.045053628532433 0.9179133698467012 0.9818421297027633 1.037300348355716 1 1 0 
$EndEntities
$Nodes
1 180 1 180
2 1 0 180
1
2
3
4
5
6
7
8
9
10
11
12
13
14
15
16
17
18
19
20
21
22
23
24
25
26
27
28
29
30
31
32
33
34
35
36
37
38
39
40
41
42
43
44
45
46
47
48
49
50
51
52
53
54
55
56
57
58
59
60
61
62
63
64
65
66
67
68
69
70
71
72
73
74
75
76
77
78
79
80
81
82
83
84
85
86
87
88
89
90
91
92
93
94
95
96
97
98
99
100
101
102
103
104
105
106
107
108
109
110
111
112
113
114
115
116
117
118
119
120
121
122
123
124
125
126
127
128
129
130
131
132
133
134
135
136
137
138
139
140
141
142
143
144
145
146
147
148
149
150
151
152
153
154
155
156
157
158
159
160
161
162
163
164
165
166
167
168
169
170
171
172
173
174
175
176
177
178
179
180
0.02153536616403973 -0.003141351720928207 1.037300348355716
0.3490778543340094 -0.3582710193918644 0.8182853801359958
0.88756076994848 -0.003141351720928407 0.5373003483557131
0.3611653572719246 0.2223015077652029 0.8602011738069143
-2.225499908851662e-05 -7.485476219687433e-05 0.9997555683080522
0.3827229784350528 0.2192350108064716 0.8977459538545783
0.1214120391519729 0.5654109367042738 0.8155248566816542
-0.2000588450622981 0.175573563564159 0.9641779131143279
-0.003354692195983019 -0.0008660961651413284 1.009119009329086
-0.249928532528986 -0.3731357950210217 0.8830526072683568
-0.6573715565471229 -0.09920354942341865 0.7591801311258226
-0.1967264078654037 0.1763648049671034 0.9548144720932941
0.002230316396409841 -0.01787348457079393 1.031883000223654
0.3683829041016392 -0.3435388865419987 0.8237027282680581
0.01155755640449479 -0.8714946104652321 0.5526938833861925
-0.2555135411213788 -0.356128406615369 0.8602886163737888
0.02601172456116966 0.001067878753614302 -1.045053628532433
0.3447220410100485 0.2250573495978353 -0.8557370553494499
0.8920371283456079 0.001067878753614088 -0.5450536285324333
0.4758381301432055 -0.2239914005783856 -0.7906806753886388
-0.0001465910059845923 -0.0008027817105118013 -0.9974811146285896
-0.1413560239411168 0.04365965281237182 -0.9915286419271738
0.08464008666406361 0.5791352196391683 -0.8077175825070811
0.3708803565772026 0.2269280100619614 -0.9033095692532931
-0.0021200276196225 -0.001903868587328398 -1.007674898475718
-0.1393825873274789 0.04476073968918844 -0.9813348580800454
-0.4544718686753463 -0.4705174761465267 -0.7664759914532194
-0.001058047024198333 -0.3934986564837254 -0.9108275473615225
0.005863289208074648 -0.007059402355971124 -1.021065183845943
0.4959865654963005 -0.2158641194688002 -0.8146691200751291
0.4497717377952737 -0.5889367606750104 -0.7025077926902696
-0.009041363851895447 -0.3883431227150827 -0.897437261991298
0.9065348101773775 0.0003268417350916073 -0.5000000000000006
0.9090580920904493 -0.312413672972511 -0.03038709581692687
0.9065348101773795 0.0003268417350916073 0.4999999999999969
0.9038872461150805 0.3284711300428195 0.002618489331445871
0.897415323664715 0.01749056308897881 -0.5107392986826464
0.5973680571552195 0.5492846736602706 -0.5216414272288606
0.6204067647162974 0.8255856939255095 -0.004303770910232757
0.9130067326277429 0.3113074086889324 0.01335778801409176
0.8996215544386248 -0.01596718229843278 -0.5102478033273388
0.9159713478292019 -0.2961196489389866 -0.02013929248958866
0.6606156604089137 -0.7913041448373376 -0.08574037851116706
0.6895855100607182 -0.4907628844630133 -0.4590420059010031
0.8938675276810875 0.0181146926749064 -0.5362495963717359
0.6009158531388469 0.5486605440743429 -0.4961311295397712
0.1126288015666974 0.5980526940245866 -0.846486064250227
0.3428916416745688 0.2080105356765429 -0.8645410875101474
0.8775139586294413 -0.004970182689469829 -0.510788408684958
0.4903612998593722 -0.2179533391353017 -0.8249458952361142
0.455397003432202 -0.5868475410085089 -0.6922310175292845
0.7116931058699019 -0.5017598840719762 -0.4585014005433838
0.8974953952467095 0.01737132444986962 0.5107791910042189
0.6057709895831507 0.5378554935367862 0.5236804544926889
0.6204868362982899 0.8254664552864003 0.01721471877663517
0.9129266610457504 0.3114266473280415 -0.008160701672776171
0.8918285138732722 0.01573814720308844 0.5326601355020891
0.611437870956588 0.5394886707835673 0.5017995099948187
0.1472374042398934 0.5812239386695592 0.8484294238756942
0.3568976133471323 0.2034220088411861 0.8648413866605383
0.8976795324211275 -0.01700468934548316 0.5097635332127525
0.591943347656228 -0.6591354737529371 0.3826146866292094
0.6586736383914144 -0.792341651884388 -0.06572904197107325
0.9179133698467012 -0.2950821418919363 -0.04015062902968244
0.9080139292863912 -0.04090324907675232 0.5507241888446244
0.3286246949960981 -0.3205091220360405 0.8048615396470845
0.05131576551003594 -0.8945243749711903 0.5715350720071661
0.5816089507909641 -0.6352369140216679 0.3416540309973375
0.6038673350280149 0.8361514713664138 0.02342550272882282
0.1424476055954373 0.899355987024436 0.3223677769248874
0.1362847843430556 0.5935421319963539 0.8327592633300116
0.6223904908534257 0.5271704774567726 0.5174696705405012
0.5933527732182652 0.8360737781064811 0.006847386815572316
0.1392321145627676 0.9111516146790619 -0.3125377441224297
-0.3123283803701262 0.9761217036331449 0.02776986029770607
0.1529621674051871 0.8994336802843687 0.3389458928381379
0.603991956443713 0.8380230392959268 -0.01117150270186707
0.1285929313373199 0.9092023534896163 -0.2945188546049903
0.09976178927774035 0.6098659098090763 -0.8278434983527718
0.6137828654278039 0.5368473282898533 -0.5147736954372264
0.1167826206121137 0.5985259849103964 0.8343902314947147
-0.4224216814893931 0.7293804981188878 0.4675097373565933
-0.3213159822913183 0.9811832498071201 0.04597894437565975
0.1619497693263793 0.8943721341103934 0.3207368087601842
0.09365513568976418 0.6018201695678989 0.8594380884612869
-0.3992941965670436 0.7260863134613854 0.4424618803900211
-0.8865265676034729 0.4042890728666282 0.4002669350966181
-0.5252717065376951 0.2956173958174787 0.7204926753322404
0.1008736299556054 0.5844387796862991 0.8669403513904248
-0.5324902008035364 0.3129987856990785 0.7129904124031026
-0.6745775285465959 -0.0793844650384488 0.8012321848135593
-0.1795204358659306 0.1565457205821336 0.9127624184055573
-0.8891307986313636 -0.5327723359891982 0.08173155840424223
-0.9553074048938381 0.04605815401778309 0.01300305811076354
-0.9022829934802012 0.3641582383546972 0.366543536055719
-0.8467055486316106 -0.09410707737991654 0.4348979682870583
-0.8792639183631926 -0.5343427241967038 0.06537679543355231
-0.8290835544149688 -0.2813431686669969 -0.410071020280886
-0.9228704432767345 0.2653888918384336 -0.3752068648538858
-0.9651742851620091 0.04762854222528873 0.02935782108145346
-0.86370294798313 -0.5376495142231117 0.08240758744545691
-0.5795935706945093 -0.5852775582707176 0.5278719600032743
-0.6721245980409317 -0.1070110879026937 0.7606825518847371
-0.8721333992798442 -0.08922989914600293 0.4342219392458436
-0.8702455993341243 -0.5685299099641977 0.09012176176431975
-0.5730509193435152 -0.5543971625296317 0.5201577856844115
-0.0153231450327012 -0.8931751562799405 0.539146487569402
-0.3571715747607266 -0.8741922399390678 0.1205159151428689
-0.862350983556732 -0.5544686005948035 0.06933118580584836
-0.3650661905381187 -0.8882535493084618 0.1413064911013402
-0.1598150669787665 -0.9865446839859929 -0.2389146125242607
-0.5372488025763981 -0.7275201408960347 -0.352581032503604
-0.872372870336609 -0.5485640008571582 0.05768466556343889
-0.8359746024415524 -0.2671218920065426 -0.4023788904107726
-0.4791294970989949 -0.4882017288376612 -0.772902584771519
-0.5272269157965213 -0.7334247406336802 -0.3409345122611946
-0.3318442212369027 0.9657098940976435 0.03332112840420183
-0.4118934425438088 0.7448538538283646 0.4801675533280512
-0.8739273216267078 0.3855215324996492 0.3625612621585881
-0.7776738333021327 0.5918173195366246 -0.0001419022718783629
-0.3436564532347965 0.976926629779467 0.01715086146562302
-0.437750520543932 0.7169229553320519 -0.4672193239584499
-0.9161938836893059 0.2995393098727148 -0.3790046427189057
-0.7658616013042389 0.5806005838548011 0.01602836466670044
-0.3225831537112752 0.9818421297027633 0.009707102347064019
-0.4588238200674534 0.7120074554087555 -0.4597755648398909
0.07886783271114355 0.6136370746892491 -0.8278873667859745
0.1494868879039167 0.9054311886094436 -0.2944749861717876
0.6367736999363667 -0.7969186953995803 -0.0682218141117735
0.6138432861112757 -0.6545584302377448 0.3851074587699096
0.01908143018972441 -0.8752028587551134 0.5280816442345939
0.1767561448342783 -0.9576924010683461 0.07169800205498957
0.6342110206019873 -0.8014733141256742 -0.07974262190992544
0.1793188241686577 -0.9531377823422521 0.08321880985314151
-0.1358677868681125 -0.9871883145566538 -0.2407096876987493
0.3380744726975931 -0.8365056607689396 -0.3653986501817894
0.6327459159855049 -0.7825462311405442 -0.0795247072677602
0.7174552544841271 -0.4995207981598067 -0.46525767714441
0.4496348548179767 -0.5890866269206785 -0.6854747409282584
0.3395395773140755 -0.8554327437540697 -0.3656165648239546
-0.8693874178952485 0.3718172006179246 0.3565272809753538
-0.782213737033592 0.6055216514183491 0.005892078911355902
-0.8998417479599528 0.2746182423091667 -0.3688683569635611
-0.9882029804787908 0.03839919175455562 0.0230193131911288
-0.8590402751990602 0.3680166680437633 0.356823966366753
-0.8899482669127515 -0.09796550706898266 0.4446175379760243
-0.6543097304080243 -0.09827547997971407 0.7502869531545563
-0.5527579989421078 0.3318898006403437 0.7639356440621055
-0.9152617042479638 0.2973565192202535 -0.4076649686358841
-0.5107722645051641 0.1366060360684272 -0.7888853304881456
0.05872671262896421 0.6065387841134915 -0.8491039335843941
-0.438682699985274 0.719105745984513 -0.4385589980414714
-0.9103867189877877 0.2684340615579523 -0.3881257378623612
-0.5156472497653404 0.1655284937307284 -0.8084245612616685
-0.4735368208366316 -0.4709352824576881 -0.778129327909881
-0.8415672787039157 -0.2843883383865156 -0.3971521472724105
0.05508165350995185 0.5911713957232105 -0.8914435931348805
-0.111797590787005 0.03162347672832946 -0.9078026312993744
-0.4820568652158202 -0.4573802131856678 -0.8400082182338904
-0.5071272053861516 0.1519734244587081 -0.746545670937659
-0.6740351234977394 -0.1273036583895769 0.7875690766878496
-0.5776830452377018 -0.5649849877838344 0.5009854352001619
-0.01069101913851464 -0.8825873310257378 0.5583188380536517
-0.2332649655783694 -0.3450356860548635 0.8546636617063298
0.007580535720367312 -0.8713961830627256 0.5236840485904019
-0.3800752555137952 -0.8959712131562827 0.135978354121869
-0.1448060020030901 -0.9788270201381721 -0.2335864755447895
0.1882570393036354 -0.9614990767607339 0.07609559769918166
-0.1492240356406525 -0.9755914946175797 -0.2465165023627136
-0.5478398339145122 -0.7384733302644481 -0.3449791426651512
-0.4585165789810039 -0.4831531392068934 -0.7688579543675624
-0.05159263585292263 -0.7523210215963309 -0.6291527893916773
-0.1386747903810028 -0.9858892635678932 -0.2518402504348011
-0.06214188111257235 -0.7420232526460173 -0.6238290413195896
0.4482929559215688 -0.6067146589170478 -0.6968232183064755
0.3408814762104834 -0.8378047117577003 -0.3542680874457375
-0.4526276488296117 -0.4928360730892166 -0.7910707499032088
-0.05748156600431481 -0.7426380877140075 -0.6069399938560308
0.4436326408133113 -0.6060998238490575 -0.7137122657700343
-0.002902266869933031 -0.3711800595410356 -0.8862327889115332
$EndNodes
$Elements
1 45 1 45
2 1 3 45
1 1 2 3 4 
2 5 6 7 8 
3 9 10 11 12 
4 13 14 15 16 
5 17 18 19 20 
6 21 22 23 24 
7 25 26 27 28 
8 29 30 31 32 
9 33 34 35 36 
10 37 38 39 40 
11 41 42 43 44 
12 45 46 47 48 
13 49 50 51 52 
14 53 54 55 56 
15 57 58 59 60 
16 61 62 63 64 
17 65 66 67 68 
18 69 70 71 72 
19 73 74 75 76 
20 77 78 79 80 
21 81 82 83 84 
22 85 86 87 88 
23 89 90 91 92 
24 93 94 95 96 
25 97 98 99 100 
26 101 102 103 104 
27 105 106 107 108 
28 109 110 111 112 
29 113 114 115 116 
30 117 118 119 120 
31 121 122 123 124 
32 125 126 127 128 
33 129 130 131 132 
34 133 134 135 136 
35 137 138 139 140 
36 141 142 143 144 
37 145 146 147 148 
38 149 150 151 152 
39 153 154 155 156 
40 157 158 159 160 
41 161 162 163 164 
42 165 166 167 168 
43 169 170 171 172 
44 173 174 175 176 
45 177 178 179 180 
$EndElements
