$MeshFormat
4.1 0 8
$EndMeshFormat
$PhysicalNames
1
2 1 "primal_curved"
$EndPhysicalNames
$Entities
0 0 1 0
1 -0.9988429892318638 -0.9949182573505764 -1 0.9819805060619662 0.9996103390278308 1 1 1 0 
$EndEntities
$Nodes
1 137 1 137
2 1 0 137
1
2
3
4
5
6
7
8
9
10
11
12
13
14
15
16
17
18
19
20
21
22
23
24
25
26
27
28
29
30
31
32
33
34
35
36
37
38
39
40
41
42
43
44
45
46
47
48
49
50
51
52
53
54
55
56
57
58
59
60
61
62
63
64
65
66
67
68
69
70
71
72
73
74
75
76
77
78
79
80
81
82
83
84
85
86
87
88
89
90
91
92
93
94
95
96
97
98
99
100
101
102
103
104
105
106
107
108
109
110
111
112
113
114
115
116
117
118
119
120
121
122
123
124
125
126
127
128
129
130
131
132
133
134
135
136
137
6.123233995736766e-17 -1.499759782661858e-32 1
6.123233995736766e-17 -1.499759782661858e-32 -1
0.8660254037844384 -2.121150477449813e-16 -0.5000000000000004
0.8660254037844404 -2.121150477449818e-16 0.4999999999999969
0.5890168448360209 0.8080951308365307 0.006435527772413227
0.1214342941510615 0.5654857914664706 0.815769288373602
-0.8455952142933379 -0.5289758795786953 0.0717861573574564
-0.3166643087523706 0.9481430563631945 0.02735800125454698
0.6270195097547273 -0.7753369625389051 -0.07549257518382875
-0.8587474091421756 0.3679546947652 0.3565981350089332
-0.8892017392068798 0.2707557364564421 -0.3687975029299816
0.08478667767004826 0.57993800134968 -0.8102364678784916
-0.6540168643511398 -0.09833745325827732 0.7500611217967366
0.009327240008085012 -0.8536211258944382 0.5208108831625387
-0.1430592977153724 -0.9610519629698847 -0.2364596409726526
-0.4523518410557238 -0.4686136075591983 -0.7588010929775014
0.4439084485871991 -0.5818773583190393 -0.6814426088443269
-0.1595797934279846 -0.1653165874539405 -0.9732444273881384
-0.3191595868559693 -0.330633174907881 -0.8881547510249896
-0.3287897462040079 -0.1432742939591539 -0.9334718953892561
-0.1133952168899551 0.2771987728359796 -0.9540976706421136
0.0590702872561162 0.4040387625963689 -0.9128326130693815
0.02953514362805813 0.2020193812981845 -0.9789360780310269
-0.1415026149471015 0.04285687110186002 -0.9890097565557635
0.003504588772315682 -0.3207370037683084 0.9471618089171803
0.007009177544631296 -0.6414740075366169 0.7671127486133055
0.3589642345041336 -0.6927239097985746 0.6255223921973039
0.7065747162073508 -0.3463619548992875 0.6170782499933422
0.654653670707979 -1.603439044765184e-16 0.7559289460184527
0.3273268353539896 -8.01719522382592e-17 0.9449111825230676
0.370613220498049 -0.3614123711127926 0.855585728491712
-0.667586191414845 -0.248021523787793 -0.7020071230195626
-0.8301560550547981 0.02712830214759888 -0.5568707026576669
-0.6631815647829408 0.439133939176716 -0.6060953683993885
-0.2817899996418445 0.5602026355577339 -0.7789527605805233
-0.5368322295462481 0.1632068188322386 -0.8277527961940481
0.2355549007924499 -0.9056949943854421 0.3524634248511652
0.4609015054652835 -0.8771353518646468 0.1349198901908746
0.8001055418285813 -0.5852193864449569 0.1317170894917624
0.8903056028464243 -0.2926096932224785 0.3489061492328727
0.6235974762929148 -0.6761401630984202 0.3923782198419649
-0.6391554545292865 -0.7264516189594148 0.2524843564593782
-0.3142608057985967 -0.8498259703209404 0.4231264185877417
-0.2423365468878985 -0.6886746235535914 0.6833741734333895
-0.4953457328457974 -0.4005983356583981 0.7708135821449833
-0.7793809498168222 -0.2626071685847465 0.5688609760482175
-0.8487116099697276 -0.4184517428438472 0.3233987353307676
-0.5977013043843012 -0.593951192915134 0.5384933900912748
-0.207279101735548 0.9356978432975758 -0.2854906654025133
-0.05558167659141897 0.7965631527382918 -0.6019948678576251
-0.7855562433518798 0.5585534859915424 -0.266306950374146
-0.5708804434559034 0.812543281252497 -0.1177664441639329
-0.4647426650263581 0.7457065287483245 -0.4774264637473738
0.7834354571311025 -0.5730264241060786 -0.2405610146843855
0.8717562127594976 -0.2865132120530395 -0.3974308554129479
0.9819805060619654 -2.405158567147768e-16 -0.188982236504615
0.9819805060619662 -2.40515856714777e-16 0.1889822365046109
0.9495674984833883 -0.3120868312374193 -0.030387095816927
0.4754881153724569 0.8269053270804546 -0.3002309647346783
0.2856309843821559 0.7409976189740141 -0.6077314122502822
-0.01637879504072709 0.9996103390278308 0.02260321175583759
0.3183847473202136 0.9478449473512427 0.01486971602162568
0.1435680429450119 0.9391302619490127 -0.3121258850792705
-0.5440225225501998 0.8255598064401896 0.1499683331525494
-0.7416702364998866 0.6140186179257384 0.270011846278581
-0.6222671328332707 0.5073839216728406 0.5961083554382958
-0.240116926784457 0.5843967337380089 0.775128582280343
-0.02773393157903366 0.7813735376441189 0.6234470496430987
-0.1923802905231895 0.9251839149683816 0.3271460641701068
-0.427073355028341 0.7624206915628137 0.4861306804777061
0.3114349689960196 0.7259331126954903 0.6132123416718591
0.4864849835470833 0.8167593600067741 0.3102200970674189
0.1572980957874315 0.9274123275543193 0.3393577518812971
0.6909484695619973 0.2205520734402446 -0.6884380838616807
0.3938411572366378 0.4411041468804893 -0.806421896076329
0.7710662365301099 0.6096642443333515 -0.1837562735384455
0.8755602542024677 0.3048321221666757 -0.3747954356129097
0.6287579770354961 0.5667752367492495 -0.5323807259115065
0.4175685115846646 0.4258821166856809 0.8026586826418139
0.697954016067146 0.2129410583428404 0.6837516340949932
0.873961043987705 0.3042753465007892 0.3789572628987936
0.7696578845682666 0.6085506930015787 0.1931134246219025
0.6372409810454198 0.555226817986656 0.5344596454969109
0.9443966525080195 0.3287979717779113 0.002618489331445779
-0.9366656650254094 0.3230250255251026 -0.1353228171706996
-0.9258488682097381 0.3575482404665225 0.1223238691917519
-0.7928537457866652 0.6093841572710738 0.005821224877776466
-0.6476513856445854 -0.5425293176310972 -0.5349856280157296
-0.7931605990115301 -0.5648647651334544 -0.2276489870093834
-0.953165817224861 -0.2907807385477772 -0.08319547441821812
-0.9692735428156936 0.004630497338316416 -0.245941777036586
-0.8627522584848235 -0.2867100132850054 -0.4164803822047901
-0.9484337951240585 -0.2566401912718048 0.1860353420470078
-0.9533256736201258 0.07696765437883861 0.2919694165424749
-0.9988429892318637 0.0422616976072802 0.02294845915754937
-0.757982471393758 0.05991702388809859 0.6495171462772974
-0.829601224944879 0.223035148084965 0.5118760888034077
-0.8902411329696361 -0.09790353379041936 0.4448433693338442
0.6546536707079769 -1.603439044765179e-16 -0.7559289460184546
0.3273268353539885 -8.017195223825894e-17 -0.944911182523068
0.3707337655712181 0.2261252283514495 -0.9007906838818828
0.08448905342717332 0.393442063311078 0.9154588700037276
0.04224452671358669 0.196721031655539 0.9795489960523288
0.3827007234359642 0.2191601560442748 0.8975015221626303
-0.6720407318476205 -0.7397317385768272 -0.03403247977769668
-0.4146424371900324 -0.8980377331926619 -0.1469689730633487
-0.09921183396923325 -0.9949182573505764 0.01716604762178891
-0.04459109678370964 -0.9564112369458763 0.2885986485264348
-0.3818219598015129 -0.91374627032457 0.1388515195497322
-0.2312263466810805 -0.03476700877031957 0.9722785772100944
-0.4624526933621611 -0.06953401754063915 0.8839131896327497
-0.2532832247249691 -0.3740018911861631 0.8921716165974427
-0.3756894234093275 -0.6806533763998743 -0.6289423171752858
-0.2647884472252416 -0.8572237318818525 -0.4416498066506939
-0.5540045718397922 -0.753012861912143 -0.3550360040552122
0.7741407334432859 -0.2070144299203887 -0.5982066119900612
0.6239642407673593 -0.4140288598407771 -0.6627584246635865
0.3194129403702343 -0.4186880392726735 -0.8501033462432936
0.1597064701851172 -0.2093440196363367 -0.9647118351215098
0.5018498547043752 -0.2229235218247713 -0.8357343039210717
0.5957256970496823 -0.7482066575474675 -0.2920576851861921
0.5314810919596246 -0.6803312610818598 -0.5046555499389374
0.7231816607149045 -0.5067300667614458 -0.4692898092283415
-0.4514888665562936 0.1403287441162806 0.8811728814202472
-0.1564376854857942 0.3929066534154282 0.9061741622126159
-0.5530508649989925 0.3319517739189069 0.7641614754199253
-0.1698997568271431 -0.5601088701548806 -0.8108095498968304
0.1605602700692598 -0.6018703344917605 -0.7822867122315595
0.2696668112206534 -0.7693642094641666 -0.5791014799857296
0.05713360504758055 -0.9066582855586141 -0.4179790717274992
-0.05775737377820272 -0.7668605532440258 -0.6392096507817384
0.1229067929928988 -0.972522498357835 -0.197721800578579
0.400547340732807 -0.9055656960890276 -0.1396875008677275
0.1865103350159177 -0.9792741339290214 0.07896876312704475
0.3452659835448531 -0.8626420123557088 -0.369648696907886
-0.2000811000613867 0.1754987088019621 0.9639334814223798
-0.00317807464382094 -0.3954025250710538 -0.9185024458372406
$EndNodes
$Elements
1 30 1 30
2 1 21 30
1 2 16 12 18 19 20 21 22 23 24 
2 1 14 4 25 26 27 28 29 30 31 
3 12 16 11 21 20 32 33 34 35 36 
4 4 14 9 28 27 37 38 39 40 41 
5 7 14 13 42 43 44 45 46 47 48 
6 8 12 11 49 50 35 34 51 52 53 
7 4 9 3 40 39 54 55 56 57 58 
8 5 12 8 59 60 50 49 61 62 63 
9 8 10 6 64 65 66 67 68 69 70 
10 5 8 6 62 61 69 68 71 72 73 
11 3 12 5 74 75 60 59 76 77 78 
12 5 6 4 72 71 79 80 81 82 83 
13 3 5 4 77 76 82 81 57 56 84 
14 8 11 10 52 51 85 86 65 64 87 
15 11 16 7 33 32 88 89 90 91 92 
16 10 11 7 86 85 91 90 93 94 95 
17 7 13 10 47 46 96 97 94 93 98 
18 2 12 3 23 22 75 74 99 100 101 
19 4 6 1 80 79 102 103 30 29 104 
20 7 15 14 105 106 107 108 43 42 109 
21 13 14 1 45 44 26 25 110 111 112 
22 7 16 15 89 88 113 114 106 105 115 
23 3 17 2 116 117 118 119 100 99 120 
24 9 17 3 121 122 117 116 55 54 123 
25 10 13 6 97 96 124 125 67 66 126 
26 16 17 15 127 128 129 130 114 113 131 
27 14 15 9 108 107 132 133 38 37 134 
28 15 17 9 130 129 122 121 133 132 135 
29 6 13 1 125 124 111 110 103 102 136 
30 2 17 16 119 118 128 127 19 18 137 
$EndElements
