$MeshFormat
4.1 0 8
$EndMeshFormat
$PhysicalNames
1
2 1 "sphere_primal"
$EndPhysicalNames
$Entities
2 3 1 1
1 6.123233995736766e-17 -1.499759782661858e-32 1 0 
2 6.123233995736766e-17 -1.499759782661858e-32 -1 0 
1 -1.000000000616482e-07 -1.000000000615789e-07 0.9999999000000001 1.000000000616482e-07 1.000000000615789e-07 1.0000001 0 2 1 -1 
2 -1.000000002249202e-07 -1.000000002449294e-07 -1.0000001 1.0000001 1e-07 1.0000001 0 2 2 -1 
3 -1.000000000616482e-07 -1.000000000615789e-07 -1.0000001 1.000000000616482e-07 1.000000000615789e-07 -0.9999999000000001 0 2 2 -2 
1 -1.0000001 -1.0000001 -1.0000001 1.0000001 1.0000001 1.0000001 1 1 4 -1 -2 3 2 
1 -1.0000001 -1.0000001 -1.0000001 1.0000001 1.0000001 1.0000001 0 1 1 
$EndEntities
$Nodes
4 79 1 79
0 1 0 1
1
6.123233995736766e-17 -1.499759782661858e-32 1
0 2 0 1
2
6.123233995736766e-17 -1.499759782661858e-32 -1
1 2 0 6
3
4
5
6
7
8
0.433883739117558 -1.062708664624805e-16 -0.9009688679024193
0.7818314824680297 -1.914934844954205e-16 -0.6234898018587337
0.9749279121818235 -2.387884694105764e-16 -0.2225209339563146
0.9749279121818236 -2.387884694105765e-16 0.2225209339563142
0.78183148246803 -1.914934844954206e-16 0.6234898018587334
0.4338837391175584 -1.062708664624806e-16 0.900968867902419
2 1 0 71
9
10
11
12
13
14
15
16
17
18
19
20
21
22
23
24
25
26
27
28
29
30
31
32
33
34
35
36
37
38
39
40
41
42
43
44
45
46
47
48
49
50
51
52
53
54
55
56
57
58
59
60
61
62
63
64
65
66
67
68
69
70
71
72
73
74
75
76
77
78
79
0.4831620074283552 -0.3940736068295421 -0.78183148246803
0.8248402129225691 0.3624686525414543 0.4338837391175581
0.5761912177406237 0.3820565149208684 -0.7225209339563093
0.9256184142596071 -0.378171230944568 -0.01473333870514858
0.5761912177408016 -0.3820565149214647 0.7225209339558519
0.2056402647275295 0.3820565149204787 0.9009688679025539
0.7938615589271856 -0.4080432123527353 -0.450870892951141
0.4882720739092958 -0.7329865596422838 -0.4736254693574702
0.923672698846816 0.3829168423951654 -0.01426314184025196
0.6781876829368614 0.7143376889825885 0.1725779036022447
0.685297615824301 0.6539273872336221 -0.320540403024856
0.5060269506088602 0.6636883210595278 0.5508670781111206
0.2056402647274016 -0.3820565149208136 0.9009688679024411
0.2056402647274081 0.382056514920859 -0.9009688679024204
0.1249820879453961 -0.654397274176758 -0.7457504175277667
0.3076856420009317 0.7264428593723924 -0.6145000551451049
0.294227320500456 0.9091664938410973 0.2946974216850361
0.3314064920454681 0.9299618027366972 -0.159187884214941
0.0817596025281596 0.7489123497357303 0.6576060065173862
0.829544254295019 0.3296603603684792 -0.4507553404762336
0.8480634363087243 -0.3884241625350909 0.3604373426202557
0.5970872560703763 -0.6685556839616023 0.443305883201411
0.09275078226634677 -0.9169413952492843 -0.3880924761796813
0.4347685228276766 -0.8955382777805153 -0.09480255581021296
0.007895945165017435 -0.9993274923947477 0.03580805766830329
0.722096843456752 -0.6672248511466635 -0.1827215003279793
0.3518526129726021 -0.892122420928513 0.2834031136402724
-0.1062586284991769 -0.889305307674556 0.4447979019862137
0.2438078729995189 -0.722039368284506 0.6474695913405987
-0.1990307866383765 -0.6042088157956538 0.7715688257601668
-0.2560687556742387 0.55493518424502 0.7915022006630131
-0.5156759848948337 -0.7183768115490864 0.4669186601875231
-0.07269715105655557 0.9965898677523931 0.03903536501082006
-0.116749505426398 0.647481722904691 -0.7530849696329521
-0.2754610685708467 -0.7629271104422461 -0.5848618844257609
-0.2353134897209515 -0.4264624533618871 -0.8733597983808895
-0.6268939387860086 -0.4984069048682844 -0.5988276435611345
-0.5689641282189661 -0.3590179283463323 0.739855356083836
-0.8301659044000361 -0.4187273166820524 0.3680923870931295
-0.6032429523173637 -0.7451444020807889 -0.2843549903326725
-0.821868408572764 -0.01440002933972078 0.5694953539275692
-0.9892004760086428 -0.06690647771000945 0.1304068307440777
-0.881023172804575 0.348973099685464 0.3193993498385354
-0.9503564305648123 0.292971456393209 -0.1048350162061861
-0.5250372229752193 -0.08972595180042607 -0.8463363208937552
-0.7431509300187564 0.6665685533164993 0.05842139113207453
-0.73580316113717 0.551792736662609 -0.3925792707555205
-0.3159914292222022 0.797497064566952 0.5139531580457549
-0.9646902270899896 -0.04878358080322238 -0.2588299209926853
-0.4799109421306048 0.05536396614720396 0.8755685689172302
-0.6599643017502133 0.3524354468973506 0.6635031094016201
-0.4498192666320494 0.8704800116711262 -0.1998178586804526
-0.2193187821253117 0.2578740419326062 -0.940957092701049
-0.4855907777274081 0.4955755456840795 -0.7201433712157724
-0.6969330967599274 0.2578871104850921 -0.6691625339827892
-0.2456581239116303 -0.2604888285353894 0.9337010529952714
-0.6991987970418597 -0.7057197882031261 0.1143705502030612
-0.07262183787706815 0.9205344070946254 -0.383852151248763
-0.3852576006356009 -0.9151183283317712 0.1188908167343654
-0.8888658895548147 -0.4249517999121955 -0.1712699569022926
-0.2726949857918863 -0.9328848987185341 -0.2352938810655166
-0.8800297073656416 0.1938987417857954 -0.4335331499295397
-0.4093928737120691 0.8888578855328705 0.2057404536784352
0.5896479285717592 0.3249772043347447 0.7393951156139775
-0.8000494105599609 -0.1302749250258231 -0.5856188048314153
0.09615242581145163 -0.2652656347975613 -0.9593689874110066
-0.6394255626717738 0.640507572202256 0.4253057720669415
-0.04438735952030039 0.9260884532730441 0.3746864542909931
-0.3840259599131745 0.7535408295472309 -0.533573125558284
-0.2474981569676302 -0.008022753694019724 -0.9688551479559735
0.7172178974644563 -0.6828154363469775 0.1391458495354834
$EndNodes
$Elements
1 154 1 154
2 1 2 154
1 56 75 39 
2 18 26 25 
3 39 75 59 
4 50 68 47 
5 11 24 19 
6 19 26 18 
7 39 58 1 
8 68 73 45 
9 57 73 68 
10 24 26 19 
11 53 63 61 
12 61 63 62 
13 14 39 1 
14 32 79 35 
15 35 79 30 
16 19 28 11 
17 12 15 5 
18 57 68 50 
19 26 41 25 
20 42 66 24 
21 47 68 65 
22 24 66 26 
23 48 68 45 
24 20 27 14 
25 39 59 58 
26 4 15 9 
27 5 15 4 
28 4 9 3 
29 21 64 38 
30 48 67 65 
31 48 69 67 
32 38 64 46 
33 13 37 30 
34 27 39 14 
35 27 56 39 
36 5 28 17 
37 6 17 10 
38 17 18 10 
39 17 19 18 
40 18 20 10 
41 18 25 20 
42 25 27 20 
43 6 12 5 
44 8 13 7 
45 3 11 4 
46 2 22 3 
47 5 17 6 
48 1 21 8 
49 8 14 1 
50 54 60 55 
51 54 55 52 
52 51 54 52 
53 52 57 50 
54 51 52 50 
55 49 51 50 
56 45 53 44 
57 43 48 45 
58 49 50 47 
59 46 58 49 
60 43 45 44 
61 46 49 47 
62 43 44 23 
63 32 33 31 
64 46 47 40 
65 31 43 23 
66 16 32 31 
67 38 46 40 
68 16 31 23 
69 23 74 9 
70 38 40 36 
71 22 61 42 
72 21 38 37 
73 16 23 9 
74 26 66 41 
75 37 38 36 
76 17 28 19 
77 62 63 55 
78 22 42 24 
79 15 16 9 
80 14 72 20 
81 12 34 15 
82 35 37 36 
83 21 37 13 
84 41 66 60 
85 58 64 1 
86 6 10 7 
87 8 21 13 
88 3 22 11 
89 6 29 12 
90 46 64 58 
91 55 70 52 
92 9 74 3 
93 61 78 53 
94 34 79 32 
95 7 29 6 
96 22 24 11 
97 60 71 41 
98 44 74 23 
99 13 30 29 
100 60 77 55 
101 35 36 33 
102 13 29 7 
103 8 72 14 
104 58 59 49 
105 40 67 36 
106 47 65 40 
107 61 62 42 
108 52 70 57 
109 4 28 5 
110 63 70 55 
111 2 61 22 
112 71 76 41 
113 30 37 35 
114 56 76 71 
115 32 35 33 
116 33 69 31 
117 49 59 51 
118 44 78 74 
119 16 34 32 
120 7 72 8 
121 15 34 16 
122 31 69 43 
123 55 77 62 
124 36 67 33 
125 1 64 21 
126 43 69 48 
127 42 77 66 
128 54 71 60 
129 51 75 54 
130 65 67 40 
131 65 68 48 
132 53 78 44 
133 41 76 25 
134 11 28 4 
135 3 74 2 
136 20 72 10 
137 10 72 7 
138 27 76 56 
139 67 69 33 
140 30 79 29 
141 45 73 53 
142 29 79 12 
143 25 76 27 
144 74 78 2 
145 54 75 71 
146 66 77 60 
147 70 73 57 
148 59 75 51 
149 71 75 56 
150 62 77 42 
151 12 79 34 
152 53 73 63 
153 63 73 70 
154 2 78 61 
$EndElements
