$MeshFormat
4.1 0 8
$EndMeshFormat
$PhysicalNames
1
2 1 "dual_barycentric"
$EndPhysicalNames
$Entities
0 0 1 0
1 -0.9806828409100141 -0.9849916241541861 -1 1 0.9868205629152089 1 1 1 0 
$EndEntities
$Nodes
1 596 1 596
2 1 0 596
1
2
3
4
5
6
7
8
9
10
11
12
13
14
15
16
17
18
19
20
21
22
23
24
25
26
27
28
29
30
31
32
33
34
35
36
37
38
39
40
41
42
43
44
45
46
47
48
49
50
51
52
53
54
55
56
57
58
59
60
61
62
63
64
65
66
67
68
69
70
71
72
73
74
75
76
77
78
79
80
81
82
83
84
85
86
87
88
89
90
91
92
93
94
95
96
97
98
99
100
101
102
103
104
105
106
107
108
109
110
111
112
113
114
115
116
117
118
119
120
121
122
123
124
125
126
127
128
129
130
131
132
133
134
135
136
137
138
139
140
141
142
143
144
145
146
147
148
149
150
151
152
153
154
155
156
157
158
159
160
161
162
163
164
165
166
167
168
169
170
171
172
173
174
175
176
177
178
179
180
181
182
183
184
185
186
187
188
189
190
191
192
193
194
195
196
197
198
199
200
201
202
203
204
205
206
207
208
209
210
211
212
213
214
215
216
217
218
219
220
221
222
223
224
225
226
227
228
229
230
231
232
233
234
235
236
237
238
239
240
241
242
243
244
245
246
247
248
249
250
251
252
253
254
255
256
257
258
259
260
261
262
263
264
265
266
267
268
269
270
271
272
273
274
275
276
277
278
279
280
281
282
283
284
285
286
287
288
289
290
291
292
293
294
295
296
297
298
299
300
301
302
303
304
305
306
307
308
309
310
311
312
313
314
315
316
317
318
319
320
321
322
323
324
325
326
327
328
329
330
331
332
333
334
335
336
337
338
339
340
341
342
343
344
345
346
347
348
349
350
351
352
353
354
355
356
357
358
359
360
361
362
363
364
365
366
367
368
369
370
371
372
373
374
375
376
377
378
379
380
381
382
383
384
385
386
387
388
389
390
391
392
393
394
395
396
397
398
399
400
401
402
403
404
405
406
407
408
409
410
411
412
413
414
415
416
417
418
419
420
421
422
423
424
425
426
427
428
429
430
431
432
433
434
435
436
437
438
439
440
441
442
443
444
445
446
447
448
449
450
451
452
453
454
455
456
457
458
459
460
461
462
463
464
465
466
467
468
469
470
471
472
473
474
475
476
477
478
479
480
481
482
483
484
485
486
487
488
489
490
491
492
493
494
495
496
497
498
499
500
501
502
503
504
505
506
507
508
509
510
511
512
513
514
515
516
517
518
519
520
521
522
523
524
525
526
527
528
529
530
531
532
533
534
535
536
537
538
539
540
541
542
543
544
545
546
547
548
549
550
551
552
553
554
555
556
557
558
559
560
561
562
563
564
565
566
567
568
569
570
571
572
573
574
575
576
577
578
579
580
581
582
583
584
585
586
587
588
589
590
591
592
593
594
595
596
6.123233995736766e-17 -1.499759782661858e-32 1
6.123233995736766e-17 -1.499759782661858e-32 -1
0.3826834323650883 -9.373040810652561e-17 -0.9238795325112873
0.7071067811865461 -1.731912112470983e-16 -0.7071067811865489
0.9238795325112855 -2.262852224575398e-16 -0.3826834323650928
1 -2.449293598294706e-16 -3.797643038629971e-15
0.9238795325112881 -2.262852224575404e-16 0.3826834323650867
0.707106781186549 -1.73191211247099e-16 0.707106781186546
0.3826834323650904 -9.373040810652613e-17 0.9238795325112865
0.4334552511026252 0.3475267315027923 -0.8314696123025461
0.9222631950942384 -0.3338541141844443 0.194864130656945
0.6288243869602096 -0.3553220763642266 -0.6916112437000509
0.9214329300065425 0.3488689261271433 -0.1710316575445963
0.5478837227399994 0.3511304092750861 0.7592962939715102
0.5233357162011323 -0.3356706795073138 0.7832272486752145
0.7619254779433992 0.378032464648226 -0.5258906937118306
0.6974561153747518 0.6575545978034212 -0.2849156331862854
0.7944606788477639 0.6029161146650028 0.07296840714999372
0.9240023205738817 -0.3290638742195545 -0.1947734023364045
0.7627370492167832 -0.6465241808240118 0.0154491864483149
0.6871327914461351 -0.5939794999573828 -0.4183740916330976
0.6998158991098002 -0.5782995744560888 0.4193176713865615
0.4705951808865143 0.6497162618036235 -0.5969999622062921
0.3706706157498359 0.8793856172804566 -0.298804669876339
0.4900986007490576 -0.855050419735395 -0.1693875475179348
0.37172453207562 -0.767852791993177 -0.5217499037675466
0.1630646961213751 -0.3223894898806609 -0.9324563913091758
0.1377798812128269 0.5965452125591896 -0.7906646025374416
0.7970603132970935 0.2847012688021923 0.5325786744783919
0.592829915835239 0.6125167732242781 0.5228536060980185
0.1837710649854276 -0.3356706795072026 0.9238795325112981
0.7815848666932932 -0.2885976939978001 0.5530248341396428
0.3704824971118759 -0.6938725425371349 0.6174816710209305
0.4593172386926601 -0.8584715611144714 0.2281540115742701
0.1718452066027551 -0.9849916241541861 0.01614699085758593
-0.02826415119402682 -0.6582250277661263 0.7522904695525281
0.09290848108026227 -0.9180612572317179 0.3853979010237032
-0.3824796887354495 -0.3463745494108297 0.856582721764383
0.2664384338682815 0.624004275006006 0.7345945995799631
0.317361228284864 0.8657640775103698 0.3869553112106629
-0.04569405628149541 0.8070244732879313 0.5887474439306558
-0.09835039079190594 0.6033171418434862 0.7914136889066844
-0.398507343188078 0.6506900754590385 0.6463701131118998
-0.3266190583514046 -0.8215003039322369 0.4673940964121007
-0.334838225976594 0.879910761689511 0.3371059386718542
-0.658638703179211 0.6630147883974846 0.3558179998828697
-0.5561027218848383 0.8310012055120015 0.01366598514101065
-0.8313616534195617 0.5554899119011396 0.01639387079236472
-0.8754384930467447 0.3387998873955985 0.3447057893229741
-0.9806828409100141 0.1955866930496958 -0.002647838089481631
-0.8649632814870469 0.3822547935939907 -0.3251458049146182
-0.9412043487014387 -0.000194091185192288 -0.3378377366637901
-0.7540217261636435 0.1713573461435854 -0.634104010707886
-0.7631892583211489 -0.2178638062675902 -0.6083399690155271
-0.8820766557556405 -0.3821048748772672 -0.2755660319523675
-0.6397897407948423 -0.5747709347951191 -0.5102033517024496
-0.9512650965152323 -0.04192965502685124 0.3055104256505744
-0.6137236878498769 0.5319019411804037 -0.5834582760921858
-0.7737451569856684 0.08953753374208355 0.6271375144994984
-0.6953228486862333 -0.7027504316510239 -0.1505588486577953
-0.5159764688804234 -0.04447228828620092 -0.8554475431820928
-0.4031597596349676 -0.8434370346755368 -0.3550720726117622
-0.7866811521607838 -0.2879368432759211 0.5460999351027971
-0.1982038467534871 0.9800549010674653 -0.01440923404491141
-0.3023962700290996 -0.6622080542904583 -0.685592436295306
-0.4256847113730126 -0.9042855741664221 0.03255958933677572
-0.6957129351267143 -0.6971622732240543 0.1730557040101287
-0.4251933493168208 0.3174705667509204 0.8475984042832981
-0.3968593691700971 0.8592914848942615 -0.3226775249225267
-0.03206262283726447 -0.876219217256944 -0.4808449558084433
-0.01182772462528848 0.9483197425451805 -0.3170958385555241
-0.6561592803152443 -0.1661236830157497 0.7361099923227937
-0.5318124352053033 -0.5138210179686653 0.6731741938418685
-0.181031396519176 0.7448887513663037 -0.6421591559436537
-0.3192509143706346 0.413571250585541 -0.8526650423012694
-0.8825643163038734 -0.3994811676156071 0.2479819031855904
0.09338508706819183 -0.6834666249341964 -0.7239838382963564
0.05991236450349884 0.550736718428986 0.8325260209468961
0.8232611244207315 -0.2786353331060722 -0.494574031023042
0.1596990103132458 0.9868205629152089 -0.02610369155273298
0.4990492632012968 0.8638281193774766 0.06892614214515939
0.9297733444708038 0.3091567972615363 0.1998589568134621
-0.9795660570394048 -0.200655989662115 -0.01369356451004184
0.003443729307273199 0.9614923355933296 0.2748101696148497
-0.680301318239356 0.435871146991979 0.5892422758269225
-0.6975042165584718 0.6731298930819823 -0.2457315912181244
-0.4745323637217096 -0.4233138167077045 -0.7717670946373932
-0.1881289731476715 -0.2314138129342456 -0.95449208307122
-0.1078272461049234 -0.9809552001965411 -0.1615555019329031
-0.2528188959932687 0.1840694987169715 -0.9498426319505919
0.1014596904029158 0.3096092498409176 -0.9454353725328287
0.1899201092766863 0.8100257183958485 -0.5547870651246487
0.1987470731727891 -0.9393952154388153 -0.2793496556574072
-0.1288288648611861 -0.9804368489219859 0.1488177034310947
0.4052989724044475 -0.5883358505227467 -0.6997097040613166
0.7863739001180865 0.5212891992198072 0.3314719595830723
-0.5398723810665516 0.2152677967441554 -0.8137552382912501
-0.6849532506744493 -0.5708394015380053 0.4527487405197689
-0.1242453911296097 -0.5014806485217324 -0.8562010522892816
-0.8648760696486817 -0.5019158230728404 -0.008360065679284179
0.6335419205188433 0.7236237614143434 0.2738490220209905
0.1913417161825453 -4.686520405326307e-17 0.9619397662556433
0.09188553249271383 -0.1678353397536013 0.961939766255649
-0.1912398443677247 -0.1731872747054149 0.9282913608821914
0.02995618225174945 0.275368359214493 0.916263010473448
0.1913417161825442 -4.686520405326281e-17 -0.9619397662556437
0.08153234806068758 -0.1611947449403305 -0.966228195654588
-0.09406448657383573 -0.1157069064671228 -0.97724604153561
-0.1264094479966343 0.09203474935848577 -0.974921315975296
0.05072984520145794 0.1548046249204588 -0.9727176862664144
0.5448951067758172 -1.33460809676812e-16 -0.8154931568489181
0.4080693417338568 0.1737633657513961 -0.8776745724069167
0.505753909662649 -0.1776610381821133 -0.8077453881056691
0.2728740642432317 -0.1611947449403305 -0.9281679619102315
0.2420715613840021 0.1548046249204588 -0.934657452522058
0.8154931568489159 -1.99738216852319e-16 -0.5448951067758209
0.5702810161445857 0.1737633657513961 -0.7692881967445475
0.6679655840733778 -0.1776610381821134 -0.6993590124432999
0.7345161295649727 0.1890162323241129 -0.6164987374491897
0.7651839528036388 -0.1393176665530362 -0.6008404061047954
0.9619397662556428 -2.356072911435052e-16 -0.1913417161825483
0.9226562312589139 0.1744344630635715 -0.2768575449548445
0.8429025052273423 0.1890162323241129 -0.4542870630384617
0.9239409265425835 -0.1645319371097774 -0.2887284173507487
0.8735703284660086 -0.1393176665530362 -0.4386287316940674
0.961939766255644 -2.356072911435055e-16 0.1913417161825414
0.9611315975471192 -0.1669270570922222 0.0974320653284706
0.9607164650032712 0.1744344630635715 -0.08551582877230005
0.9620011602869408 -0.1645319371097774 -0.09738670116820414
0.9648866722354019 0.1545783986307681 0.09992947840672917
0.8154931568489185 -1.997382168523197e-16 0.5448951067758163
0.9230713638027632 -0.1669270570922222 0.2887737815110158
0.8604699229041908 0.142350634401096 0.4576310534217393
0.8527321996022906 -0.1442988469989002 0.4678541332523647
0.926826438491046 0.1545783986307681 0.2912711945892744
0.5448951067758198 -1.334608096768126e-16 0.8154931568489163
0.6274952519632742 0.175565204637543 0.7332015375790282
0.6152212486938406 -0.167835339753657 0.7451670149308802
0.7520835472418212 0.142350634401096 0.619842727832469
0.7443458239399211 -0.1442988469989001 0.6300658076630944
0.4652835775525449 0.175565204637543 0.8415879132413984
0.4530095742831114 -0.1678353397536569 0.8535533905932505
0.2832272486752591 -0.1678353397536014 0.9238795325112923
0.2212978984342946 0.2753683592144929 0.8782027767290913
0.5976903645230122 0.3627795980755092 -0.6786801530071884
0.4520252159945697 0.4986214966532079 -0.7142347872544191
0.285617566157726 0.472035972030991 -0.8110671074199939
0.2674574707527705 0.328567990671855 -0.8884524924176874
0.92313275783406 -0.3314589942019994 4.536416027026147e-05
0.8425001221555108 -0.490189147504228 0.10515665855263
0.8110395471020193 -0.4560768443202665 0.3070909010217532
0.8519240308937658 -0.3112259040911222 0.3739444823982939
0.6579785892031724 -0.4746507881608046 -0.5549926676665742
0.3959445415407923 -0.3388557831224437 -0.8120338175046133
0.7260427556904705 -0.3169787047351494 -0.5930926373615464
0.5170616796823285 -0.4718289634434867 -0.6956604738806837
0.8416792039749708 0.3634506953876846 -0.3484611756282134
0.8094445226906472 0.5032117619652823 -0.2279736453654408
0.8579468044271532 0.475892520396073 -0.04903162519730128
0.9256031372386732 0.3290128616943398 0.01441364963443292
0.6724720180185464 0.3179158390386392 0.645937484224951
0.5703568192876192 0.4818235912496821 0.6410749500347643
0.4071610783041405 0.487567342140546 0.7469454467757366
0.3038980436217491 0.450933563852036 0.7959111574592032
0.6115758076554663 -0.4569851269817013 0.6012724600308881
0.3535533905932799 -0.3356706795072582 0.8535533905932563
0.6524602914472127 -0.3121341867525569 0.6681260414074286
0.4469091066565041 -0.5147716110222244 0.7003544598480725
0.7296907966590755 0.5177935312258236 -0.405403163449058
0.6162603294149567 0.5138743632259247 -0.5614453279590614
0.7459583971112579 0.630235356234212 -0.1059736130181459
0.5840256481306331 0.6536354298035223 -0.4409577976962888
0.5340633655622938 0.7684701075419389 -0.2918601515313122
0.5982526892880243 0.7606913585904489 -0.107994745520563
0.6467549710245304 0.7333721170212397 0.07094727464757655
0.8621170116592839 0.4560364559632696 0.1364136819817279
0.7904172894829252 0.562102656942405 0.202220183366533
0.7140012996833036 0.6632699380396732 0.1734087145854921
0.8433696848953325 -0.4877940275217831 -0.08966210794404478
0.8055675560100084 -0.4615216870884686 -0.306573746984751
0.8736317224973066 -0.3038496036628134 -0.3446737166797232
0.7249349203314592 -0.6202518403906973 -0.2014624525923913
0.7312764741632918 -0.6124118776400502 0.2173834289174382
0.6264178249829204 -0.7507873002797034 -0.07696918053480994
0.6110271439547217 -0.7524978709692416 0.1218015990112925
0.5886156960975963 -0.7245149598463889 -0.2938808195755162
0.5294286617608776 -0.6809161459752799 -0.4700619977003221
0.7551969579334333 -0.4363074165317275 -0.4564740613280698
0.5462158819252914 -0.5911576752400647 -0.5590418978472071
0.7407003829015467 -0.4334486342269445 0.4861712527631021
0.5351491981108381 -0.6360860584966119 0.518399671203746
0.5795665689012302 -0.7183855677852802 0.3237358414804158
0.4206328983181751 0.76455093954204 -0.4479023160413156
0.3041875310496706 0.6231307371814065 -0.6938322823718669
0.3302576450816003 0.729870990099736 -0.5758935136654704
0.1794214455622737 0.9138526799128186 -0.3079502542159316
0.2651848130315408 0.9331030900978328 -0.162454180714536
0.4348599394755663 0.8716068683289666 -0.1149392638655898
0.2802953625132611 0.8447056678381526 -0.4267958675004939
0.4309115664123388 -0.811451605864286 -0.3455687256427407
0.4747079197208589 -0.8567609904249331 0.02938323202816764
0.3309719036759064 -0.9200210219447905 -0.07662027833017443
0.3444228369609234 -0.8972228175871051 -0.224368601587671
0.1698309546191777 -0.8220360046250605 -0.501297429787995
0.2325548095719059 -0.7256597084636867 -0.6228668710319515
0.2852358026242046 -0.8536240037159961 -0.4005497797124769
0.3885117522400337 -0.6780943212579619 -0.6107298039144315
0.1282248915947835 -0.5029280574074286 -0.8282201148027661
-0.0125321385131482 -0.2769016514074533 -0.9434742371901979
0.2841818342629113 -0.4553626702017038 -0.8160830476852462
0.01940965249588269 -0.4119350692011966 -0.8943287217992286
-0.02162575765317454 0.6707169819627467 -0.7164118792405476
-0.09073551657890382 0.5050582315723653 -0.8216648224193555
0.1196197858078714 0.4530772312000536 -0.8680499875351352
0.1638499952447566 0.703285465477519 -0.6727258338310451
0.6949451145661663 0.4486090210132352 0.5277161402882051
0.8634168288839487 0.2969290330318643 0.366218815645927
0.79171710670759 0.4029952340109997 0.4320253170307321
0.4296341748517603 0.618260524115142 0.6287241028389907
0.4550955720600515 0.7391404253673239 0.4549044586543407
0.6896019079766628 0.5669029862220427 0.4271627828405454
0.6131859181770412 0.6680702673193107 0.3983513140595045
0.2771267810486517 -0.5147716110221687 0.7706806017661143
0.0777534568957004 -0.4969478536366645 0.8380850010319131
-0.09935431187501095 -0.3410226144590162 0.8902311271378405
0.414899867902268 -0.7761720518258032 0.4228178412976003
0.1711091729589245 -0.6760487851516306 0.6848860702867293
0.2316954890960691 -0.8059668998844265 0.5014397860223169
0.3155812226477076 -0.9217315926343288 0.122150501215928
0.2761128598864612 -0.8882664091730947 0.3067759562989866
0.1323768438415087 -0.951526440692952 0.2007724459406446
0.03200898024891584 -0.9829734121753636 -0.07270425553765858
0.1852961398877721 -0.9621934197965007 -0.1316013323999106
0.02150817087078452 -0.982714236538086 0.08248234714434033
0.03232216494311772 -0.7881431424989221 0.5688441852881156
-0.2053719199647382 -0.502299788588478 0.8044365956584556
-0.1774416047727157 -0.7398626658491816 0.6098422829823144
-0.2800382931996651 -0.5860230228673958 0.7127323316971983
-0.1168552886355712 -0.8697807805819775 0.4263959987179019
-0.01796019189046191 -0.9492490530768519 0.2671078022273989
-0.4038365190261352 -0.01445199132995467 0.8520905630238406
-0.5193194845253469 -0.2562491162132897 0.7963463570435884
-0.4571460619703764 -0.4300977836897475 0.7648784578031258
-0.1612836621159753 0.1021810845090781 0.8445543713556396
0.2918998310765728 0.7448841762581879 0.560774955395313
0.1103721887933931 0.7155143741469686 0.6616710217553095
0.0840440215381878 0.6136607084247461 0.7630041442433237
0.1631753991858902 0.587370496717496 0.7835603102634296
0.1358335860016843 0.8363942753991505 0.4878513775706593
0.2385301192990549 0.9262923202127893 0.1804258098289649
0.4082052457430804 0.8647960984439231 0.2279407266779112
0.1604024787960686 0.9136282065518497 0.3308827404127563
0.4754515744018536 0.7946939194623566 0.3304021666158267
-0.07202222353670068 0.7051708075657087 0.6900805664186701
-0.2221006997347867 0.7288572743734849 0.6175587785212778
-0.1902661411290447 0.8434676174887211 0.462926691301255
-0.02112516348711111 0.8842584044406304 0.4317788067727527
-0.248428866989992 0.6270036086512623 0.7188919010092921
-0.2617718700543634 0.4603938542972033 0.8195060465949913
-0.01921901314420355 0.5770269301362361 0.8119698549267902
-0.366672784582336 0.7653004185742747 0.491738025891877
-0.5285730231836445 0.6568524319282616 0.5010940564973847
-0.4118503462524494 0.4840803211049794 0.746984258697599
-0.5394043307137171 0.5432806112255087 0.6178061944694111
-0.3761518848622086 -0.8628929390493295 0.2499768428744382
-0.5111659967390594 -0.7593312885781456 0.3202249002111147
-0.4292157467783539 -0.6676606609504512 0.5702841451269846
-0.2277239616062953 -0.9009685764271114 0.3081058999215977
-0.505786154512927 -0.6961698527351211 0.4600714184659348
-0.4967384645779025 0.7714627750434978 0.3464619692773619
-0.4454704739307161 0.8554559836007563 0.1753859619064324
-0.2665210363650405 0.9299828313784881 0.1613483523134714
-0.1656972483346604 0.9207015486414203 0.305958054143352
-0.6073707125320247 0.7470079969547431 0.1847419925119402
-0.7450001782993864 0.6092523501493121 0.1861059353376172
-0.7670385981129779 0.5009073378965416 0.3502618946029219
-0.6694700107092835 0.5494429676947318 0.4725301378548961
-0.6937321876522 0.6932455587065706 0.01502992796668769
-0.3771532843191627 0.9055280532897334 -0.0003716244519503817
-0.4764810455274677 0.8451463452031316 -0.154505769890758
-0.6268034692216551 0.7520655492969919 -0.1160328030385569
-0.8534000732331533 0.4471448996483691 0.1805498300576694
-0.9060222471647879 0.3755383024754177 0.006873016351441546
-0.8481624674533044 0.4688723527475652 -0.1543759670611267
-0.7644329349890168 0.614309902491561 -0.1146688602128798
-0.9280606669783794 0.2671932902226472 0.1710289756167462
-0.9133517947809885 0.1484351161843736 0.3251081074867742
-0.8245918250162065 0.214168710568841 0.4859216519112363
-0.7778699056430504 0.3873355171937888 0.4669740325749483
-0.9228230611985305 0.2889207433218433 -0.1638968215020499
-0.9609435948057263 0.09769630093225173 -0.1702427873766359
-0.9659739687126232 0.07682851901142226 0.1514312937805464
-0.9801244489747094 -0.002534648306209628 -0.008170701299761735
-0.9030838150942428 0.1910303512043992 -0.3314917707892041
-0.8094925038253452 0.2768060698687881 -0.4796249078112521
-0.7393434846684619 0.4570783673871972 -0.454302040503402
-0.7812337490227594 0.5276923433379865 -0.2854386980663713
-0.847613037432541 0.08558162747919656 -0.485970873685838
-0.8521968035112938 -0.1090289487263913 -0.4730888528396586
-0.9116405022285397 -0.1911494830312298 -0.3067018843080788
-0.9603852028704217 -0.1004250404236536 -0.175765650586916
-0.7586054922423962 -0.0232532300620024 -0.6212219898617066
-0.6838727070067602 0.3516296436619946 -0.6087811434000359
-0.6349990975220334 0.06344252892869225 -0.7447757769449894
-0.6469470536150975 0.1933125714438704 -0.7239296244995681
-0.8226329570383948 -0.2999843405724287 -0.4419530004839473
-0.7014894995579957 -0.3963173705313546 -0.5592716603589883
-0.6395828636007861 -0.1311680472768956 -0.7318937560988099
-0.6188608110214293 -0.3205888114876473 -0.6900535318264602
-0.7609331982752414 -0.4784379048361932 -0.3928846918274085
-0.7886997522209369 -0.5424276532641455 -0.2130624403050814
-0.9308213563975227 -0.2913804322696911 -0.1446297982312046
-0.8734763627021611 -0.4420103489750539 -0.1419630488158258
-0.6675562947405378 -0.6387606832230714 -0.3303811001801225
-0.521474750214905 -0.709103984735328 -0.4326377121571059
-0.471093005411971 -0.6184894945427887 -0.5978978939988777
-0.5571610522582759 -0.4990423757514117 -0.6409852231699213
-0.8625051267504503 0.02380393935761616 0.4663239700750364
-0.8689731243380081 -0.1649332491513862 0.4258051803766857
-0.9169147064095529 -0.2207054113212292 0.2767461644180824
-0.9654155767773185 -0.1212928223444831 0.1459084305702663
-0.505291528509987 0.6955967130373326 -0.4530679005073562
-0.3973775421845264 0.6383953462733537 -0.6128087160179198
-0.4664873011102557 0.4727365958829723 -0.7180616591967276
-0.6556139522041744 0.602515917131193 -0.4145949336551551
-0.5767980344582142 0.3735848689622795 -0.6986067571917179
-0.780213154573226 -0.09919965476691878 0.5866187248011477
-0.5994692531512447 0.203504050246502 0.7373679593913982
-0.7149522186504563 -0.03829307463683308 0.681623753411146
-0.7270232376125122 0.2627043403670313 0.6081898951632104
-0.5492413041606005 -0.7730937331632803 -0.2528154606347788
-0.5605037800296229 -0.803518002908723 -0.05899962966050981
-0.6955178919064737 -0.6999563524375392 0.0112484276761667
-0.7800994591674575 -0.6023331273619321 -0.07945945716853976
-0.4952544163010665 -0.2338930524969527 -0.813607318909743
-0.3520527210140474 -0.1379430506102232 -0.9049698131266564
-0.384397682436846 0.06979860521538531 -0.9026450875663423
-0.5279244249734875 0.08539775422897723 -0.8346013907366714
-0.3527780148320336 -0.7528225444829975 -0.520332254453534
-0.4144222355039901 -0.8738613044209794 -0.1612562416374932
-0.2176111912361161 -0.8598281259662404 -0.4179585142101028
-0.2554935028699455 -0.9121961174360389 -0.2583137872723326
-0.7214202162380141 -0.2270302631458354 0.6411049637127955
-0.6592467936830435 -0.4008789306222932 0.6096370644723328
-0.8346227342323287 -0.3437090054457641 0.3970409191441938
-0.7358172014176165 -0.4293881224069632 0.499424337811283
-0.2975316079617921 0.9196731929808635 -0.1685433794837191
-0.1050157856893878 0.9641873218063228 -0.1657525363002178
-0.01925241822012065 0.9834377319913371 -0.0202564627988222
-0.09738005872310694 0.9707736183303974 0.1302004677849691
-0.167229446433182 -0.7692136357737012 -0.5832186960518746
-0.1045055914804539 -0.6728373396123273 -0.7047881372958311
-0.3884643168754046 -0.5427609354990813 -0.7286797654663496
-0.2133208305793547 -0.5818443514060954 -0.7708967442922938
-0.5606988232498634 -0.8007239236952381 0.1028076466734522
-0.266755978738968 -0.9426203871814816 -0.06449795629806368
-0.2772567881170993 -0.9423612115442039 0.09068864638393521
-0.7891386257152939 -0.5483217204198307 0.2105188035978596
-0.6903330929005818 -0.6340008373810297 0.3129022222649488
-0.7802945023876979 -0.5995390481484474 0.08234781916542228
-0.5406763148160325 0.07567344186758534 0.7918541983030459
-0.182640492406661 0.4341036425899532 0.8400622126150972
-0.5527473337780884 0.3766708568714497 0.7184203400551104
-0.2043435468976928 0.903805613719721 -0.3198866817390255
-0.2889453828446366 0.8020901181302826 -0.4824183404330902
-0.5471817928642845 0.7662106889881219 -0.2842045580703255
0.03066123211546368 -0.7798429210955702 -0.6024143970523999
-0.06994493447109396 -0.9285872087267426 -0.3212002288706732
0.08334222516776232 -0.9078072163478796 -0.3800973057329253
-0.09642956057223225 0.8466042469557421 -0.4796274972495889
0.07393564284397865 0.9675701527301948 -0.1715997650541286
0.08904619232569894 0.8791727304705145 -0.4359414518400864
-0.5939858577602738 -0.3399723504922075 0.7046420930823312
-0.6083828429398763 -0.5423302097533353 0.5629614671808187
-0.2501411554449053 0.5792300009759224 -0.7474120991224615
0.004444356378755163 0.7774572348810761 -0.5984731105341512
-0.2860349051819516 0.2988203746512563 -0.9012538371259307
-0.1088956119838594 0.3615902502132293 -0.899050207417049
-0.4295616477185931 0.3144195236648482 -0.8332101402962597
-0.9310651866716391 -0.300068578638861 0.1171441693377743
-0.7837587834891614 -0.4851602845768062 0.3503653218526797
-0.8737201929762776 -0.4506984953442238 0.1198109187531531
0.2493420297363196 -0.6359012377284716 -0.7118467711788365
-0.01543015203070895 -0.5924736367279644 -0.790092445292819
0.3293741367572713 0.9253243411463428 0.02141122529621321
0.08157136981025948 0.9741564492542693 0.1243532390310583
0.5662955918600701 0.79372594039591 0.171387582083075
0.8580736222944452 0.4152229982406718 0.2656654581982672
-0.9222210633440433 -0.3512859063674777 -0.01102681509466301
-0.3313306684346906 -0.327363814820975 -0.8631295888543067
-0.2993888774256597 -0.4623972326147184 -0.8139840734633375
-0.2204739345704701 -0.02367215710863702 -0.952167357510906
-0.1561871821386406 -0.366447230727989 -0.9053465676802508
0.04545991353393283 -0.9601752078176782 -0.2204525787951551
-0.1183280554830548 -0.9806960245592635 -0.006368899250904184
-0.07567960279517644 0.2468393742789446 -0.9476390022417103
-0.3963456385299101 0.1996686477305635 -0.881798935120921
0.7099579103184649 0.6224564803170753 0.3026604908020314
-0.1075224414106502 0.06812072300605208 0.8963695809037597
-0.2492535578495905 0.1739442452563589 0.8455690489981924
-0.2955652149169116 -0.6645154498890095 0.6309529199354991
0.5312113708076028 -0.5359475988335125 0.6066755303609023
0.1753298036344255 -0.562589416603488 0.7645505576949189
-0.3141854250449266 -0.5061401983818737 0.7606824617195933
0.5737520502702641 -0.5125458089481186 -0.6032316797981551
-0.6183659288725778 0.08029480582575142 0.7369486370351966
-0.3972048178463833 0.712027392480323 -0.516098318986122
-0.02667044758496393 0.4399085709952161 -0.8629216724571799
0.1450422756660371 -0.7567196091783264 0.5850566805323872
-0.4826722349503771 -0.8076493837742378 0.2243364632530017
0.3591964260994786 -0.4550713005172171 0.7748628174024811
0.3253698339331355 0.9054709199343517 0.1432592539343631
0.7130727676090253 -0.4093123031425606 -0.5348531221187302
-0.3713353329132292 0.5634539810440828 -0.6927608247790363
0.6682454940014085 -0.4008559826537342 0.5851899180671396
-0.1208341432256612 0.5850017381703448 -0.7618296002607883
0.5707176295528337 -0.7866820538912928 0.02473855016821673
0.1601679893017943 0.9380256586729695 0.2118872630909265
0.4880520986420676 -0.6500560474911022 -0.5466112331539869
-0.08732490948838971 -0.799262196310027 0.5350274889961106
0.8690793134870757 0.2423004635917897 -0.3598685945405066
0.6406233956730811 -0.694431772131524 0.2209736231363822
-0.2937108781952011 -0.9020742423402149 0.216257129726657
0.6636553524746042 0.7080996106153002 -0.04767369463037743
0.5223919981086281 0.8002561114871182 -0.171598053639155
0.7936048411082313 0.4614853295262635 -0.3272793281475708
0.3075694056282661 -0.8234684536277749 0.410344527872968
0.7976372638804103 0.1260108215494085 -0.5385603024211574
0.1443489987688491 -0.7758462113947724 -0.5755262326241154
0.6341625034108568 0.2418530653836727 -0.6881556957336419
0.3737536820148242 -0.8995045350013507 0.02497115163797374
0.5077484882180866 0.115842243834264 -0.8208186420001274
-0.5690950813841894 -0.6965006595647655 0.3643995136473328
-0.5693624245261487 0.6881077730522159 -0.3839557974109456
-0.6264132748472817 0.2809597491616609 0.687992731536573
0.5098718783047788 -0.7102145593692318 0.4216511179939207
-0.07565759164801623 -0.4467567522280529 0.8442509079427364
-0.5144615814103858 -0.6353869078129692 0.5311056769245793
-0.490948994429021 0.3869136628367 -0.7499595188949018
-0.06623620791667395 -0.2273484096393441 0.926820751425227
0.8044499080763527 0.5364465461985225 -0.127659627860296
-0.635872598360024 0.3061756946893815 -0.6771058416971073
0.2413569754585592 -0.9205081475001252 0.2098996344851864
0.3915241718155577 -0.2259038554149625 -0.8493157225068381
0.5728715335039479 -0.118440692121409 -0.7741991857992957
-0.5845660303077606 -0.2285499704204985 -0.7451848689450044
-0.6777291511217386 -0.03032624947006858 -0.6992971743018354
-0.3928792685832681 -0.2330666393093836 -0.8605689069635686
-0.3189747793404545 -0.03060553416782498 -0.9199274194013016
-0.2458728841671106 -0.7939547687409797 -0.5071698215718371
0.5377086432509239 -0.111890226502438 0.804737854124349
0.188818165783506 -0.1118902265024009 0.9492530216741949
0.9484374875059426 0.1162896420423809 -0.1845716966365643
-0.08035793526605743 -0.7406312988271995 -0.6301404101333685
0.545891312097213 0.1170434697583619 0.7967608692231143
-0.60557349839532 -0.7680660930138333 0.01835214822970304
-0.7616852182905439 -0.3915798719799922 -0.4647031175567813
-0.5080557732314045 -0.8168243468309943 -0.1576904439775939
-0.8621567542594094 -0.2000542574433499 -0.4072479125438949
0.3301598398695296 0.3006223759013573 0.8385672824765642
-0.7442362318335224 0.3618380269726599 -0.5142360305715633
-0.4484485901529698 -0.6934720079203713 -0.5169559535365059
-0.8194717777287437 -0.01556685043639903 -0.5267605721290678
-0.739063081745572 -0.5532087471078034 -0.3121094107708708
-0.5794241163720144 -0.7069861337072266 -0.3386114243240024
-0.7388618631538989 -0.1215076641831958 0.6364491473083631
-0.8372304685538948 -0.08010965485356293 0.4929159584176233
-0.8533964521173764 0.1844726828507946 -0.4323625174287648
-0.866816248849215 0.1288025887036103 0.4257845764910156
-0.9289501570328333 0.1925491318194981 -0.2218771265559633
-0.1965728301048539 0.850833326268582 -0.4273108398072349
-0.8923359252722077 0.3777771328482754 -0.1037999240705784
-0.935795476823997 0.1641523084728143 0.2158561256280223
-0.2022969801829576 0.9292220428356357 -0.2180608658409874
-0.8958276624587734 0.363292164115478 0.1194839406752857
-0.3837219792694742 0.8901158638245761 -0.1078069246088092
-0.7884796165485058 0.5191015292314076 0.2389725533327361
-0.3630482648716398 0.8969889560896593 0.1121208965893178
-0.6820343594945371 0.6831686352702085 0.1286259519387483
-0.5165265503468811 0.791308918532999 0.2355299745652448
-0.463994757447961 0.7312052085153447 0.4464313505555412
-0.2596798751487225 0.7792084368121602 0.5240744985714699
-0.3073503610989349 0.523825928017815 0.7617940687672942
0.5163186414236042 -0.7389609038953182 -0.3698371809728596
-0.1808505967538264 0.6870105635301519 0.6755104153164133
0.6466561471373253 -0.6985180335055965 -0.1907708175675725
0.04079799559829339 0.6781152967124745 0.7049185774724345
0.7912907204122668 -0.5231891850003163 -0.199232769173729
0.7949387144736072 -0.5195592898215149 0.2098769961639405
0.1793685352905501 0.7655976086014356 0.5700991182404272
0.8696675216283012 -0.4364807230760035 0.00517997158961848
0.8759091980996065 -0.2074839360607482 0.3768574657205581
0.3922098593294616 0.7007617085802179 0.5481345056295481
0.9487551718893733 -0.220972662801333 3.024277351224176e-05
0.2242316075727893 0.4178937313009665 -0.8558565291242721
-0.1208464807107761 -0.9066661366953136 0.3338699002889662
0.6433255914015551 0.5617677747517569 -0.4692687630348027
0.4690506908145067 0.52921715250179 0.6722481665498306
0.8012213202991106 -0.4002504608794444 0.3890688787277164
0.3472767710673221 0.5312627352885352 -0.7397113923487599
-0.1568700399869958 0.3024166663811434 -0.9159810155948968
0.949293951028389 -0.109687958073185 -0.192485611567167
0.9487142425351754 -0.1112847047281482 0.192515854340676
0.2914115070372599 0.5086238009033593 0.7754723048327898
0.5553253033108462 0.4584251526515473 -0.651453422740223
-0.5234838014186657 -0.3421064167984149 0.7552889693096817
0.3058661246235431 0.2190453271145699 -0.9002615057822206
0.1819160428288212 -0.1074631632935537 -0.9521119746068211
0.3632634045172168 -0.2237804530048388 0.8769954378992665
0.1475319322895298 0.1835789061429953 0.9188018511527275
-0.5791491215355483 0.5831920036161673 0.5304767962738973
0.6459246506241106 0.4161161504338522 0.6049095248493068
0.5129073040037007 0.7288854922958338 -0.3935734217563056
0.1794696608037149 -0.8611557415629787 -0.4273148384111323
-0.6258371209459003 -0.4053161859234713 -0.6301034717851234
0.3431396297547928 0.9100114331910474 -0.08532740642797088
-0.6949895306209574 0.6865403368317078 -0.07189057842824967
0.9504020914924487 0.2193419077962264 0.00960909975628735
0.8818889844417034 0.4203139460178941 0.03393190213961986
-0.0009796706225927154 0.8344114041024442 -0.5046806865412755
-0.5013340035814183 0.468010596400646 0.6944035977407067
-0.7381261714884372 0.4792286075950207 0.4299220216775888
0.6840169390745473 0.2119438926924261 0.6663272498788161
0.7197307641891624 -0.2113191364900997 -0.6310973519698805
0.1728473004792644 0.938175307580282 -0.2140013999948654
0.8114654121469161 -0.4005595690943365 -0.369240508330848
-0.6582176225604438 -0.322627181420112 0.6517947070891531
-0.5501554358711358 0.7878075278294151 -0.1849143769998801
-0.7979430504883602 0.5369581995257042 -0.1848278417801259
0.9512176256606972 0.1030522657538453 0.1941807963928484
-0.8735035216599631 -0.2431158886394598 0.3665307546463206
0.8041903934637101 -0.09619923133260017 0.5476050158970919
0.07600013585995814 0.5926860450928261 0.7861781031445144
-0.9342823538321614 -0.1943183185748582 -0.2090324443753998
-0.1256961843169387 0.8828091901902573 0.4002211840724532
0.04888953132344576 0.7171532274404472 -0.6625369412019148
-0.176532781140936 0.940485999450102 0.1991689580805975
0.09170363377021394 0.8780936287972102 0.4168376415853894
-0.1810165428590519 -0.9002038173763407 -0.3324908434510362
-0.3122239057043012 -0.9095592696795 -0.1613559950692965
0.4833174706683347 0.8177386527673965 0.2432434917922709
-0.01677752035517659 0.9717317355092848 -0.1192029213843895
-0.9671510822169526 -0.001754462599203847 -0.1180597130877712
-0.9705046648215504 -0.01566631721309017 0.0963896743503503
0.8903809925019662 -0.2025664024418757 -0.3573436219081798
0.8093488756649769 0.09490042293406396 0.5407896293433415
0.8180824793728544 -0.09287844436869087 -0.5281214148582279
0.1613810409226681 0.1032030832803058 -0.9564383016813721
0.2901361971827531 -0.6798850891500402 -0.6484811487084066
0.2868969601748673 -0.9264790864427989 -0.144196737439252
-0.7253970619651319 0.5290955426187923 -0.3847785574083094
0.8835710634263951 0.1979526886879095 0.3717070212189803
0.5145776882129821 0.7339682040496638 0.394552646443224
0.1829210001337446 0.8792436927404953 -0.390229191185504
-0.2623022426663303 -0.3854027593878941 -0.8608200766659649
-0.7519706178205431 -0.6339428426493062 0.004712263224349737
0.08758834455687359 -0.9684473465965141 -0.1415860555775748
-0.7764949894239231 0.288069522709887 0.5203618598831317
-0.8143844403597565 -0.532853087970834 0.1375591805054783
-0.7544101673683455 -0.5558276141258889 0.2912621159051627
0.01961906807686707 -0.9321898776307668 -0.3072500377995845
0.6706757880269915 -0.208089457835038 0.6811196213338011
-0.4722394581818838 -0.5534309352644272 -0.6558542942117161
-0.9377984899528368 -0.2140222707681911 0.179932921442041
0.04530827427394377 -0.9611632434359633 0.1834541984374613
-0.01168703571098937 0.9761225998586679 0.07809908133906843
0.3535234019991556 -0.8540994757224624 -0.3234957023142962
0.3437286353043454 0.7797091991599762 -0.4835305657357599
-0.908839594147909 -0.3615588958707409 -0.09920655404723115
-0.008354759008765448 -0.1846011009383022 -0.9623161581267986
0.2660983904586758 0.6854290642528872 -0.6474838766227942
-0.7847329063797023 -0.4194191374765112 0.4156101929360521
-0.9090021476639866 -0.3673509934501875 0.07530942433208813
0.6423506208559681 0.7301226651522743 0.1385811904387146
0.3990626851620107 -0.4220158055892114 -0.7745924463568478
0.2205829185313381 -0.5313973217792013 -0.785383311222283
-0.4362225819800812 0.1182883357249753 -0.8730151378079783
-0.04976988938530204 -0.3517613171122129 -0.9143831755565591
-0.6032901920368728 0.1140509515338466 -0.7677689307270764
-0.8140918580301851 -0.5289237098670438 -0.1448283154298157
-0.14698262304698 -0.01578143807242468 -0.9681115716739374
-0.1110855246968392 -0.615718442582129 -0.7552591089603147
0.7254213764168064 0.4728357470820925 0.4623014133864942
-0.0216036347877848 -0.9821278910909044 0.00113639745192586
-0.2207802741130407 -0.9552258744283164 0.006607263611655784
-0.3003913416268063 -0.529000839839965 -0.7711868610739936
0.8377358526286613 0.371715755094512 0.3546365302916421
0.04406813068665241 -0.5024455877788633 -0.8375470939649379
0.8368693078122181 0.4777873703821154 0.2014331078488427
-0.3706473971434849 0.2709695153488893 -0.8720876375143704
-0.6678156126801787 -0.4575324209275306 0.5573409564881447
0.7381254998282313 0.6159430250997179 0.2260964629180189
0.6709152454907229 0.6191432446194763 0.3760581959006937
-0.05045306853011761 0.1645595828526297 -0.9650926681611401
-0.4879441061225049 -0.06500922189188635 0.8134303727901583
-0.1545437918684093 0.4905081423411308 0.8238460380456263
$EndNodes
$Elements
1 594 1 594
2 1 3 594
1 1 105 399 104 
2 78 244 399 105 
3 38 104 399 244 
4 38 244 400 241 
5 78 362 400 244 
6 68 241 400 362 
7 36 238 401 237 
8 73 267 401 238 
9 44 237 401 267 
10 15 168 402 165 
11 33 191 402 168 
12 22 165 402 191 
13 31 224 403 223 
14 36 227 403 224 
15 33 223 403 227 
16 38 243 404 236 
17 73 238 404 243 
18 36 236 404 238 
19 21 189 405 153 
20 95 156 405 189 
21 12 153 405 156 
22 59 329 406 328 
23 72 361 406 329 
24 68 328 406 361 
25 69 365 407 322 
26 74 323 407 365 
27 58 322 407 323 
28 28 214 408 213 
29 91 378 408 214 
30 75 213 408 378 
31 36 235 409 227 
32 37 228 409 235 
33 33 227 409 228 
34 44 266 410 265 
35 67 355 410 266 
36 66 265 410 355 
37 31 223 411 166 
38 33 168 411 223 
39 15 166 411 168 
40 40 251 412 250 
41 81 385 412 251 
42 80 250 412 385 
43 12 155 413 153 
44 79 188 413 155 
45 21 153 413 188 
46 74 375 414 323 
47 75 324 414 375 
48 58 323 414 324 
49 22 190 415 165 
50 32 167 415 190 
51 15 165 415 167 
52 28 213 416 212 
53 75 375 416 213 
54 74 212 416 375 
55 20 185 417 184 
56 34 201 417 185 
57 25 184 417 201 
58 80 386 418 250 
59 84 252 418 386 
60 40 250 418 252 
61 26 207 419 187 
62 95 189 419 207 
63 21 187 419 189 
64 36 237 420 235 
65 44 239 420 237 
66 37 235 420 239 
67 5 123 421 122 
68 16 157 421 123 
69 13 122 421 157 
70 22 192 422 183 
71 34 185 422 192 
72 20 183 422 185 
73 66 357 423 265 
74 94 268 423 357 
75 44 265 423 268 
76 17 174 424 171 
77 81 175 424 174 
78 18 171 424 175 
79 24 198 425 173 
80 81 174 425 198 
81 17 173 425 174 
82 16 169 426 157 
83 17 158 426 169 
84 13 157 426 158 
85 33 228 427 226 
86 37 230 427 228 
87 34 226 427 230 
88 4 119 428 116 
89 16 123 428 119 
90 5 116 428 123 
91 70 367 429 204 
92 77 205 429 367 
93 26 204 429 205 
94 10 145 430 117 
95 16 119 430 145 
96 4 117 430 119 
97 34 229 431 201 
98 35 202 431 229 
99 25 201 431 202 
100 3 112 432 111 
101 10 117 432 112 
102 4 111 432 117 
103 44 269 433 266 
104 98 359 433 269 
105 67 266 433 359 
106 58 325 434 322 
107 86 366 434 325 
108 69 322 434 366 
109 68 363 435 328 
110 85 330 435 363 
111 59 328 435 330 
112 33 226 436 191 
113 34 192 436 226 
114 22 191 436 192 
115 31 225 437 224 
116 38 236 437 225 
117 36 224 437 236 
118 73 374 438 267 
119 98 269 438 374 
120 44 267 438 269 
121 75 379 439 324 
122 97 326 439 379 
123 58 324 439 326 
124 1 104 440 103 
125 38 225 440 104 
126 31 103 440 225 
127 17 171 441 158 
128 18 159 441 171 
129 13 158 441 159 
130 58 326 442 303 
131 97 305 442 326 
132 53 303 442 305 
133 34 230 443 229 
134 37 231 443 230 
135 35 229 443 231 
136 12 154 444 113 
137 27 114 444 154 
138 3 113 444 114 
139 4 118 445 111 
140 12 113 445 118 
141 3 111 445 113 
142 61 335 446 308 
143 87 309 446 335 
144 54 308 446 309 
145 53 304 447 302 
146 61 308 447 304 
147 54 302 447 308 
148 61 336 448 335 
149 88 390 448 336 
150 87 335 448 390 
151 61 337 449 336 
152 90 392 449 337 
153 88 336 449 392 
154 65 351 450 339 
155 70 341 450 351 
156 62 339 450 341 
157 9 142 451 136 
158 15 138 451 142 
159 8 136 451 138 
160 1 103 452 102 
161 31 143 452 103 
162 9 102 452 143 
163 5 122 453 121 
164 13 128 453 122 
165 6 121 453 128 
166 65 352 454 351 
167 77 367 454 352 
168 70 351 454 367 
169 8 137 455 136 
170 14 141 455 137 
171 9 136 455 141 
172 66 355 456 332 
173 67 333 456 355 
174 60 332 456 333 
175 54 307 457 306 
176 56 310 457 307 
177 55 306 457 310 
178 62 340 458 331 
179 66 332 458 340 
180 60 331 458 332 
181 54 306 459 299 
182 55 300 459 306 
183 52 299 459 300 
184 14 164 460 141 
185 78 144 460 164 
186 9 141 460 144 
187 51 296 461 295 
188 58 303 461 296 
189 53 295 461 303 
190 56 316 462 315 
191 65 339 462 316 
192 62 315 462 339 
193 53 302 463 298 
194 54 299 463 302 
195 52 298 463 299 
196 56 314 464 310 
197 60 311 464 314 
198 55 310 464 311 
199 56 315 465 314 
200 62 331 465 315 
201 60 314 465 331 
202 63 343 466 327 
203 72 329 466 343 
204 59 327 466 329 
205 57 319 467 318 
206 63 327 467 319 
207 59 318 467 327 
208 51 295 468 294 
209 53 298 468 295 
210 52 294 468 298 
211 57 318 469 287 
212 59 288 469 318 
213 49 287 469 288 
214 51 294 470 290 
215 52 291 470 294 
216 50 290 470 291 
217 71 370 471 364 
218 74 365 471 370 
219 69 364 471 365 
220 48 284 472 283 
221 51 290 472 284 
222 50 283 472 290 
223 50 292 473 286 
224 57 287 473 292 
225 49 286 473 287 
226 64 348 474 347 
227 71 364 474 348 
228 69 347 474 364 
229 48 283 475 282 
230 50 286 475 283 
231 49 282 475 286 
232 64 347 476 279 
233 69 280 476 347 
234 47 279 476 280 
235 48 282 477 275 
236 49 276 477 282 
237 46 275 477 276 
238 45 272 478 271 
239 64 279 478 272 
240 47 271 478 279 
241 47 278 479 274 
242 48 275 479 278 
243 46 274 479 275 
244 45 271 480 270 
245 47 274 480 271 
246 46 270 480 274 
247 45 270 481 261 
248 46 262 481 270 
249 43 261 481 262 
250 41 256 482 255 
251 45 261 482 256 
252 43 255 482 261 
253 43 263 483 258 
254 68 259 483 263 
255 42 258 483 259 
256 25 200 484 186 
257 26 187 484 200 
258 21 186 484 187 
259 41 255 485 254 
260 43 258 485 255 
261 42 254 485 258 
262 20 184 486 182 
263 25 186 486 184 
264 21 182 486 186 
265 41 254 487 246 
266 42 247 487 254 
267 39 246 487 247 
268 20 182 488 179 
269 21 180 488 182 
270 19 179 488 180 
271 11 151 489 150 
272 22 183 489 151 
273 20 150 489 183 
274 40 249 490 245 
275 41 246 490 249 
276 39 245 490 246 
277 11 150 491 149 
278 20 179 491 150 
279 19 149 491 179 
280 7 134 492 132 
281 32 152 492 134 
282 11 132 492 152 
283 30 220 493 219 
284 40 245 493 220 
285 39 219 493 245 
286 11 149 494 127 
287 19 129 494 149 
288 6 127 494 129 
289 10 148 495 147 
290 91 214 495 148 
291 28 147 495 214 
292 44 268 496 239 
293 94 240 496 268 
294 37 239 496 240 
295 16 170 497 169 
296 23 172 497 170 
297 17 169 497 172 
298 30 219 498 162 
299 39 163 498 219 
300 14 162 498 163 
301 11 152 499 151 
302 32 190 499 152 
303 22 151 499 190 
304 10 147 500 146 
305 28 194 500 147 
306 23 146 500 194 
307 75 378 501 377 
308 91 396 501 378 
309 90 377 501 396 
310 6 129 502 121 
311 19 124 502 129 
312 5 121 502 124 
313 7 132 503 126 
314 11 127 503 132 
315 6 126 503 127 
316 39 248 504 163 
317 78 164 504 248 
318 14 163 504 164 
319 10 146 505 145 
320 23 170 505 146 
321 16 145 505 170 
322 72 373 506 242 
323 73 243 506 373 
324 38 242 506 243 
325 3 115 507 112 
326 91 148 507 115 
327 10 112 507 148 
328 3 114 508 106 
329 27 107 508 114 
330 2 106 508 107 
331 9 143 509 142 
332 31 166 509 143 
333 15 142 509 166 
334 9 144 510 102 
335 78 105 510 144 
336 1 102 510 105 
337 46 277 511 262 
338 85 264 511 277 
339 43 262 511 264 
340 29 216 512 161 
341 30 162 512 216 
342 14 161 512 162 
343 23 193 513 172 
344 24 173 513 193 
345 17 172 513 173 
346 26 206 514 204 
347 93 369 514 206 
348 70 204 514 369 
349 54 309 515 307 
350 87 317 515 309 
351 56 307 515 317 
352 80 385 516 197 
353 81 198 516 385 
354 24 197 516 198 
355 47 281 517 278 
356 86 285 517 281 
357 48 278 517 285 
358 13 160 518 128 
359 82 130 518 160 
360 6 128 518 130 
361 18 176 519 159 
362 82 160 519 176 
363 13 159 519 160 
364 71 372 520 370 
365 92 376 520 372 
366 74 370 520 376 
367 43 264 521 263 
368 85 363 521 264 
369 68 263 521 363 
370 49 289 522 276 
371 85 277 522 289 
372 46 276 522 277 
373 8 139 523 137 
374 29 161 523 139 
375 14 137 523 161 
376 4 120 524 118 
377 79 155 524 120 
378 12 118 524 155 
379 71 371 525 196 
380 80 197 525 371 
381 24 196 525 197 
382 21 188 526 180 
383 79 181 526 188 
384 19 180 526 181 
385 63 344 527 343 
386 73 373 527 344 
387 72 343 527 373 
388 69 366 528 280 
389 86 281 528 366 
390 47 280 528 281 
391 48 285 529 284 
392 86 297 529 285 
393 51 284 529 297 
394 6 130 530 126 
395 82 135 530 130 
396 7 126 530 135 
397 57 320 531 319 
398 76 345 531 320 
399 63 319 531 345 
400 8 140 532 131 
401 32 134 532 140 
402 7 131 532 134 
403 42 260 533 247 
404 78 248 533 260 
405 39 247 533 248 
406 55 312 534 300 
407 83 301 534 312 
408 52 300 534 301 
409 41 257 535 256 
410 84 273 535 257 
411 45 256 535 273 
412 74 376 536 212 
413 92 215 536 376 
414 28 212 536 215 
415 45 273 537 272 
416 84 350 537 273 
417 64 272 537 350 
418 40 252 538 249 
419 84 257 538 252 
420 41 249 538 257 
421 70 368 539 341 
422 89 342 539 368 
423 62 341 539 342 
424 62 342 540 340 
425 89 356 540 342 
426 66 340 540 356 
427 40 253 541 251 
428 101 387 541 253 
429 81 251 541 387 
430 64 349 542 348 
431 80 371 542 349 
432 71 348 542 371 
433 52 301 543 291 
434 83 293 543 301 
435 50 291 543 293 
436 50 293 544 292 
437 83 321 544 293 
438 57 292 544 321 
439 19 181 545 124 
440 79 125 545 181 
441 5 124 545 125 
442 7 133 546 131 
443 29 139 546 133 
444 8 131 546 139 
445 5 125 547 116 
446 79 120 547 125 
447 4 116 547 120 
448 2 110 548 106 
449 91 115 548 110 
450 3 106 548 115 
451 77 383 549 205 
452 95 207 549 383 
453 26 205 549 207 
454 35 233 550 202 
455 93 203 550 233 
456 25 202 550 203 
457 51 297 551 296 
458 86 325 551 297 
459 58 296 551 325 
460 7 135 552 133 
461 82 217 552 135 
462 29 133 552 217 
463 30 222 553 220 
464 101 253 553 222 
465 40 220 553 253 
466 24 199 554 196 
467 92 372 554 199 
468 71 196 554 372 
469 88 393 555 390 
470 99 391 555 393 
471 87 390 555 391 
472 67 360 556 333 
473 100 334 556 360 
474 60 333 556 334 
475 89 394 557 232 
476 93 233 557 394 
477 35 232 557 233 
478 59 330 558 288 
479 85 289 558 330 
480 49 288 558 289 
481 76 382 559 358 
482 100 360 559 382 
483 67 358 559 360 
484 67 359 560 358 
485 98 381 560 359 
486 76 358 560 381 
487 70 369 561 368 
488 93 394 561 369 
489 89 368 561 394 
490 15 167 562 138 
491 32 140 562 167 
492 8 138 562 140 
493 56 317 563 316 
494 87 353 563 317 
495 65 316 563 353 
496 57 321 564 320 
497 83 380 564 321 
498 76 320 564 380 
499 37 240 565 231 
500 94 234 565 240 
501 35 231 565 234 
502 64 350 566 349 
503 84 386 566 350 
504 80 349 566 386 
505 25 203 567 200 
506 93 206 567 203 
507 26 200 567 206 
508 23 195 568 193 
509 92 199 568 195 
510 24 193 568 199 
511 55 313 569 312 
512 100 389 569 313 
513 83 312 569 389 
514 27 209 570 107 
515 88 108 570 209 
516 2 107 570 108 
517 28 215 571 194 
518 92 195 571 215 
519 23 194 571 195 
520 76 381 572 345 
521 98 346 572 381 
522 63 345 572 346 
523 83 389 573 380 
524 100 382 573 389 
525 76 380 573 382 
526 81 387 574 175 
527 101 178 574 387 
528 18 175 574 178 
529 12 156 575 154 
530 95 210 575 156 
531 27 154 575 210 
532 27 210 576 208 
533 95 383 576 210 
534 77 208 576 383 
535 61 338 577 337 
536 97 397 577 338 
537 90 337 577 397 
538 27 211 578 209 
539 99 393 578 211 
540 88 209 578 393 
541 53 305 579 304 
542 97 338 579 305 
543 61 304 579 338 
544 60 334 580 311 
545 100 313 580 334 
546 55 311 580 313 
547 88 392 581 108 
548 90 109 581 392 
549 2 108 581 109 
550 65 354 582 352 
551 99 384 582 354 
552 77 352 582 384 
553 29 218 583 216 
554 96 221 583 218 
555 30 216 583 221 
556 35 234 584 232 
557 94 395 584 234 
558 89 232 584 395 
559 89 395 585 356 
560 94 357 585 395 
561 66 356 585 357 
562 87 391 586 353 
563 99 354 586 391 
564 65 353 586 354 
565 82 388 587 217 
566 96 218 587 388 
567 29 217 587 218 
568 77 384 588 208 
569 99 211 588 384 
570 27 208 588 211 
571 18 177 589 176 
572 96 388 589 177 
573 82 176 589 388 
574 90 397 590 377 
575 97 379 590 397 
576 75 377 590 379 
577 63 346 591 344 
578 98 374 591 346 
579 73 344 591 374 
580 18 178 592 177 
581 101 398 592 178 
582 96 177 592 398 
583 96 398 593 221 
584 101 222 593 398 
585 30 221 593 222 
586 90 396 594 109 
587 91 110 594 396 
588 2 109 594 110 
589 68 361 595 241 
590 72 242 595 361 
591 38 241 595 242 
592 68 362 596 259 
593 78 260 596 362 
594 42 259 596 260 
$EndElements
