$MeshFormat
4.1 0 8
$EndMeshFormat
$PhysicalNames
1
2 1 "diamonds_curved"
$EndPhysicalNames
$Entities
0 0 1 0
1 -0.9988429892318638 -0.9969702268410374 -1 0.9945954255424767 0.9995083321765048 1 1 1 0 
$EndEntities
$Nodes
1 407 1 407
2 1 0 407
1
2
3
4
5
6
7
8
9
10
11
12
13
14
15
16
17
18
19
20
21
22
23
24
25
26
27
28
29
30
31
32
33
34
35
36
37
38
39
40
41
42
43
44
45
46
47
48
49
50
51
52
53
54
55
56
57
58
59
60
61
62
63
64
65
66
67
68
69
70
71
72
73
74
75
76
77
78
79
80
81
82
83
84
85
86
87
88
89
90
91
92
93
94
95
96
97
98
99
100
101
102
103
104
105
106
107
108
109
110
111
112
113
114
115
116
117
118
119
120
121
122
123
124
125
126
127
128
129
130
131
132
133
134
135
136
137
138
139
140
141
142
143
144
145
146
147
148
149
150
151
152
153
154
155
156
157
158
159
160
161
162
163
164
165
166
167
168
169
170
171
172
173
174
175
176
177
178
179
180
181
182
183
184
185
186
187
188
189
190
191
192
193
194
195
196
197
198
199
200
201
202
203
204
205
206
207
208
209
210
211
212
213
214
215
216
217
218
219
220
221
222
223
224
225
226
227
228
229
230
231
232
233
234
235
236
237
238
239
240
241
242
243
244
245
246
247
248
249
250
251
252
253
254
255
256
257
258
259
260
261
262
263
264
265
266
267
268
269
270
271
272
273
274
275
276
277
278
279
280
281
282
283
284
285
286
287
288
289
290
291
292
293
294
295
296
297
298
299
300
301
302
303
304
305
306
307
308
309
310
311
312
313
314
315
316
317
318
319
320
321
322
323
324
325
326
327
328
329
330
331
332
333
334
335
336
337
338
339
340
341
342
343
344
345
346
347
348
349
350
351
352
353
354
355
356
357
358
359
360
361
362
363
364
365
366
367
368
369
370
371
372
373
374
375
376
377
378
379
380
381
382
383
384
385
386
387
388
389
390
391
392
393
394
395
396
397
398
399
400
401
402
403
404
405
406
407
6.123233995736766e-17 -1.499759782661858e-32 1
6.123233995736766e-17 -1.499759782661858e-32 -1
0.8660254037844384 -2.121150477449813e-16 -0.5000000000000004
0.8660254037844404 -2.121150477449818e-16 0.4999999999999969
0.5890168448360209 0.8080951308365307 0.006435527772413227
0.1214342941510615 0.5654857914664706 0.815769288373602
-0.8455952142933379 -0.5289758795786953 0.0717861573574564
-0.3166643087523706 0.9481430563631945 0.02735800125454698
0.6270195097547273 -0.7753369625389051 -0.07549257518382875
-0.8587474091421756 0.3679546947652 0.3565981350089332
-0.8892017392068798 0.2707557364564421 -0.3687975029299816
0.08478667767004826 0.57993800134968 -0.8102364678784916
-0.6540168643511398 -0.09833745325827732 0.7500611217967366
0.009327240008085012 -0.8536211258944382 0.5208108831625387
-0.1430592977153724 -0.9610519629698847 -0.2364596409726526
-0.4523518410557238 -0.4686136075591983 -0.7588010929775014
0.4439084485871991 -0.5818773583190393 -0.6814426088443269
-0.1415026149471015 0.04285687110186004 -0.9890097565557635
0.370613220498049 -0.3614123711127926 0.855585728491712
-0.5368322295462481 0.1632068188322387 -0.8277527961940482
0.623597476292915 -0.6761401630984201 0.3923782198419648
-0.5977013043843014 -0.5939511929151341 0.5384933900912748
-0.4647426650263581 0.7457065287483245 -0.4774264637473739
0.9495674984833882 -0.3120868312374191 -0.03038709581692695
0.143568042945012 0.9391302619490126 -0.3121258850792706
-0.4270733550283409 0.7624206915628138 0.4861306804777061
0.1572980957874314 0.9274123275543192 0.339357751881297
0.6287579770354961 0.5667752367492495 -0.5323807259115065
0.6372409810454199 0.555226817986656 0.5344596454969109
0.9443966525080195 0.3287979717779113 0.00261848933144579
-0.7928537457866649 0.6093841572710738 0.005821224877776477
-0.8627522584848237 -0.2867100132850054 -0.4164803822047902
-0.9988429892318638 0.04226169760728027 0.02294845915754937
-0.8902411329696363 -0.09790353379041937 0.4448433693338441
0.370733765571218 0.2261252283514496 -0.9007906838818828
0.3827007234359642 0.2191601560442747 0.8975015221626305
-0.3818219598015128 -0.91374627032457 0.1388515195497322
-0.253283224724969 -0.374001891186163 0.8921716165974427
-0.5540045718397922 -0.753012861912143 -0.3550360040552121
0.501849854704375 -0.2229235218247713 -0.8357343039210717
0.7231816607149046 -0.5067300667614458 -0.4692898092283415
-0.5530508649989926 0.331951773918907 0.7641614754199253
-0.05775737377820268 -0.7668605532440258 -0.6392096507817382
0.1865103350159177 -0.9792741339290214 0.07896876312704482
0.3452659835448531 -0.8626420123557089 -0.369648696907886
-0.2000811000613867 0.175498708801962 0.9639334814223799
-0.003178074643820893 -0.3954025250710538 -0.9185024458372406
0.1078888755793389 -0.1052104247318052 0.9885801722945788
0.2348637391699674 -0.2290330084495224 0.9446602061395741
0.5999823466522836 -0.2355407400400034 0.7645532966948912
0.7661524762990256 -0.1077169387593522 0.633567237288344
0.7564979158234871 0.06918105701425442 0.6503267522600547
0.5914211553295078 0.1462674749055866 0.7929860293936165
0.2479916136315224 0.1420166657987781 0.9582961057021111
0.1176490783793209 0.06737376962495184 0.9907671116478486
0.2741748525245548 -0.02498519905922367 0.9613552361490051
0.4428723135047591 -0.1302777175060596 0.8870692364479524
0.6239371665303737 -0.02546808918016561 0.7810594014897713
0.4420884091841291 0.06212768058626356 0.8948172940718219
0.2933753262660895 0.3546041351170005 0.8877988653384219
0.2042306102793418 0.4710930763268619 0.8581148939750559
0.02333001677585269 0.4594116360089771 0.8879170338589035
-0.08702983700003546 0.3266748831651382 0.9411213142739837
-0.1290456308424473 0.1131908090391134 0.9851573812896829
-0.06196368745074932 0.0543506964769708 0.996597462985921
0.05193003673061251 0.153326365448067 0.9868101625660547
0.1734950285762367 0.2561922353561029 0.9509285007836152
0.0972359948072242 0.3636069861608142 0.9264637720542014
-0.01712568761850466 0.240887646843674 0.9704019025237486
-0.07720464346674556 -0.1140015597016749 0.9904761922493434
-0.1635334700087709 -0.2414760279601201 0.9565281658725444
-0.4144812996795237 -0.2803121115693412 0.8658119728460161
-0.5496147329681107 -0.1854969452790816 0.8145640113560886
-0.5334065912153233 -0.01470669118477931 0.8457311166573243
-0.378211894660374 0.07987040036549567 0.9222670339347849
-0.1773255595942795 -0.05195106959471836 0.9827801037274515
-0.2984882853459458 -0.1667657915618885 0.9397307669093174
-0.4242002388254316 -0.08937696046107975 0.9011470003940453
-0.2792328692999443 0.01361376534545069 0.960126903120436
0.2448164824771873 -0.5874572662746854 0.7713357571178523
0.1172881566176892 -0.7525238211843763 0.6480365629092925
-0.07227566986269271 -0.745643200180771 0.6624141042958533
-0.164518099810538 -0.5823201593166057 0.796138823879487
0.02127888326720162 -0.2684072550017395 0.9630704826695355
0.1332314742268791 -0.4340061213651394 0.8910039623328956
0.02537664695492016 -0.6133132673876405 0.789431986833332
-0.073119076488577 -0.4342107751703475 0.897838851564925
0.1134007136524264 0.06916759316584632 -0.9911388006726225
0.2395192221405429 0.1460922738387244 -0.9598372725362463
0.585549118043362 0.1509354654601011 -0.7964613710814753
0.7548107550334784 0.07121294427111657 -0.6520655186820027
0.7803335534716725 -0.06978979489421917 -0.6214571021839684
0.6576356877929266 -0.1466720696513479 -0.7389198915480043
0.3315754054241558 -0.1472869951734287 -0.9318606610274892
0.1577083487031283 -0.07005461929401248 -0.9849976787104138
0.3018854573791717 -0.0001644660628903082 -0.9533441894582892
0.4493475447949441 0.07574782816329839 -0.89013990502353
0.6383553385825603 -0.0001660206181735342 -0.7697417970594418
0.4926803453770579 -0.0756140148754305 -0.8669190262265335
-0.04285155104708623 0.01297844142616228 -0.9989971494609013
-0.08993252188306834 0.02723784645003706 -0.9955753317697841
-0.0613710364301771 0.2505112671079726 -0.966166497524854
0.01710164087778154 0.4350623126797863 -0.900237922976478
0.1743939649408589 0.485062157453418 -0.8569139095608391
0.2721134385284742 0.3659788508174031 -0.8899515477409899
0.05815713312625249 0.1278008082815662 -0.990093279074812
-0.0004493308202761835 0.1886724989378139 -0.9820399616341356
0.09070109734527917 0.3464430170443084 -0.9336758253706686
0.1660176444271016 0.2487781207368322 -0.9542261725511025
-0.268423869285861 -0.1518015161885272 -0.9512649084668641
-0.375063787601528 -0.3286543263223389 -0.8667834152887363
-0.3225824493492642 -0.4576103540795102 -0.8285730669114552
-0.1698860368169374 -0.4336137085641509 -0.8849394816821531
-0.002070533702824241 -0.2576069935717885 -0.9662475613180557
-0.000992713146658941 -0.1235091458985616 -0.9923429373961484
-0.08571204735147028 -0.1334677952302893 -0.9873397553908102
-0.1755083595355179 -0.1430280418074174 -0.9740327484175708
-0.2557510765199444 -0.3104357089591439 -0.9155441319029485
-0.1292538099528476 -0.2863635637734482 -0.9493626082565308
0.4896378836248461 -0.3604991640272136 -0.7939112643457465
0.4692713521525165 -0.4810530171347444 -0.7405217030948575
0.3166491952963073 -0.5416719958399482 -0.7786685662340352
0.1637440861365478 -0.4790400236317759 -0.8623853721012283
0.1629724833373259 -0.2075255884856888 -0.9645584999358688
0.3332347087283571 -0.2899495848940575 -0.8971532015873827
0.327890044719451 -0.4237107227828875 -0.8443680133524006
0.1651039797040529 -0.3467989195774071 -0.9232936614457107
0.9220463369819989 -0.09462283652445794 -0.3753359445432103
0.9552680966883276 -0.2024693034902417 -0.2155667984491966
0.9627312885232779 -0.2040511287996755 0.1775150780465906
0.9283304129867043 -0.09526772504323526 0.3593420444214976
0.9239051428686077 0.09931906207972382 0.3695064422828667
0.9562962063258863 0.2134684342423522 0.1998219040766967
0.9569410423749439 0.2136123772391193 -0.1965543021879902
0.9244445084362077 0.09937704344578263 -0.3681393133830093
0.9791359189803032 0.002870134799672668 -0.2031861572273778
0.9945954255424766 -0.1029749127561622 -0.01327052496477882
0.9814800739416583 0.002877006205981014 0.1915426513619557
0.9938383964252672 0.1108160957770984 -0.00224381540562037
0.8302573997743651 0.1710849124160897 -0.5304739417384128
0.7532536480676578 0.3682951715190206 -0.5449473445283868
0.6406512705641703 0.6873968124917265 -0.3421280048472038
0.6234218702182907 0.7662768862541114 -0.1554506523827816
0.7191817618592034 0.6947999542234692 0.005533264873217938
0.8459238103747524 0.533286855273397 0.004247002904498842
0.8758442878600255 0.3002959960346452 -0.377781812940386
0.7786147055808998 0.5070896200577553 -0.3696204235196565
0.7647290903188008 0.6196531101772063 -0.1766902415751776
0.8833690553060478 0.42776193250359 -0.1915172087006668
0.861184132663091 -0.5059006956913444 -0.04925825563632198
0.7466838724700255 -0.6620482254131016 -0.06446194086846647
0.6739199954469893 -0.7105973542352781 -0.2021960432119097
0.7081986221511883 -0.6202700055449162 -0.3372237118063733
0.8005011053088696 -0.3357399346684387 -0.4964641746069003
0.8474711100398717 -0.1612481241348117 -0.5057585986523532
0.8834109741708318 -0.2790581039586795 -0.3764460457084509
0.8903194704259449 -0.3989537728910411 -0.2194701065668595
0.790782471999934 -0.5733695534104108 -0.2142672098096662
0.8096019891183974 -0.4610093593881476 -0.3633386709009433
0.4420148547526307 0.5987028952523612 -0.667965351941589
0.2523490239874679 0.5996193122366417 -0.7594581295143461
0.6842497201494229 0.2485057484846783 -0.6855998931195266
0.5769453937174008 0.4327292296731441 -0.6927333011013407
0.3723524448199783 0.4719028582752458 -0.7991629052879259
0.4880153354316323 0.3174858611287453 -0.8130459767853787
0.537528681740293 -0.5665146388115262 -0.6245991357012822
0.6323556435672495 -0.5417871503225553 -0.5537084285018734
0.7524714249765775 -0.232287067576926 -0.6163030689768074
0.6303451453352816 -0.3008287663370305 -0.7156584737822804
0.5886957778839664 -0.4434263858351192 -0.6758774455822562
0.7019025577238798 -0.3942388785304808 -0.5932187675012519
0.8309087185319951 0.1685195468064743 0.5302752717331424
0.7564697246858151 0.3613517958216594 0.5451407481469617
0.6457738391325322 0.6787770079219518 0.3496254026934447
0.6258293217855193 0.7619500727390294 0.1666425715310006
0.8754517487711888 0.2977907671468895 0.3806637552690487
0.7800931988453008 0.5011636359502759 0.3745525478706632
0.7653432286394535 0.6162807177062136 0.185601237493858
0.8828381786516269 0.426053889035735 0.1976735540040794
0.4616695043633623 0.5832624924328337 0.6683308564340916
0.2822818566522848 0.583708114578839 0.7613158282734936
0.6895786986423822 0.2420047127773506 0.6825796198043349
0.5886079772370347 0.4209333233863402 0.6901853275721361
0.3941900663006095 0.4577539921551949 0.7969162279034749
0.5011841954184895 0.3076167886571706 0.8088178494562115
0.8433374673301003 -0.2050841753355968 0.496711583541365
0.7659873034391088 -0.4454046705462037 0.4635494908051465
0.6425310668024665 -0.7343412605580401 0.2188532413187272
0.6412104577748714 -0.7650181834200467 0.0599693911660918
0.8878892308671549 -0.3167961952124796 0.3336058818561634
0.789250925648705 -0.5440219294395081 0.284821201197483
0.780268340331202 -0.6170647656676288 0.1020411291996802
0.8951195259595705 -0.4220906306006399 0.1435288605300975
0.1939354484864307 -0.8401252580979729 0.5065358748659186
0.4090096322598327 -0.7847516935344757 0.4656993667737252
0.7007125445723263 -0.3475006309272737 0.6230932846565772
0.4899672239940027 -0.4856327080598107 0.7239426719527627
0.3428158273233212 -0.698384023533841 0.6282810391928999
0.57496757044946 -0.5917482842128665 0.5650188147863521
0.4776265605623699 0.8718994314605092 0.1080011576984327
0.331372880169737 0.9167904856665158 0.2229063024666806
0.150326179257094 0.8273922680574588 0.5411322154415668
0.1372117593690813 0.6986108402252978 0.7022220638875887
0.4943102002342654 0.8164248704567406 0.2985093915508434
0.329786446358497 0.840751681261486 0.4293920239760148
0.3120440632063896 0.7230021319826736 0.6163573799072705
0.4899599518029361 0.7176848419890267 0.4948410989483903
0.4743061920994662 0.8757541890488955 -0.08993462347403111
0.3233949036194694 0.9249142385621727 -0.1998734289942275
-0.03076026809265854 0.980924876412523 -0.1919379919191201
-0.1882690196303219 0.979271267078402 -0.07471654249293441
-0.1833753387111543 0.9752650372870204 0.1234163368364016
-0.02109744028117996 0.972637326867389 0.2313688146614441
0.3291661935599824 0.944179758468049 0.01319851190281398
0.1531785083088179 0.9839994982637419 -0.09100182420693333
-0.02296100484394971 0.9995083321765049 0.02135149096193327
0.1576472469043828 0.9795705173134486 0.1248557053311209
0.1272727857061975 0.8425169049185559 -0.5234184778406675
0.1062914013972606 0.7139381568735848 -0.6920942465798678
0.486245960231549 0.8260637969901689 -0.2849271300888774
0.3142702212733819 0.8543871061603643 -0.4138319717562888
0.2888161031602523 0.7389823052950855 -0.6086792349144888
0.4763269615290505 0.731523611048719 -0.4878379159093164
-0.04033654399664086 0.6538831106292397 0.7555195833677886
-0.2323034474386761 0.7273754218827166 0.645724479905359
-0.3975407997761304 0.8590039117338429 0.322604389522695
-0.3584905831457432 0.9187426757545351 0.1655185715961263
-0.03562025267428591 0.7900978378038092 0.6119449356740896
-0.223782570699569 0.8483355947382107 0.4798417236456816
-0.2063369702209705 0.9319247969477318 0.2982301586928445
-0.02896990327044587 0.9022434069150728 0.4302529248974183
-0.6168472955456018 0.6409241469176691 0.4568540816014841
-0.7616944493774583 0.5018650066838097 0.4098207911439223
-0.7901894745982856 0.3674329724099621 0.490503419988144
-0.6885848295691507 0.356450361525211 0.631501442797853
-0.3209555297834409 0.446811291317965 0.8350731811357636
-0.08233556335426934 0.525280679883415 0.8469362799811756
-0.2671233296829953 0.5921983160361173 0.7602277824593474
-0.4555940187328727 0.6341307081712452 0.6247498179664128
-0.6494573858792234 0.5055646851611487 0.5679871944373697
-0.4975394646937724 0.4876033666793692 0.7174241687280819
-0.6047630843013764 0.1752828498572506 0.7768767820009856
-0.6372934404959568 0.02938365613084917 0.7700608232167185
-0.1867322530615198 0.3901954091112379 0.9015978085460736
-0.4090363937938264 0.2909500766189722 0.8648914853711742
-0.4808703452443606 0.1324382165554985 0.8667316942746285
-0.2887475300889151 0.2367093010788296 0.9276818261938319
-0.926957564111247 -0.370453507473736 0.05927793128433253
-0.983792641523148 -0.1741736828745913 0.04260946700919954
-0.9747348492577362 0.166152774237264 0.1492823809287578
-0.9244552704782286 0.2765792222484885 0.2624621624262179
-0.8900061824274031 0.2308743120025507 0.3931743217687909
-0.9026947921122488 0.07242722971331528 0.424141967611646
-0.9090808574096773 -0.2639002227625618 0.3223796940211282
-0.8907708059907207 -0.4114955884106269 0.1928697796785018
-0.954351673635908 -0.2337922236794615 0.1858872754530395
-0.9846922293273901 -0.03373496197435354 0.1710063327565493
-0.9507512841908264 0.1057224561427642 0.2913670500874044
-0.9465403735577718 -0.08055456586742904 0.3123656241378424
-0.8784003387164119 -0.4719045116264042 -0.07562391717927423
-0.8877589534452174 -0.3905777819213012 -0.2435837368284028
-0.9064249870744056 -0.08256024931556272 -0.4142192028867275
-0.9117141596001826 0.1088018246866357 -0.3961558457594578
-0.9442399886795386 0.2065350934294868 -0.2564256207178566
-0.9838734862404792 0.1292345710974331 -0.1236583547774595
-0.9528011776420791 -0.2882590261445988 -0.09527145285989398
-0.9471705224082617 -0.1892920156492207 -0.2589141446354676
-0.9646799709178299 0.01813146080753522 -0.262799931200447
-0.9905337426421758 -0.07922578519158388 -0.1120989725557762
-0.796593081045072 -0.5649077656954823 0.2152177490079699
-0.7149936730846247 -0.5894782135839091 0.3758982351100895
-0.6413260929402792 -0.4225942577950295 0.6404021672297999
-0.657823447313108 -0.2516121864373688 0.7099011338216789
-0.7381447621778839 -0.09979654613910553 0.6672203230178624
-0.8190448322726923 -0.09979099388259427 0.5649843540022339
-0.8360344003849763 -0.4273063100407474 0.3441740820751817
-0.7517696469562228 -0.4318161929261987 0.4983745312935242
-0.7578488010570014 -0.2618424892914418 0.5975815471867643
-0.8440554557070861 -0.2661744561413677 0.4655336148861331
-0.3901850751951553 -0.7298301514012857 0.5613408565217104
-0.1770751250671817 -0.8151360367444199 0.5515411513958334
-0.1114009137730325 -0.9006738714610355 0.4199719201064798
-0.2463153302426433 -0.9247207634965777 0.2902072839295458
-0.5782645246101537 -0.8070760412677298 0.1193247802805538
-0.7356486260092457 -0.6705786291930437 0.09563159059791652
-0.6511505872181476 -0.7159853187671518 0.2517298871317462
-0.5329249155069641 -0.7381471647511676 0.4136783745879249
-0.3195875327461223 -0.8453762266160931 0.4280220139030025
-0.4591986786431842 -0.8435487086721046 0.2784998198024168
-0.3008063265275505 -0.9536851791009904 0.0003648069526355049
-0.2192107397539772 -0.9674086543603354 -0.126756250517437
-0.2739510543734517 -0.9203678905352101 -0.2790587140360282
-0.4147266284636524 -0.8517549704643629 -0.3201800960903471
-0.6864090563597512 -0.6972283740247006 -0.2066765632629598
-0.7841206386391921 -0.6177678485031861 -0.05931028086099403
-0.6533840723793255 -0.7558802920983915 -0.04164418300625936
-0.4864326006739184 -0.8734661638326318 -0.02098060154319845
-0.3813291368746598 -0.9109187048743759 -0.1575284180089959
-0.5430052276025652 -0.8190258103498842 -0.1853160672391955
-0.7381941340604493 -0.3683026031987655 -0.5651748516306754
-0.5943648572165728 -0.4291078756073327 -0.6801447254795735
-0.4965937861303772 -0.570119344253403 -0.6544910579104708
-0.5327742586422013 -0.6690204407481494 -0.5182308744077341
-0.7977172448780496 -0.5580681067961716 -0.2284889174579607
-0.7832150070148891 -0.472767087020969 -0.4038137370327745
-0.6460690667673502 -0.5340109725759742 -0.5453687212655555
-0.678528968832913 -0.6271432604356887 -0.3824784560529358
-0.8557391809463666 0.4499276908951917 0.2554907574824631
-0.8351151671001967 0.5327389321547565 0.1370105391779046
-0.6449103997278239 0.7641249460191178 0.01427036068845897
-0.4783707486530955 0.8778914188461392 0.02163523860255092
-0.5374332751761963 0.8273841577936623 0.1630979158832476
-0.5859514998233988 0.7475367563782049 0.3128092673151834
-0.7434108654179188 0.6033580308005025 0.2886163055808196
-0.7038766636351176 0.6935832900430393 0.1532966475920749
-0.3713960910054091 0.9205033647747246 -0.1214022200139366
-0.4242100564564175 0.856101169257971 -0.2951891190345237
-0.6609534570270192 0.593667158002996 -0.4590205149584035
-0.8025175676916717 0.4255254367198992 -0.4182028888596803
-0.8850807531819356 0.3841088204584689 -0.2628544737928215
-0.8546746242090856 0.5012204100683026 -0.1353121844625271
-0.5557619070945753 0.8207831437991305 -0.1320747268701197
-0.6207036986563923 0.7247897675916239 -0.2990095504641183
-0.7793198030423444 0.5572457974762022 -0.2865968698034802
-0.7251902050161454 0.6747736729279221 -0.1370388881741335
-0.2683974161328417 0.7206805563277892 -0.6392044764739079
-0.07631009413484265 0.6577839891391477 -0.7493310304300238
-0.2227716802210944 0.9391050471394041 -0.2616380876874924
-0.2514212566952608 0.8519756467513178 -0.4592655539276267
-0.06460822586615296 0.7995644623767243 -0.5970950072263609
-0.04876489963808687 0.913936790157443 -0.4029162793434848
0.06523635516150342 -0.9159486283557852 0.3959574827912688
0.1259647412318758 -0.9610881850705826 0.2458503294366717
0.3567845562574721 -0.9338836355510032 0.02379360557376186
0.5063981785012072 -0.861810367625977 -0.02904780650992788
0.4903275721219834 -0.8623912671150876 0.1259371844238024
0.458210888370967 -0.8381895514600458 0.2957719689245354
0.255978405283281 -0.8985907746475181 0.3563841687659566
0.3119545952852288 -0.9308142190252129 0.1904447955206751
0.06891927263115968 -0.9969702268410374 -0.03606245488762905
-0.04319647354655124 -0.9887563532158824 -0.1431605345350855
0.008239007952744041 -0.9582239776784084 -0.2859002052292442
0.1757970616557438 -0.9266625064368875 -0.332252904091615
0.4553710036899447 -0.8484649759561613 -0.269711760170229
0.5501556042905544 -0.8176449287574931 -0.1696631413856554
0.4080593515896969 -0.9035427099566848 -0.1307598442348648
0.2428650960076337 -0.9663360112879879 -0.08491912875921678
0.1236753627549463 -0.9738507683486619 -0.1905756690507822
0.2954809698275665 -0.9261743858519621 -0.2342904254584497
0.4218504810333183 -0.6824102698037093 -0.5969576160150625
0.3889989678434539 -0.7788814232320238 -0.4919588718183511
0.5920898349858202 -0.7469577807274336 -0.3024627268230112
0.6205923042589281 -0.6530231559948589 -0.4340805796498019
0.523208785036551 -0.6737257524928566 -0.5218679695943318
0.4955177771364764 -0.7704686646976405 -0.4010488365034365
-0.9237835542604634 0.3573011208646736 0.1376947853288318
-0.9007564953020387 0.4343199237350306 0.001984947854563628
-0.9373855486570192 0.3218143632383714 -0.1332060388363106
-0.9688441531376799 0.2475539290864423 0.007619653850172073
-0.8203414783935974 0.2187947963320502 0.5283641697967639
-0.8304323052772937 0.0590598307903485 0.553980254827602
-0.739665160667735 0.04437471092656474 0.6715104877249184
-0.7238488827212058 0.2000668786071239 0.660315105890865
-0.8194749128480494 0.2494502329690856 -0.5159800853563543
-0.7040847199923663 0.2142267344731121 -0.6770314714326491
-0.3159013954312473 0.3501319703846881 -0.8818241954489153
-0.09523101347152763 0.4916194571866402 -0.8655872939159279
-0.687118979655766 0.4234879614131402 -0.590360444419307
-0.5191978987872069 0.3988763687115316 -0.7558645277947968
-0.2931400309040433 0.5552375454545979 -0.7783188231047286
-0.4938083951618281 0.5925934399251809 -0.6363853265320792
-0.5304605408961937 -0.08794170324534721 -0.843135737222913
-0.4971399962233165 -0.3041775908452439 -0.8126055730689177
-0.8293814958795857 0.05058731647600798 -0.5563876865139066
-0.6998717269138898 -0.01768350506726096 -0.7140496197850018
-0.6588633184471241 -0.2418732186701049 -0.7123176775112403
-0.8019533182724359 -0.1648975553541467 -0.5741773868327237
-0.1609246268067874 0.293311359536122 -0.9423755678359708
-0.2218427195220932 0.0672543814751822 -0.9727603281216974
-0.3760523519245078 -0.1293348283938013 -0.9175277275245648
-0.3572617414117374 0.1084751975718791 -0.9276837713548698
-0.5218558591351617 -0.3714965465006892 0.7678911239390408
-0.4678391147940237 -0.5622416637888435 0.6819170581300172
-0.2678467554876336 -0.6741715577505729 0.688295595144204
-0.351511658728501 -0.4871768805654976 0.7994362018450308
-0.05377457759195092 -0.959016007566321 0.278202429961281
-0.1800091014588538 -0.9733272727741931 0.142234818050742
-0.1103679771296139 -0.9938725725220273 -0.006018240005573078
0.008053508604563274 -0.9925089775075048 0.1219059906902186
-0.3418184486517593 -0.57532776327921 -0.7430734236678405
-0.2076312433152852 -0.6790201456544345 -0.7041455166333017
-0.09099939525210833 -0.8583422281553397 -0.504943293280619
-0.119766604975775 -0.9224334636106085 -0.3671136956637726
-0.2595504491310858 -0.8658406320145191 -0.4277307147125978
-0.4016177158304499 -0.7798745544589761 -0.4801029989893268
-0.3762041493045025 -0.6842624877290148 -0.6247041587287341
-0.237062671887442 -0.7839313757413794 -0.5738056184160411
0.1291238265352055 -0.7240832867293638 -0.6775178457429059
0.3006001623908959 -0.6585107257792735 -0.6899298271594158
0.04819293186988376 -0.9053773069055697 -0.4218641647002061
0.08956177234048471 -0.8262441648708431 -0.5561468052161356
0.2661935544011177 -0.7644911591305061 -0.5871066846890729
0.2236882943494653 -0.8564750862126229 -0.4652031531149668
-0.1838088498104915 -0.5615774489662863 -0.8067496981988046
-0.02825745332332579 -0.6542538352107943 -0.7557469387590313
0.1524577582274005 -0.6061812787660096 -0.7805772794732633
-0.009971128804724762 -0.5289690241538524 -0.8485825523047719
$EndNodes
$Elements
1 45 1 45
2 1 36 45
1 1 19 4 36 48 49 50 51 52 53 54 55 56 57 58 59 
2 1 36 6 46 55 54 60 61 62 63 64 65 66 67 68 69 
3 1 38 13 46 70 71 72 73 74 75 64 65 76 77 78 79 
4 1 19 14 38 48 49 80 81 82 83 71 70 84 85 86 87 
5 2 35 3 40 88 89 90 91 92 93 94 95 96 97 98 99 
6 2 18 12 35 100 101 102 103 104 105 89 88 106 107 108 109 
7 2 18 16 47 100 101 110 111 112 113 114 115 116 117 118 119 
8 2 40 17 47 95 94 120 121 122 123 114 115 124 125 126 127 
9 3 24 4 30 128 129 130 131 132 133 134 135 136 137 138 139 
10 3 28 5 30 140 141 142 143 144 145 134 135 146 147 148 149 
11 3 24 9 41 128 129 150 151 152 153 154 155 156 157 158 159 
12 3 28 12 35 140 141 160 161 104 105 90 91 162 163 164 165 
13 3 40 17 41 92 93 120 121 166 167 154 155 168 169 170 171 
14 4 29 5 30 172 173 174 175 144 145 133 132 176 177 178 179 
15 4 29 6 36 172 173 180 181 61 60 53 52 182 183 184 185 
16 4 21 9 24 186 187 188 189 151 150 130 131 190 191 192 193 
17 4 19 14 21 51 50 80 81 194 195 187 186 196 197 198 199 
18 5 27 6 29 200 201 202 203 181 180 174 175 204 205 206 207 
19 5 25 8 27 208 209 210 211 212 213 201 200 214 215 216 217 
20 5 25 12 28 208 209 218 219 161 160 142 143 220 221 222 223 
21 6 26 8 27 224 225 226 227 212 213 202 203 228 229 230 231 
22 6 26 10 42 224 225 232 233 234 235 236 237 238 239 240 241 
23 6 42 13 46 237 236 242 243 74 75 63 62 244 245 246 247 
24 7 33 10 34 248 249 250 251 252 253 254 255 256 257 258 259 
25 7 32 11 33 260 261 262 263 264 265 249 248 266 267 268 269 
26 7 22 13 34 270 271 272 273 274 275 254 255 276 277 278 279 
27 7 22 14 37 270 271 280 281 282 283 284 285 286 287 288 289 
28 7 37 15 39 285 284 290 291 292 293 294 295 296 297 298 299 
29 7 32 16 39 260 261 300 301 302 303 294 295 304 305 306 307 
30 8 26 10 31 227 226 232 233 308 309 310 311 312 313 314 315 
31 8 23 11 31 316 317 318 319 320 321 310 311 322 323 324 325 
32 8 23 12 25 316 317 326 327 219 218 210 211 328 329 330 331 
33 9 21 14 44 189 188 195 194 332 333 334 335 336 337 338 339 
34 9 44 15 45 335 334 340 341 342 343 344 345 346 347 348 349 
35 9 41 17 45 152 153 167 166 350 351 344 345 352 353 354 355 
36 10 31 11 33 308 309 321 320 264 265 250 251 356 357 358 359 
37 10 34 13 42 252 253 275 274 243 242 235 234 360 361 362 363 
38 11 20 12 23 364 365 366 367 327 326 318 319 368 369 370 371 
39 11 20 16 32 364 365 372 373 301 300 262 263 374 375 376 377 
40 12 18 16 20 103 102 110 111 373 372 366 367 378 379 380 381 
41 13 22 14 38 273 272 280 281 82 83 72 73 382 383 384 385 
42 14 37 15 44 282 283 290 291 341 340 333 332 386 387 388 389 
43 15 39 16 43 292 293 303 302 390 391 392 393 394 395 396 397 
44 15 43 17 45 393 392 398 399 350 351 343 342 400 401 402 403 
45 16 43 17 47 390 391 398 399 122 123 113 112 404 405 406 407 
$EndElements
