$MeshFormat
4.1 0 8
$EndMeshFormat
$PhysicalNames
1
2 1 "tanglecube_primal"
$EndPhysicalNames
$Entities
0 0 1 0
1 -2.265122802802754 -2.262163000035049 -2.258930927458766 2.250240042674145 2.261666439922251 2.262670555351526 1 1 0 
$EndEntities
$Nodes
1 728 1 728
2 1 0 728
1
2
3
4
5
6
7
8
9
10
11
12
13
14
15
16
17
18
19
20
21
22
23
24
25
26
27
28
29
30
31
32
33
34
35
36
37
38
39
40
41
42
43
44
45
46
47
48
49
50
51
52
53
54
55
56
57
58
59
60
61
62
63
64
65
66
67
68
69
70
71
72
73
74
75
76
77
78
79
80
81
82
83
84
85
86
87
88
89
90
91
92
93
94
95
96
97
98
99
100
101
102
103
104
105
106
107
108
109
110
111
112
113
114
115
116
117
118
119
120
121
122
123
124
125
126
127
128
129
130
131
132
133
134
135
136
137
138
139
140
141
142
143
144
145
146
147
148
149
150
151
152
153
154
155
156
157
158
159
160
161
162
163
164
165
166
167
168
169
170
171
172
173
174
175
176
177
178
179
180
181
182
183
184
185
186
187
188
189
190
191
192
193
194
195
196
197
198
199
200
201
202
203
204
205
206
207
208
209
210
211
212
213
214
215
216
217
218
219
220
221
222
223
224
225
226
227
228
229
230
231
232
233
234
235
236
237
238
239
240
241
242
243
244
245
246
247
248
249
250
251
252
253
254
255
256
257
258
259
260
261
262
263
264
265
266
267
268
269
270
271
272
273
274
275
276
277
278
279
280
281
282
283
284
285
286
287
288
289
290
291
292
293
294
295
296
297
298
299
300
301
302
303
304
305
306
307
308
309
310
311
312
313
314
315
316
317
318
319
320
321
322
323
324
325
326
327
328
329
330
331
332
333
334
335
336
337
338
339
340
341
342
343
344
345
346
347
348
349
350
351
352
353
354
355
356
357
358
359
360
361
362
363
364
365
366
367
368
369
370
371
372
373
374
375
376
377
378
379
380
381
382
383
384
385
386
387
388
389
390
391
392
393
394
395
396
397
398
399
400
401
402
403
404
405
406
407
408
409
410
411
412
413
414
415
416
417
418
419
420
421
422
423
424
425
426
427
428
429
430
431
432
433
434
435
436
437
438
439
440
441
442
443
444
445
446
447
448
449
450
451
452
453
454
455
456
457
458
459
460
461
462
463
464
465
466
467
468
469
470
471
472
473
474
475
476
477
478
479
480
481
482
483
484
485
486
487
488
489
490
491
492
493
494
495
496
497
498
499
500
501
502
503
504
505
506
507
508
509
510
511
512
513
514
515
516
517
518
519
520
521
522
523
524
525
526
527
528
529
530
531
532
533
534
535
536
537
538
539
540
541
542
543
544
545
546
547
548
549
550
551
552
553
554
555
556
557
558
559
560
561
562
563
564
565
566
567
568
569
570
571
572
573
574
575
576
577
578
579
580
581
582
583
584
585
586
587
588
589
590
591
592
593
594
595
596
597
598
599
600
601
602
603
604
605
606
607
608
609
610
611
612
613
614
615
616
617
618
619
620
621
622
623
624
625
626
627
628
629
630
631
632
633
634
635
636
637
638
639
640
641
642
643
644
645
646
647
648
649
650
651
652
653
654
655
656
657
658
659
660
661
662
663
664
665
666
667
668
669
670
671
672
673
674
675
676
677
678
679
680
681
682
683
684
685
686
687
688
689
690
691
692
693
694
695
696
697
698
699
700
701
702
703
704
705
706
707
708
709
710
711
712
713
714
715
716
717
718
719
720
721
722
723
724
725
726
727
728
-1.617734955539262 -1.715927297331586 -2.257414351515795
-1.209101113309321 -1.589253370158686 -2.218821138512111
-1.532189236086088 -1.356308304000429 -2.246701508867884
-1.273047510816819 -1.925120925886248 -2.16172080114141
-1.921292114236312 -1.438565662883021 -2.19362487569686
-2.003922882796924 -1.806419002831292 -2.125436988305851
-1.668915574680431 -2.052361910729301 -2.117591399762226
1.461558723203342 0.8052023922450975 -0.8118332146748749
1.730762773348175 0.592991066512467 -1.02697060533954
1.324569678302534 0.5962330982735078 -1.077084798634406
1.081029894216154 0.8992483414377982 -0.9888914415732878
-0.9946848304945271 2.158354734897038 1.610826712540973
-1.24802977943285 2.204037353776866 1.338274374034762
-0.7807173300267115 2.04053355013986 1.311602781026772
-0.4122082482081175 1.908884280206991 1.428004792896982
-0.6554888889763207 2.016113131427657 1.721657076909912
1.531956012185736 -1.762947921505938 -2.249588089772316
1.869083939304911 -1.670017145773572 -2.21918237577008
1.650040511087032 -1.365047853647355 -2.246898346132718
1.7510924775918 -2.037789904592809 -2.115276244875835
1.259596807181204 -1.558745099734056 -2.229795630299399
1.300360714366735 -2.013315526687408 -2.114318153575337
2.045473631997955 -2.08876766570645 1.302957845909367
1.757320899365171 -2.246816545920167 1.472117026705307
2.078609255154222 -2.0950406406947 1.66056676182319
2.068059075500678 -1.396793054327446 -2.090100781426775
2.103724457298603 -1.835026133468254 -2.019367968198693
-1.578857595976632 2.054781211896022 -0.7098917009002029
-1.944256779147573 1.921909699442789 -0.7270784581386712
-1.791037510396362 2.146550658023074 -1.040877229567408
-0.8563230463799666 -2.067789029325882 1.295433796528361
-1.203074278955577 -2.198405569188379 1.366818932286525
-0.9247933282100522 -2.124979314321268 1.7108664531269
-0.5986820428743348 -2.008583585982824 1.550463759022016
-1.202029867747259 -1.237737447609686 -2.171064593370628
-0.8799158332062316 -1.778663816192106 -2.09265229918013
-0.8637486139746074 -1.393529764166007 -2.094610497434814
1.143653610363763 -2.089560078859642 -1.034210282983835
0.8948968442560373 -1.896955858283638 -0.8999699649576459
1.202987885845441 -1.937334428840364 -0.6583198678808901
1.503941189149041 -2.105062599613478 -0.8493550166784994
0.09726706692632185 -1.774925085806431 1.389450330357501
0.1447068250939156 -1.493957364385027 1.282264715927387
-0.2321618511785096 -1.55110773834194 1.233432971537832
-0.06627816755848248 -1.291482093094763 1.52576559847493
-0.3917387903790748 -1.225292162491246 1.3534579258972
-0.2820026033638062 -1.852871880415565 1.424906317092649
1.251331858547517 -1.197359484281285 -2.173170852084927
0.9127504079761843 -1.391426519984496 -2.112587398812905
0.9805984277692045 -1.788894446803592 -2.126764424145646
1.697144322869352 2.054001729734236 -0.7332707714819398
1.26806684318323 2.060027763192784 -0.8575593845381452
1.56335287677358 2.172392800342332 -1.038346044543053
1.239792113593502 0.2252041836389741 1.629199907812248
1.419975165784193 0.02787885920437251 1.347023457955145
1.351736219469141 0.3715551234343398 1.241610891322665
1.073230239560125 0.5023829935553146 1.488619686059285
1.561195590464938 -1.021795705336054 -2.167231190843705
1.919087493066694 -1.049373331452568 -2.096617101017069
-1.498654382486299 -2.02836961645394 -0.6567277330766503
-1.174469139700673 -2.034340521090342 -0.8747806702845111
-1.558803390929558 -2.160777324230309 -1.001550419639297
-1.876032139952888 -2.019579735540626 -0.8069253538617088
-1.960145183256553 0.6096789503940503 1.308916277259
-2.131386003387428 0.9382622132817758 1.451909851181498
-1.998131602062346 0.5997750355163851 1.695964836421057
-1.854386616895926 0.2786700018962067 1.43236384943608
-1.757690674195927 -1.088349777757393 -2.16962178799941
-2.198278977599524 -1.515439162964786 -1.926594594760967
-2.085172059482201 -1.121338744434279 -1.977636854971772
-2.054907822291215 -1.050962851311645 -1.036059264963086
-1.820564914702287 -0.7700823940136929 -0.9338538026481661
-1.900781489011488 -1.115419876014435 -0.6831800134307214
-2.092687888855679 -1.391871155017393 -0.8595974073549504
-2.236597669725252 1.506583236365958 1.305003770317656
-2.240252903824034 1.807529015355195 1.538801824076011
-2.237470055724379 1.302617228457677 1.628882296349829
-1.414639302273941 -0.9449209267112254 -2.128232316453571
1.867928989963605 0.8871266437968977 -0.8702016477871213
-0.1496157993970602 1.332920795435149 1.401117736948234
0.1225348945344723 1.526660352021451 1.279132901149669
-0.2388104825702417 1.663069202077466 1.243143415345379
0.03801116159018458 1.817590525662333 1.500741498254224
-1.587694902985384 1.368045390225914 -2.249488512944796
-1.211792096344533 1.440546616530954 -2.211017747847291
-1.50355657887278 1.776575512664155 -2.245454612457567
-1.301637507811898 1.093547265406901 -2.155168865250205
-1.887508625206601 1.62622796977678 -2.215462228707079
-1.922691892842303 1.198293514652987 -2.143399405945244
-1.619084292440983 0.9572230897676685 -2.145707549848548
-1.770322786364261 0.6342632263358596 -1.01711855710657
-1.870372838771224 0.9485000711415009 -0.8112838417589194
-1.500039017430588 0.7915399788158773 -0.8137265329508608
-1.331206928238318 2.223291559878881 1.781057311047742
-1.681399349490129 2.26166643992225 1.601189914839537
1.492228408781019 1.787683582159792 -2.242337553899173
1.215887670920965 1.480047139633109 -2.215965846050874
1.660589251171092 1.472907790574923 -2.258930927458766
1.457129749322499 1.164446517898926 -2.201142562744669
1.865807761767351 1.842345244252924 -2.18577473689093
2.028449338445425 1.451085676800124 -2.132216274486197
1.820000352422988 1.109234968544653 -2.159374332051044
0.838402863287332 1.212944669141325 -0.9318757560224048
1.212122541437987 1.088458814314637 -0.6789494119868188
1.429593992967448 -2.254769625518114 1.659711040942178
1.399125362293324 -2.225489374788201 1.30395851977942
1.072148240100306 -2.182681939242351 1.580513781453748
1.17941676858445 1.905805612454611 -2.146341675784279
1.133578150258552 1.069755008608413 -2.099248594753811
0.8936876914581516 1.704378027886857 -2.114876451176855
0.8438018508172352 1.338379988536728 -2.074363470556769
-2.103246416281427 1.23591795504162 -0.991043135324958
-2.101533461333366 1.588034963966853 -0.830551142383947
-1.940560643467787 1.263272583598485 -0.6095414488669276
-1.900424088401296 -2.206324980049501 1.681632950983913
-1.580328663110283 -2.262163000035049 1.478130078593335
-1.932098655369511 -2.168406115894518 1.318253688713582
-2.173600034794811 -1.975136252403614 1.641763540406869
-1.111660121317944 1.76330368918437 -2.175252800005402
-0.8140228297618661 1.507597783030669 -2.092087196638296
-0.951600411448762 1.152792043329163 -2.059732685353392
0.7949990668427601 1.57965914050793 -0.7998249298528712
0.5264949694743165 1.501533933517202 -1.050695040351339
2.241989207456513 -1.375597184622085 1.715888970176635
2.168423108133752 -1.060939443751502 1.428155909178969
2.237002669935724 -1.42659942615899 1.34890329765675
2.248172412285673 -1.767013822192836 1.641901406612567
-1.871702041531198 1.997661057331189 -2.104542023022016
-2.149666281894273 1.446072488470453 -2.002812832871892
-2.175882882105055 1.790631830885472 -1.925503752299341
1.111450174497349 -1.130807807896625 -0.7318102072534833
0.8377140805126712 -1.345374184551992 -0.836611188547803
0.9264110278148118 -1.019821189464835 -1.021228436951325
1.282921036036135 -0.855426318755108 -0.8608605122468501
-2.04416987321855 -0.6953683742541021 1.660438282629426
-2.100259014745685 -0.8805076603754353 1.389803460058296
-1.914826934603304 -0.4991750410112325 1.332991387407124
-1.754861928871088 -0.1342608066946702 1.35138851558178
-1.897507974614792 -0.3545262208354047 1.678849942784794
-1.162312793169386 2.066049412660813 -2.020333682291966
-1.521354409384099 2.114501709102309 -2.059313869771171
-1.582196019563208 -0.9014246307344913 -0.6888563942618562
-1.451222352013631 -0.6169114541329963 -0.9912027349090653
-1.261361684383435 -0.9122733479102719 -0.8196257635614904
2.12319361426736 2.013950644461229 1.339781393311864
2.250240042674145 1.665684914257692 1.396358056001466
2.173258978414625 1.961265415470495 1.715039474417922
1.886219328050353 2.215338164459548 1.521820613577129
1.583575414215831 2.120690158142593 -2.054421351414905
-1.238737859348863 1.067625508732709 -0.6771345452979604
-0.908408871413924 1.152557234394185 -0.9137557278082953
-1.163075364630269 0.8270152090467455 -0.9857350100315281
-2.057093084502402 2.098031795184864 1.754610618663758
-2.016751567510278 2.126277291522348 1.364004971464682
2.16806194843925 1.745768803695624 -1.960755509699068
2.020493451614882 2.073525467318559 -1.897103096437942
-0.6574323803856336 -1.409278773805313 -0.9734141283085628
-0.8472676904811625 -1.791172414954957 -0.8312943324284183
-0.921798407282071 -1.470170655688374 -0.6871808562194558
-0.9706169146007706 -1.149367467517626 -0.8543829646998881
-2.111762419005734 -1.009945536278779 1.859851363893469
-2.217267077584248 -1.218607646795052 1.488179978262877
-1.369467591745103 -2.177397682470479 -1.933905223459232
-1.011987872417665 -2.094990364616916 -1.896588441183911
1.605270052833284 -0.8473847933338921 -0.7474390633408314
1.57221881890103 -0.5795769679478279 -0.9973476669142181
1.908726793983021 -0.9002525162868612 -0.9111184096023811
2.046734345845819 -1.27582745974669 -0.8206835716077849
1.810566739449451 -1.095200443863133 -0.585575584557299
-1.255214298234363 -0.2056259296004897 1.653663437467943
-1.39892046625119 -0.1643550131122456 1.328728735901221
-1.181389389509636 -0.4885102073622497 1.309454790552121
-0.8781527281144894 -0.7546705483845952 1.419820667771642
-1.044218698234667 -0.5388918354877645 1.668552630615951
-1.966671074298646 -2.109619108078441 -1.905001974238575
-2.202961033991701 -1.875209189759212 -1.765373751958626
1.818526847856063 -0.1060139373055506 1.680374622813859
1.736545081352846 -0.0248411863791086 1.356004702596987
1.871869878636383 -0.4095561959358933 1.33826771139572
2.05341968269508 -0.7123325946066918 1.522490349854907
1.902651791241719 -0.4261091743672288 1.75098307096188
-1.002942002464533 -1.002068899260135 -2.018617891481491
1.048961973356828 1.398190881937361 -0.5774777634374413
-1.536961799817475 0.1869979656505831 1.255201392750195
-1.253129572834184 0.1868207568229203 1.550827551868304
1.30790589508363 -0.7906062424868356 -2.043708299985934
0.9847087271790174 -0.9847391964541913 -2.001351210554984
1.980984432112882 1.549661583552953 -0.5327040264718599
2.02374163485496 1.852203150900132 -0.7867653915905718
2.132998181087681 1.504378515479625 -0.9268504520941251
1.962181245204386 1.206730175906634 -0.700451662149193
0.9362220192892022 0.7033651839889218 1.743970052660532
0.8708284119322218 0.8062516602555373 1.340502848293925
0.6367020039419472 0.9482776751585522 1.584926061458563
-1.873395792054217 -0.7927315150100083 -2.01448927432352
0.6491862249649634 -1.631361316169014 -0.9415105139284081
0.9529448367323388 -1.650396057904558 -0.6407462871942333
2.228253964158317 1.278035128233455 1.466451878016228
2.248566209210618 1.57396397876568 1.773430293405282
1.506493969204167 0.7940924493622395 -2.084345119814676
-1.27777481182379 -2.225046666697634 1.713853081574513
2.13640258104033 1.146150808965265 -1.905802666315837
1.931352085077255 0.8136882199099892 -1.983653494439062
0.7312977072257698 -2.052655419629545 1.700058291474435
0.7257794292459315 -2.027429688293416 1.348994749216153
0.395813390376575 -1.92554144243675 1.57630246715505
-1.96063712413831 0.8430139797261246 -1.973183180433159
-2.172538146463221 1.138040460150492 -1.804203013731272
-1.142153261559253 -1.823419558986639 -0.5476351631312422
0.2888649919144834 -1.226426707206202 1.46826107203053
2.249093059018153 1.453842260341188 -1.733551697429557
-1.005920713462419 1.380315663745115 -0.6377525765231347
-0.6858855769221304 1.458635623316552 -0.9269321990840219
-0.3548195845881718 -1.223749062723505 1.7480431304731
-0.5964683986799429 -0.9830879375645132 1.588591850605384
-0.7854918529104119 1.887716602239376 -2.001937759434821
-0.8729152049761086 1.752705833506697 -0.7759328895901225
0.4926454145205135 -1.118880427383478 1.744940098037416
0.5899384125289393 -1.060516590559423 1.358722253971229
0.7443858805004244 -0.8511307322202452 1.613729537079055
0.8137624319185951 2.011423061481147 -1.894106241554451
1.199979138759911 2.148631129930817 -1.913183799686257
1.076810740859111 1.792763551785449 -0.5875063559611872
0.9318194249513972 1.912727152378201 -0.88532625716889
1.41696582341249 1.942230559284679 -0.4940642647443487
0.2856756578355631 1.219554151334636 1.49150252317038
-1.663759538901236 -2.251445780481018 -1.739989174652883
1.53344266984387 -1.958960701025212 -0.4827774285032023
1.861516063715195 -1.991887766908968 -0.7308831104628842
2.140621576021867 -1.04036188405307 1.810379692628325
1.525641093428258 -2.220629580258435 -1.872102584713926
1.937976450753957 -2.165714950054277 -1.805178254859031
-1.933666774700119 -1.454217654646442 -0.4529450671670109
-2.044619221695374 -1.713212947109759 -0.7182504760154306
1.058225294764481 -2.13826495150033 -1.834868589908959
1.615514304160192 1.018235509205096 -0.5565957603077889
1.984314455074254 0.5953514381687112 1.403812603966082
1.87638545770752 0.2681823941365929 1.615910290252455
1.955932277963208 0.6076538264813102 1.818724032310394
2.123716917048332 0.8927650816615813 1.611012494746568
2.170024865063261 -1.126004534254985 -1.800857548665111
2.247733714879136 -1.532629195694327 -1.77273350636745
-2.090172430111452 0.939168110664603 1.848338039694155
1.694130252052023 -0.7039884409958421 -2.042535593457588
-0.3195942194781548 1.824529665279204 1.793423004469162
-1.195576790323307 -0.6674345765220729 -1.938572762721575
-1.548818618765185 -0.6234461868819619 -2.018780147669936
2.059323450488761 -1.672470179977358 -0.7366393458668187
1.937576937160727 -1.436686521333677 -0.4717156868226048
-0.009904035390854469 -1.798957861081441 1.702359905318982
-0.3777148418014147 -1.843480138989203 1.807040752377143
-1.197047059077166 0.7799762115452447 -1.998584568606106
-1.607803121404955 0.6178180994277255 -2.01668696628372
-1.270913544648767 -1.161028708281747 -0.5477154797963906
-0.8538346745980877 -0.8450869382613975 1.813904845460715
-1.948173889547386 1.595019680761041 -0.4520426661128377
1.242181224642299 -0.3139289213557902 1.408213118377782
1.308031583329385 -0.1057269031474843 1.692605068083833
1.198336416126087 -0.4312082172827267 1.783390309802122
1.002000476459897 -0.58574128852067 1.501852538447478
-1.733911816088882 2.240703240772365 -1.75570896831217
-2.063431907965372 2.089972678679089 -1.763249314337797
1.130743450280934 -1.375693354009868 -0.494057352235354
-1.800672843013002 -0.003858502148339368 1.698780029921383
0.5879523850449326 -1.570188573736322 -2.00477622824941
0.7362093489144571 -1.935841550433425 -1.936237474132518
1.414110182887233 -1.091391018991731 -0.5166577529231896
0.6620974989672568 -1.157967619293493 -1.914299142662929
-1.60973959923993 1.047813753174027 -0.5189838308931728
-1.769554576678855 0.3304319910850061 1.847707171948747
2.015582476100559 -0.7526367083485885 -1.837765209888421
1.804968538289587 1.866993942312839 -0.4187392902141051
1.142148734524268 0.7199769054287676 -1.939717705575756
0.8059095695541214 0.9955916041138136 -1.902012400333302
-1.836080969417242 -1.863468862297979 -0.457987250682327
-2.217881955850196 -1.372194917981012 1.829519374970004
-2.265122802802753 -1.623352055039767 1.548096160071508
0.5563679160232289 1.637168307572078 -1.988922676736099
-1.338932276914687 2.236477041391789 -1.713655114604713
2.182734639831238 1.194089872333598 1.821518762052138
1.753765950924631 2.240108069633619 -1.739854404819253
1.398262195520894 2.252170820681645 -1.640469063323078
1.844501344186394 -1.798062120605619 -0.3658358496508308
-0.03896841845209897 1.331046473722926 1.709060741253748
-0.4175563925552664 1.122362482966353 1.563671587939419
2.199330186520896 -1.916112240097073 -1.685318178342044
0.7445840522913794 2.021163639727998 1.818662819710597
0.5310991251710171 1.97599284662322 1.503042092890906
0.9179752985734914 2.128585485400536 1.48971033614091
1.277679705458044 2.230480919844956 1.494168350204245
1.139642090482534 2.167744206652288 1.821847937427906
-0.5286400521757029 -1.561723888327985 -1.979817186399242
-0.6584547097776221 -1.964872988762182 -1.846642574536399
-1.59336568229737 -2.220215030971033 1.876991647757628
-0.6527286660340035 -1.14512971185469 -1.900437706902629
1.749382453667888 -2.211367857461241 1.860333334702398
1.742178399310176 0.5155557011827797 -1.94756927025577
1.42352264321697 0.3842346151529383 -1.895213701483028
-1.098309798034146 1.670656628933971 -0.4706373379141072
-1.195096006840743 1.974126194299774 -0.7335158107119429
0.2144958221851599 -1.364903332882479 1.795151718556302
-0.5639001847190428 1.247493664109782 -1.907708406821865
-0.8016590903469101 0.9212033659175463 -1.838293323642458
-1.745861806687021 1.882157498077238 -0.3760815205037437
0.9959340930789197 -0.7483033167863588 1.85873482781901
0.489443701508079 1.274044618797843 -1.880206802150759
-1.3885881583474 1.88669602012271 -0.3933766774353045
1.281626467611636 0.4936038384369084 1.886804802315731
-2.262881422784762 1.503006115585704 -1.62960808936475
0.3390186409430124 1.842626837193377 1.782748261251514
-0.458557991131477 1.629925607215547 -1.94862986940888
1.566438282744798 2.257823751134248 1.716569069316149
-0.9314034576393383 2.126393258473767 -1.716198973695496
-0.7380059160736545 -1.901002457378825 1.96807850945024
-2.220989924230146 -1.231525593540183 -1.659529634321243
-2.077280315875585 -0.7921157957615861 -1.698817950137576
0.4855535619865692 1.173759871442243 1.802996949776323
0.3220171570788055 1.472685854855736 1.883579041242499
1.081053863801926 -0.6079387931458583 -1.816406353396732
1.419130164817978 -0.4273777823473407 -1.912891026574445
-0.01261141763784788 1.659804382624124 1.815865579223557
2.236840529201867 1.823725161204169 -1.588038478941438
1.777490605929728 1.264902262214663 -0.3338775299232087
-2.21512431337997 1.639698251803138 1.886578223283109
-1.291072308961573 -2.236314170109273 -1.587323771260701
-1.645269238760498 -1.139705185053763 -0.4029251462092575
1.887158588306141 2.144750572548642 1.920673337261838
-2.264832175770277 -1.584340066255317 -1.520117996460425
-1.492619751137868 -1.88955064415292 -0.3259055416903143
-2.170580859872864 -1.720992815426665 1.964383253922916
-0.8638668268980672 -0.7930514975238219 -1.763848004156606
1.212313225703679 -1.707296779032638 -0.3303107114433045
-0.131528536738876 -1.510763166777292 1.832911630174535
0.7852984810911412 -0.8358186880952617 -1.702235312378194
-1.138608661900781 -1.460837162062239 -0.4280354936314244
1.985946474097603 -0.7411015263900376 1.878637388022841
-1.8308465821052 -0.4516203320817899 -1.864365730480958
-1.371919309641633 0.4576449441022686 1.910395657885452
-1.056251564978125 0.5064739016887653 1.587465482555501
-1.470275489441064 0.07421919051797887 1.811902076228095
1.798857895115497 -0.4036935795461429 -1.863601579250476
-1.323761557479 1.281484085703896 -0.3491919188912803
-0.7707106928406551 0.8265289090890786 1.620889674006159
-0.6332362568901642 1.105426304403646 1.858587865937892
-0.3898127261053693 1.424774295786641 1.898055924283581
-1.415184557439864 -0.3054517518937492 -1.85855359613762
1.366328733333586 1.261399101756987 -0.3281837085025666
1.342813990901474 -2.14868919947989 1.976939548600217
0.9862708473964027 -2.042576408012935 1.962044179542526
-1.300750920972211 0.4239530952053779 -1.858961661514695
-0.9963829076180429 0.6067319318299507 -1.692696913994935
0.2922461840220815 -1.705616535270562 1.864373593029561
0.6192341442043759 -1.829604045018613 1.955415321166826
2.111941307756446 0.8647206309072851 -1.640704827987106
1.981569442795148 0.5459640053329053 -1.660566426653744
-1.081852423411832 0.7039183162063467 1.891814594552978
-1.942334075932189 0.529366808362259 -1.770531954471117
-2.10687207704736 0.8448484795230006 -1.581966713486853
-1.736778944337124 1.286568451939482 -0.2381061830806266
0.8323539767350365 1.006792332312542 1.927279465129947
-2.222099116961023 1.861260578357686 -1.49042151590987
1.663816089138095 -1.223411070489497 -0.2772829204427032
-0.9703321551812514 2.022942384372693 1.977166606292274
-0.5393835482587889 1.962495925727407 -1.730241380291443
1.207880665411602 1.638247536489338 -0.2914620990093936
-0.6731614559900104 -1.174983964760014 1.930731377363865
1.318585511345455 -2.241408773228471 -1.576284551512125
1.715263382689884 -2.255308155675321 -1.498361529727602
-1.265312308349085 -1.662303463966135 -0.1890786921942413
0.7835047761178457 -1.066110354097873 1.933497635735273
-1.97745890490712 -2.172940656211815 -1.530210618713159
1.84111634303167 1.600742294298942 -0.138449245404783
1.561765280325036 0.1089495873828566 1.835536976074023
1.660380162587172 0.423267159963283 1.929716510692938
-0.9260827463037106 -2.134445259867875 -1.529225756863606
1.980180049381109 0.9392064937364351 2.005195988224618
0.4118092229644144 -1.881888044953332 -1.777392972296754
0.3570892344650938 -1.258030929474945 -1.786797613425366
0.2191553614657674 -1.590782017050483 -1.862239911393968
-1.404395637838925 -1.324440449684008 -0.1646063407240256
-0.9721679573556716 1.012397274775332 2.008756568360045
-1.68609918512841 0.26986144834942 -1.862838036485612
-2.10458872426522 1.286331011213319 2.021214757245712
0.8424183138457269 0.7552745712570931 -1.626857269231756
1.103438590566254 0.4654276918489625 -1.674103169013578
1.518391675921562 1.834739212705989 -0.1330856884601607
-1.962289202074387 -2.03931657626294 2.010191425557802
2.198707707187662 1.151618501321443 -1.465935900508368
1.341957192098556 -1.365793875109542 -0.1964833497064015
2.045398441612353 2.122150750325587 -1.477119569941685
-1.70253977349107 2.166111376805353 1.977188303066485
1.004781147522217 2.162055515905432 -1.575813023273748
1.476064138560426 -1.823925433411116 -0.1318586249090195
-1.862050088524638 -0.6596777963769631 1.955310511472802
0.7150076420593007 -2.056829256195048 -1.58274951664317
-1.80074669076654 -1.723840050195943 -0.1218495396845451
-1.758146039401662 -1.357800568368766 -0.1268567336615934
-1.310486678177393 -0.4850653512351331 1.897196443659595
-1.166427637311565 -0.8043510176098736 1.99732034985752
-0.3360750828528309 -1.220078405080153 -1.725852997262664
-0.3343489546951404 -1.860297385825004 -1.75178882064882
-0.1713174109244665 -1.558900149251298 -1.848530849275361
1.825747643502251 -1.496088194017719 -0.1123712775026691
-1.612747623419104 -0.3121637075990711 1.892228620941517
-1.093920521621648 -0.4677688637327128 -1.648599669607479
1.811993619526124 0.2032995898297596 -1.743494187073234
2.027609118717479 -1.980127213442618 2.007011194167229
0.4614453967775853 1.908066451517204 -1.773863901797181
0.1819389913672005 1.562462426076498 -1.851454204646703
-1.826424337973037 1.632726708566329 -0.07227813598279667
2.17485228110821 -1.648701483092865 1.972076561874847
0.6471216472646536 2.020907141456706 -1.47293638847292
-1.261984951666629 1.595610501989653 -0.1588165785903934
1.015371266837495 -2.146674795468706 -1.382237282465946
1.559633805056933 -0.3181696105548778 1.89512259214433
0.5187537008308208 -1.053247253010151 -1.517282925555517
-0.608136957641663 -0.9745278353184923 -1.550913293355008
1.76146872413292 -1.75943914279178 0.0601959158449024
2.114916460502698 -0.8824724061116967 -1.480410074451787
1.968007722348933 -0.5069036980185119 -1.522200545064083
0.5455115974565545 1.025525732154644 -1.59447959938243
-1.543248406197968 1.824440397228385 -0.01062321860936959
-1.196410729757388 -2.06703584050088 2.032914819085378
-0.1711199609697987 1.37103689549426 -1.782932082000801
-0.4429160348372091 1.103899220619529 -1.587339118170606
-0.1678019986150458 1.793293771902189 -1.752785539747052
1.597022192640674 1.290290993331554 0.00211308563119304
-1.739461294924724 0.6696531853730214 2.017407938251817
2.059162204787849 -2.097661481963438 -1.393614657885194
-1.485107204234473 1.30699115500756 0.05218881332801417
-0.593582703783238 -1.994101488540233 -1.450141108072659
-1.477541294827246 -1.812304251928213 0.05616808513789936
2.077657797021685 1.794127576510287 2.066399966172082
2.23093689624558 -1.298209327651536 -1.453327730092889
1.278664820133344 -1.547862984858685 0.1088434856353758
-0.6544147275909225 1.740413235277944 2.010492117722002
1.552444430207213 -0.06184133462406004 -1.828447788783321
1.219936610387888 -0.2633802099986593 -1.623451670713747
1.29613658626532 1.525843464348186 0.01982475589099223
1.446922687619741 2.120203779582105 2.043144565828116
1.290119428449133 0.1125496465193334 -1.659782574441808
1.61246307285317 -1.282451272622948 0.09126548963404779
-2.199561032169197 1.19141186362467 -1.392111507711721
0.1938030488459542 1.24922155006885 -1.600588316613623
-1.803745768925111 1.386168621076466 0.2020553268218541
2.054891144992294 -1.318255042537514 2.084319869488975
2.244916682070993 -1.708351223828635 -1.389193506007535
-1.264985624770422 -1.532773151574238 0.1631262758287594
0.5744543399661273 -1.436353188613809 1.982891377910892
-1.761609722733144 -0.1026210792988429 -1.767310648501819
-1.93757903142378 -0.4325977678111468 -1.527667135628635
1.193709748414813 0.8281158715416236 2.020405329601276
1.845236520731482 -0.1597068258679976 -1.609245186171582
-1.567135039204926 -1.245993541399518 0.2006595987240372
-0.5007803434724055 -1.537556806822289 1.966826814516346
-1.387237180075279 0.06973902079671829 -1.768305649408001
-1.207305908791933 0.3090074961177227 -1.488015691654113
-1.257963582811352 1.60242629421963 0.1716495381536697
1.677374346880721 -0.6619741907917202 2.027970471408654
-0.7356460363664618 0.8693208190002587 -1.494826027075481
1.738748803310024 1.806684715628418 0.1781338351906777
1.845987545865048 1.457588531334325 0.231379764072014
2.063066043979129 1.39397928436803 2.094187353734768
-1.968543267679684 2.163479034968029 -1.396023872861837
1.457979816673981 -1.849085386599234 0.2400810330676809
0.6529861547208369 1.726195528884964 2.013859451056031
-1.574370882619779 2.251706085190365 -1.383374871065246
-1.846409078415878 -1.493610321823893 0.2003669468629217
-1.757104395057958 -1.831516947591424 0.2760270441169095
-2.022915681487819 1.89716864726911 2.071399363788794
-1.624664787535649 -2.246898378881333 -1.356518822715397
-1.329905619102556 2.003806629865112 2.128279570140938
-2.188317834904306 -1.916042880254916 -1.384543349046882
1.376794745273214 1.814785521814241 0.244320982182751
1.334094354438648 -0.6914078842738105 2.00765854416947
0.04138586293474689 -1.823497071323006 -1.632923879508446
0.3744526184093682 -1.88370367645991 -1.403064081823411
1.887733679201594 -1.495484903144864 0.3196887288700282
1.017078520662261 -0.5814539693904616 -1.463492888427614
-1.825708191419328 1.792721757820025 0.3207515765028163
-1.271163782354987 -0.1527655010687346 -1.521327354343299
-1.42859909706822 1.88616483280516 0.3594513648606565
-1.014309732263033 -1.133662731328937 2.078294480848706
-1.859297667680606 0.2176559284611607 -1.537167844222229
1.329940146659497 1.299146032009951 0.3176874582306961
1.66858992571591 1.159563976837209 0.3840564577339429
0.7171985194042251 1.366496553116512 2.028452418433972
-1.961496677830639 0.5671015189502 -1.369805450129316
1.129432642842301 1.581795245549416 0.4065550796095491
1.03301786173087 1.936235748800108 2.080073151164499
2.238681894462381 1.493489003556892 -1.321302995206562
-1.668365700249972 1.11083967374282 0.4528199567727216
-1.295509818552198 1.272692089838949 0.3934266505802707
-2.010414334945169 -1.36098293983287 2.130256241366129
1.687663173030208 2.244734240993504 -1.371517938397693
-1.387954355241481 -1.894300470676838 0.4103432825463041
-0.2696157647045778 -1.827897204423198 -1.381278094935848
1.794571380813476 -1.87047353464713 0.4110976519260947
1.859291381723915 -1.002082167667443 2.109150119481695
0.03287159219627833 -1.312331986044384 -1.678374893055551
1.406996230107021 -1.210644131231716 0.3627542316390282
1.176862673415336 -1.775397345795847 0.449242376948184
1.131393797330895 -1.423498996460507 0.4598557674984031
-1.814597421381864 -1.022292168577243 2.133200776646595
0.259942081783373 -1.302494967635563 -1.370173763883072
1.767247216616379 -1.166541309058017 0.4535124210048669
1.620411272969225 0.7583611084340276 2.07290633769184
-0.8991509901544064 -0.7379970168826244 -1.408874295538448
-1.28303912274582 -1.247256882970661 0.4375977839712565
-1.085609375961785 -1.61850614035364 0.4711257228917282
0.1590347987705035 1.844506700181344 -1.615191385752565
1.942520912766741 1.722864137882504 0.4895329307667828
1.617690118361003 1.97558593415067 0.520652357731797
0.3396868850198211 1.809592643810365 -1.29822866154539
-1.867937294029261 -1.255569648707159 0.4874162774644237
-1.573727126414759 -1.021532245634911 0.5501785544205856
-0.7513739777630203 2.04792463337191 -1.386243942400056
-0.3806663983642894 1.882663044490297 -1.39312005887038
-1.968311313273641 1.452442855865042 0.5332630197334455
-1.827341212877241 1.020712283984172 2.128304019072838
-1.149704227988943 2.186578973461965 -1.378904642255391
-1.981518537137747 -1.632505099528331 0.5376780275260813
-0.8025421570806305 1.381746380901835 2.068008718727807
-1.085846651276335 1.640219412453374 0.4758967173898845
-1.88806118700655 1.524135758377443 2.214765534797885
1.934320160376224 1.284747337949128 0.5788523862132241
-1.592633019820005 -2.016077609286007 2.149769130649692
-0.1449543405872691 -1.338929833658095 -1.395809346188625
-0.4675628018092114 -1.205442060843548 -1.301626455199271
1.233905060162661 1.919233360210276 0.5971984478592776
1.655925830654865 -1.997648077191763 2.158912916535018
-2.153699591749915 -1.029064909812503 -1.397044150562111
-2.007914547571918 -0.7252658968745102 -1.288041072792782
1.451916851341925 -1.993627219209937 0.5916887882496787
1.133293398348699 -1.036739092031429 2.086867823979505
-0.1669655269375078 1.325020016572533 -1.402328577171613
-1.807868804711805 -1.962058078677388 0.6080710885358729
2.018732283957342 -1.698436269319698 0.6491659455393436
2.004358675597457 -1.31432916831246 0.69814763717204
-2.206815341117851 -1.376775433466103 -1.231409006163993
1.387457431073872 1.052911206370223 0.5795374481687086
1.069555250460814 1.246061803886584 0.6687843689838443
0.8011327213167051 -0.8896442951703097 -1.318976317054485
-1.648210458666604 2.023302974893935 0.6412590063823358
-2.001005729577678 1.823126934084176 0.7054655050996655
-1.771526680835257 -0.1090181044550653 -1.380880981825677
1.571021731307043 -0.9335323858796991 0.6535288774955681
1.232324689746138 -1.085326068319236 0.6641590448130679
-1.20673199498322 1.950803506643641 0.6792796502251534
-1.393554878803342 0.8864809544629817 2.103240438390183
1.881716385659403 0.4196857590507887 -1.348019710137052
1.755034929055595 0.06884132227222885 -1.370337488677926
1.711755662020721 0.9026304228503164 0.7203200251934415
1.02946169049858 0.65716866781016 -1.313880367109477
1.253499374928567 0.3402215978073327 -1.365772945034606
-1.304521377160966 1.012342673675915 0.6827177908587085
-1.010026601057783 1.313156703902591 0.6787985206782934
-1.050595577559514 0.632307082366795 -1.316085303499828
0.9100352178395854 1.63450758557177 0.6847365281818087
2.026000702209823 0.7868319316082251 -1.258965036296532
-1.113840065104992 -1.90374511910763 0.6892993942964712
-1.485944527472334 -2.067700332885756 0.7570645574500704
1.73801575967528 1.930234972867298 2.185209766102073
-0.05928208854138688 1.711213080906839 -1.330088962653357
1.78650550220487 -2.03513788020156 0.7461560720262665
1.250538011999941 -1.84533096206231 2.189107544744415
0.9230587875925229 -1.692247335296794 2.127281121454454
1.283849020955154 2.198287433353399 -1.270621413823168
-1.026559846202881 -1.305234705580043 0.6668351210051009
-1.238072497447055 -0.9811804762929054 0.7675649703571249
-1.849723989005563 -1.717379092080463 2.220083369813617
0.9132504748816617 -1.670716357956783 0.6911614750291318
1.111744752875995 -1.967780835233424 0.798350042091427
-1.538032149564811 -0.7289208774807115 2.061118931427391
0.7826637284820103 0.9513293593092581 -1.25757695710462
1.881286075608984 -0.9515841166149301 0.8220890159832405
-1.954477948989922 1.127016252759683 0.7600808026121494
-1.64986186355642 0.8315001397658495 0.7712586078618194
-2.221511214348489 1.553653117568265 -1.222136539462948
0.9371864051391919 -1.300675594361189 0.7649097798006822
1.078778754796359 1.209702300219139 2.126581242596204
-2.073070322995705 -1.378213196575883 0.8170284868515472
-1.901523430800995 -1.017583840464381 0.7830425505071567
-1.193322818902135 -0.4992387113872706 -1.283644449139448
1.902594560507803 1.981516267269461 0.7658701333314862
2.083650598950441 1.550412142712641 0.7848912666055301
-1.053270748760242 -1.774565345053254 2.154893021000602
-0.8371087959502174 -1.493834868066495 2.099534374587519
1.421828712434979 -0.04293444891918811 -1.344221534593653
-0.8054717499073401 -1.596252116628553 0.7897140015172921
0.5060921727751992 1.204501140244067 -1.263973843027248
1.479071048488023 2.113006663279763 0.8776429508577586
1.893784190987023 -1.668572814519816 2.210238556383005
-2.095889485090637 -1.768151259507233 0.8804171230096794
1.437062010385607 -2.21345726119487 -1.223966414389706
-2.123977210100717 1.486443625144048 0.9058714033423558
0.9227214530777016 -1.350483183742643 2.107822854624215
-1.232828576959334 -2.1769335886309 -1.229655805663509
-0.8536925911929932 1.715778099743364 0.773615198122831
0.04950694240796648 -1.643714992061226 -1.29635380573473
-1.60768962188029 -0.762715851892464 0.8328245320991388
-1.045722765932266 1.68188327670296 2.169193703783269
1.324130366654956 -0.3904504999495738 -1.249449661134984
2.010424837006764 1.102063471386366 0.8894229906589777
-1.685397627421246 1.866202349299458 2.218660902891763
1.726034960830393 -0.3072564278072507 -1.238477643875056
1.412076778980646 -2.126942367096094 0.9424569057264545
-2.043245233472563 0.8948202440517474 -1.174189912005296
1.281369022319423 0.8756567766731177 0.8417022394492405
0.2043783433426681 1.453219887656589 -1.276816769607461
1.011813853415006 1.958297568549157 0.8781879909904494
2.173934743531576 1.83877821662838 -1.181563573757207
-1.887898028640765 -2.077278161489403 0.9547743003542837
0.9496124573955247 2.076485913600883 -1.202077680000994
2.154111128848146 -1.540222200980824 0.9828365508080539
2.059558144869947 -1.923812808820123 0.9629174319719829
0.6949372654487228 -1.954436400260777 -1.19687587579887
-1.409936524970442 2.131828330959989 0.9574163636172702
-1.861561615854266 2.096066574109913 0.9696918910572916
1.761132034089839 1.1744987827626 2.192991367744514
-0.7680468833906324 -1.041368114797724 -1.166545104282877
-1.000072852065914 2.023319624485645 1.015011894300686
-0.5584566778821961 1.199367555080908 -1.217583921795483
-1.185846139887775 -2.096695456655302 1.015315904607498
-0.853576176111521 -1.908943133863713 0.9580392902246959
-1.427207393223341 -1.72910084427306 2.24692216547288
1.810922590685082 -2.158715882475749 -1.097792999866877
-0.8631278555928945 -1.183867253119524 0.9316809384708623
-1.410194385108551 -1.07591993993063 2.170378080143217
-0.8828781734657245 -2.02915792870613 -1.152396572169338
2.105285215404884 -1.160159896175153 1.061672655499354
-1.19827114614633 1.275344020753182 2.179046251137662
-2.165409048419972 -1.748500065765217 -1.068023839830353
1.376307369934407 -0.7624698809105237 0.8924779401219677
1.695001041281008 -0.620384619734462 0.9855154925990565
0.5935970427762024 -1.239817922893623 -1.145571858878616
-0.9832519199959783 1.022197068486458 0.9615595330001744
-1.295378725153026 0.7337488058032436 0.9707259615155459
1.373937059032266 1.790985155944985 2.228142885806452
1.929496792002767 -0.6642369128075332 -1.182110260938842
0.7639170018731738 1.336701000626231 0.9143797694404718
0.951943491877665 1.014005124951035 1.0010645727466
-1.461040191217294 0.108611154818486 -1.307366407274724
-1.475878496330947 -0.2751777980702621 -1.231036691052993
-0.7244625652844477 1.359040249887254 0.9384211900762091
-1.95360123858054 -2.108497480876299 -1.141878542393287
0.7864653829500515 -1.894462544581805 1.004308686471545
0.6598651007095656 -1.554194976117969 0.9288773321181195
-1.774071145954234 -0.4606574608704445 -1.166686725023221
1.060650169932897 -0.95014916047069 0.9572174330214268
1.42483601840749 1.061958363658277 2.168272847820867
-1.71035214546659 0.3295721440031744 -1.21453950558905
-2.150395879851183 1.846554030994347 1.10955118583229
1.758339089995365 1.570239848697421 2.251395729234075
-2.115051520280801 1.916149091156565 -1.096707536381576
-1.55646014363511 -2.19537082862493 1.117906285456332
2.112184359710301 -1.080835246753998 -1.160579822998615
-1.949449230285555 0.8423779826763264 1.032945923113581
-2.13898098843433 1.170999090332553 1.153186110189651
1.022712253228896 1.581280855325652 2.167723428248644
-1.379012212375616 0.5021720934725415 -1.122192328263674
0.6578142207504768 1.712834609499762 0.9605246100875041
1.684378103827629 -1.327037204324163 2.237865009248174
2.108474094437006 1.143859008459265 -1.085909012093498
1.74844604478715 -2.172624280695667 1.091944973328884
1.482683194250288 -1.021512244139091 2.162544268275351
0.6401016026599238 1.855371259539482 -1.094980144599216
1.880221476038325 0.7243826721934995 1.045984246136791
1.53400624400975 0.6119318499591627 0.9733517104731638
1.931384136633338 2.101532366587348 -1.082558482265205
2.136535615043459 1.813804771835506 1.031394630971049
2.176503649308107 1.3893950224272 1.107677861181024
-0.576850938022749 -1.802141162220626 -1.094746006630061
1.859253558300637 2.139440211748296 1.090239813663959
2.184336263361474 -1.490924100274393 -1.09119076212842
-1.315144626425023 -0.6702031109988225 1.016616167630174
-1.018472972599999 -0.8625183118442126 1.08901514323673
-0.8526281000487204 0.9431451359003703 -1.182689026105655
-2.106033052377784 -1.11845107457595 1.103519074591465
-1.908929115961962 -0.7480404282045685 1.063177623323599
-1.225391866583656 -1.418305469841273 2.211453815248507
1.142728810038079 -0.6973454583945049 -1.134903285083287
1.06491963996294 -2.111384092594174 1.175446661561727
0.7567285554412182 -1.171401806441464 1.048246540364668
-1.426446502567067 1.607857038322581 2.256880086682694
2.110592659653456 -1.896708865838065 -1.05477489385342
-2.208185897462609 -1.496255788918588 1.178240776850639
-1.634591002243428 -1.383255716678897 2.250430995307597
-1.658805972691911 0.5151943717277254 1.060192374914067
-0.5876729492588333 1.764757820331066 1.053911340357647
1.271267113601637 -1.405193699309929 2.219793698958393
-1.074187449297956 -0.8083085577207565 -1.088810545781028
-0.5435625007755769 -1.814600556580833 1.136252611810334
-0.5632880308684944 -1.428206900901142 1.046429307721886
1.985805111180535 -0.7834460410065467 1.164474081353699
-0.6303263781953934 1.832080087383581 -1.077123339000167
-0.3715423801143722 1.552081122868276 -1.154373523917361
-2.170679052879377 -1.889782489425696 1.243387085289586
1.535278733930369 -1.660895857168726 2.262670555351526
-0.9821989822377115 2.033946218493156 -1.056771546437514
1.175990361550829 2.138953764480713 1.148235935142391
1.562417079955142 2.233095764214242 1.275393770375576
-1.602181844617969 -0.4375035524694872 1.108517378578764
-1.380402383570375 2.156877791683251 -1.04796552626689
2.101231788671808 0.9823317455726172 1.240085663471009
0.770608563638403 1.987862913360461 1.183330214892767
-1.586970260310973 1.257699392474358 2.229607560667151
1.159995011111863 0.6805252961864805 1.134993918937608
0.3829237221639004 -1.608341526345613 -1.146752959229904
-0.3448562607240961 -1.541461902433027 -1.172696649500935
2.21377575133437 -1.783991633508777 1.285057966604608
1.217720343646226 -0.5999802868078556 1.159430645227661
0.627123052549483 1.1126412387455 1.241507683262897
0.4478874981451137 1.419762793829349 1.142324124886175
1.402135303327963 1.4213326452426 2.244248732999379
-1.634192157735476 2.226413071467899 1.248814596332126
1.556111488963358 0.3102205401669034 -1.191762353175506
-0.688908191912439 1.03956355270957 1.259820697324115
-0.9773502204656985 0.7502878636451886 1.264603360788103
-0.4530602571260685 1.353214937342868 1.17807020977336
0.4395383638208538 -1.780364051854813 1.18897078332808
0.4569409454646411 -1.380195178631197 1.157456751527066
-0.6966238112314396 -1.058189159969625 1.227635624070132
0.8956051142112356 -0.842249952571694 1.253863350146697
-1.267424063144213 0.4630500390757844 1.239727046552713
1.535615515898779 -0.3402085355241071 1.176487524403443
1.733988651871631 0.3459196149613049 1.219213114731525
0.3831722379225189 1.791764548832501 1.243859939678343
$EndNodes
$Elements
1 1472 1 1472
2 1 2 1472
1 3 2 1 
2 1 2 4 
3 1 5 3 
4 6 5 1 
5 1 4 7 
6 7 6 1 
7 10 9 8 
8 8 11 10 
9 14 13 12 
10 16 15 14 
11 14 12 16 
12 19 18 17 
13 17 18 20 
14 17 21 19 
15 22 21 17 
16 17 20 22 
17 25 24 23 
18 18 19 26 
19 27 20 18 
20 18 26 27 
21 30 29 28 
22 33 32 31 
23 31 34 33 
24 2 3 35 
25 36 4 2 
26 2 35 37 
27 37 36 2 
28 40 39 38 
29 38 41 40 
30 44 43 42 
31 45 43 44 
32 44 46 45 
33 42 47 44 
34 48 19 21 
35 49 48 21 
36 21 22 50 
37 21 50 49 
38 53 52 51 
39 56 55 54 
40 54 57 56 
41 19 48 58 
42 59 26 19 
43 19 58 59 
44 62 61 60 
45 60 63 62 
46 66 65 64 
47 64 67 66 
48 68 3 5 
49 5 6 69 
50 70 68 5 
51 69 70 5 
52 73 72 71 
53 71 74 73 
54 77 76 75 
55 78 35 3 
56 3 68 78 
57 9 79 8 
58 82 81 80 
59 83 81 82 
60 82 15 83 
61 86 85 84 
62 84 85 87 
63 84 88 86 
64 89 88 84 
65 90 89 84 
66 87 90 84 
67 93 92 91 
68 94 12 13 
69 13 95 94 
70 98 97 96 
71 99 97 98 
72 98 96 100 
73 98 100 101 
74 102 99 98 
75 101 102 98 
76 104 103 11 
77 11 8 104 
78 106 24 105 
79 105 107 106 
80 108 96 97 
81 97 99 109 
82 110 108 97 
83 97 109 111 
84 111 110 97 
85 114 113 112 
86 112 92 114 
87 117 116 115 
88 115 118 117 
89 85 86 119 
90 85 119 120 
91 121 87 85 
92 120 121 85 
93 123 103 122 
94 126 125 124 
95 124 127 126 
96 128 86 88 
97 88 89 129 
98 130 128 88 
99 88 129 130 
100 133 132 131 
101 131 134 133 
102 137 136 135 
103 139 138 137 
104 137 135 139 
105 140 119 86 
106 86 128 141 
107 86 141 140 
108 143 72 142 
109 142 144 143 
110 147 146 145 
111 145 148 147 
112 149 100 96 
113 96 108 149 
114 152 151 150 
115 150 93 152 
116 154 76 153 
117 153 95 154 
118 155 101 100 
119 100 149 156 
120 156 155 100 
121 159 158 157 
122 157 160 159 
123 136 162 161 
124 161 135 136 
125 163 7 4 
126 4 36 164 
127 164 163 4 
128 167 166 165 
129 169 168 167 
130 167 165 169 
131 172 171 170 
132 174 173 172 
133 170 174 172 
134 6 7 175 
135 176 69 6 
136 6 175 176 
137 166 134 165 
138 179 178 177 
139 181 180 179 
140 179 177 181 
141 35 78 182 
142 182 37 35 
143 183 122 103 
144 103 104 183 
145 184 171 138 
146 185 171 184 
147 184 138 67 
148 186 58 48 
149 48 49 187 
150 187 186 48 
151 190 189 188 
152 188 191 190 
153 193 57 192 
154 192 194 193 
155 195 78 68 
156 68 70 195 
157 197 196 39 
158 39 40 197 
159 199 198 146 
160 146 147 199 
161 99 102 200 
162 200 109 99 
163 197 132 196 
164 201 116 32 
165 32 33 201 
166 102 101 202 
167 203 200 102 
168 202 203 102 
169 72 73 142 
170 205 107 204 
171 204 206 205 
172 89 90 207 
173 208 129 89 
174 89 207 208 
175 61 158 209 
176 209 60 61 
177 45 210 43 
178 101 155 211 
179 211 202 101 
180 151 213 212 
181 212 150 151 
182 214 45 46 
183 46 215 214 
184 216 120 119 
185 119 140 216 
186 213 217 212 
187 219 210 218 
188 218 220 219 
189 108 110 221 
190 222 149 108 
191 221 222 108 
192 52 224 223 
193 225 51 52 
194 52 223 225 
195 226 80 81 
196 7 163 227 
197 227 175 7 
198 41 229 228 
199 228 40 41 
200 125 180 230 
201 230 124 125 
202 231 22 20 
203 20 27 232 
204 232 231 20 
205 74 234 233 
206 233 73 74 
207 171 185 170 
208 235 50 22 
209 22 231 235 
210 236 8 79 
211 79 191 236 
212 239 238 237 
213 237 240 239 
214 26 59 241 
215 242 27 26 
216 26 241 242 
217 224 122 223 
218 243 77 65 
219 65 66 243 
220 244 59 58 
221 58 186 244 
222 158 159 209 
223 245 83 15 
224 15 16 245 
225 246 182 78 
226 78 195 247 
227 78 247 246 
228 249 248 168 
229 168 169 249 
230 47 42 250 
231 251 34 47 
232 47 250 251 
233 90 87 252 
234 90 252 253 
235 253 207 90 
236 160 144 254 
237 254 159 160 
238 255 215 173 
239 173 174 255 
240 87 121 252 
241 256 29 113 
242 113 114 256 
243 258 55 257 
244 257 260 259 
245 259 258 257 
246 261 141 128 
247 128 130 262 
248 128 262 261 
249 263 131 132 
250 132 197 263 
251 264 67 138 
252 138 139 264 
253 265 49 50 
254 266 265 50 
255 235 266 50 
256 134 131 267 
257 267 165 134 
258 258 54 55 
259 268 187 49 
260 49 265 268 
261 92 93 269 
262 269 114 92 
263 67 264 270 
264 270 66 67 
265 59 244 271 
266 59 271 241 
267 189 51 272 
268 272 188 189 
269 42 206 250 
270 109 200 273 
271 274 111 109 
272 109 273 274 
273 275 234 63 
274 63 60 275 
275 162 277 276 
276 162 276 161 
277 110 111 278 
278 110 278 221 
279 144 142 254 
280 178 238 177 
281 279 140 141 
282 141 261 279 
283 93 150 269 
284 280 240 198 
285 198 199 280 
286 281 156 149 
287 149 222 282 
288 282 281 149 
289 229 248 283 
290 283 228 229 
291 80 226 284 
292 284 285 80 
293 286 232 27 
294 27 242 286 
295 248 249 283 
296 289 288 287 
297 291 290 289 
298 289 287 291 
299 36 37 292 
300 293 164 36 
301 36 292 293 
302 236 104 8 
303 294 115 116 
304 116 201 294 
305 37 182 295 
306 295 292 37 
307 122 183 223 
308 296 105 24 
309 24 25 296 
310 200 203 297 
311 298 273 200 
312 200 297 298 
313 217 300 299 
314 299 212 217 
315 210 45 301 
316 301 218 210 
317 121 120 302 
318 303 252 121 
319 121 302 303 
320 304 28 29 
321 29 256 304 
322 260 220 305 
323 305 259 260 
324 306 278 111 
325 111 274 306 
326 300 28 307 
327 307 299 300 
328 57 54 308 
329 308 192 57 
330 309 130 129 
331 129 208 309 
332 51 225 272 
333 288 83 310 
334 288 310 287 
335 120 216 311 
336 311 302 120 
337 28 304 307 
338 291 312 290 
339 313 216 140 
340 279 313 140 
341 275 233 234 
342 314 33 34 
343 34 251 314 
344 70 69 315 
345 316 195 70 
346 315 316 70 
347 263 267 131 
348 226 194 317 
349 318 284 226 
350 226 317 318 
351 186 187 319 
352 320 244 186 
353 319 320 186 
354 267 169 165 
355 321 310 83 
356 83 245 321 
357 155 156 322 
358 322 211 155 
359 191 188 323 
360 323 236 191 
361 76 77 324 
362 324 153 76 
363 163 164 325 
364 325 227 163 
365 326 142 73 
366 73 233 326 
367 327 147 148 
368 148 312 327 
369 69 176 328 
370 328 315 69 
371 60 209 329 
372 329 275 60 
373 277 118 330 
374 330 276 277 
375 182 246 331 
376 331 295 182 
377 332 197 40 
378 40 228 332 
379 45 214 333 
380 333 301 45 
381 187 268 334 
382 334 319 187 
383 335 209 159 
384 159 254 335 
385 180 181 336 
386 336 230 180 
387 337 247 195 
388 316 337 195 
389 326 254 142 
390 185 339 338 
391 340 170 185 
392 338 340 185 
393 341 271 244 
394 244 320 341 
395 150 212 342 
396 342 269 150 
397 344 343 285 
398 285 284 345 
399 345 344 285 
400 346 246 247 
401 247 337 346 
402 347 183 104 
403 104 236 347 
404 107 105 348 
405 349 204 107 
406 348 349 107 
407 350 253 252 
408 351 350 252 
409 252 303 351 
410 212 299 342 
411 352 250 206 
412 206 204 353 
413 353 352 206 
414 203 202 354 
415 355 297 203 
416 354 355 203 
417 332 263 197 
418 339 343 356 
419 339 356 338 
420 207 253 357 
421 358 208 207 
422 207 357 358 
423 114 269 359 
424 359 256 114 
425 194 192 360 
426 360 317 194 
427 361 262 130 
428 130 309 361 
429 169 267 362 
430 362 249 169 
431 363 16 12 
432 12 94 363 
433 364 311 216 
434 313 364 216 
435 365 223 183 
436 183 347 365 
437 366 214 215 
438 215 255 366 
439 367 235 231 
440 231 232 368 
441 368 367 231 
442 209 335 369 
443 369 329 209 
444 220 218 370 
445 370 305 220 
446 175 227 371 
447 371 176 175 
448 188 272 372 
449 372 323 188 
450 373 177 238 
451 238 239 374 
452 374 373 238 
453 164 293 375 
454 375 325 164 
455 365 225 223 
456 376 239 240 
457 240 280 376 
458 265 266 377 
459 378 268 265 
460 265 377 379 
461 265 379 378 
462 380 335 254 
463 254 326 380 
464 343 344 381 
465 381 356 343 
466 253 350 382 
467 253 382 357 
468 236 323 347 
469 77 243 383 
470 383 324 77 
471 384 274 273 
472 273 298 385 
473 273 385 384 
474 386 272 225 
475 225 365 386 
476 118 115 387 
477 387 330 118 
478 202 211 388 
479 388 354 202 
480 267 263 389 
481 389 362 267 
482 54 258 373 
483 373 308 54 
484 156 281 390 
485 390 322 156 
486 269 342 359 
487 95 153 391 
488 391 94 95 
489 222 221 392 
490 392 282 222 
491 228 283 393 
492 393 332 228 
493 394 139 135 
494 135 161 394 
495 266 235 395 
496 395 377 266 
497 233 275 396 
498 397 326 233 
499 233 396 397 
500 174 170 398 
501 399 255 174 
502 174 398 399 
503 292 295 400 
504 401 293 292 
505 402 401 292 
506 400 402 292 
507 403 283 249 
508 249 362 403 
509 170 340 404 
510 404 398 170 
511 246 346 405 
512 405 331 246 
513 263 332 389 
514 105 296 348 
515 406 298 297 
516 355 406 297 
517 275 329 396 
518 25 127 407 
519 407 296 25 
520 408 221 278 
521 278 306 409 
522 278 409 408 
523 410 304 256 
524 256 359 410 
525 127 124 411 
526 127 411 407 
527 221 408 412 
528 412 392 221 
529 299 307 413 
530 413 342 299 
531 404 264 139 
532 139 394 404 
533 235 367 414 
534 414 395 235 
535 380 369 335 
536 415 181 177 
537 177 373 415 
538 268 378 416 
539 416 334 268 
540 386 372 272 
541 258 259 415 
542 415 373 258 
543 295 331 417 
544 417 400 295 
545 418 393 283 
546 283 403 418 
547 340 270 264 
548 404 340 264 
549 419 241 271 
550 271 341 420 
551 271 420 419 
552 397 380 326 
553 115 294 387 
554 421 306 274 
555 274 384 421 
556 422 307 304 
557 304 410 422 
558 423 201 33 
559 33 314 423 
560 302 311 424 
561 425 303 302 
562 302 424 425 
563 422 413 307 
564 333 251 250 
565 250 352 333 
566 311 364 426 
567 426 424 311 
568 427 347 323 
569 323 372 427 
570 66 270 428 
571 428 243 66 
572 232 286 429 
573 429 368 232 
574 430 359 342 
575 342 413 430 
576 284 321 345 
577 318 321 284 
578 293 401 431 
579 431 375 293 
580 329 369 432 
581 432 396 329 
582 433 199 147 
583 147 327 433 
584 434 242 241 
585 241 419 434 
586 435 389 332 
587 332 393 435 
588 436 245 16 
589 16 363 436 
590 437 341 320 
591 320 319 438 
592 438 437 320 
593 439 365 347 
594 347 427 439 
595 312 291 440 
596 440 327 312 
597 406 437 298 
598 298 437 441 
599 441 385 298 
600 362 389 442 
601 442 403 362 
602 423 294 201 
603 443 309 208 
604 208 358 443 
605 439 386 365 
606 204 349 353 
607 444 409 306 
608 306 421 444 
609 445 410 359 
610 359 430 445 
611 124 230 446 
612 446 411 124 
613 447 286 242 
614 242 434 447 
615 369 380 448 
616 448 432 369 
617 218 301 449 
618 449 370 218 
619 450 346 337 
620 337 316 451 
621 451 450 337 
622 389 435 442 
623 192 308 452 
624 452 360 192 
625 341 437 453 
626 341 453 420 
627 380 397 454 
628 454 448 380 
629 455 333 214 
630 214 366 455 
631 456 382 350 
632 350 351 457 
633 457 456 350 
634 413 422 458 
635 458 430 413 
636 459 336 181 
637 181 415 459 
638 460 351 303 
639 303 425 460 
640 372 386 461 
641 462 427 372 
642 372 461 462 
643 463 280 199 
644 199 433 463 
645 464 261 262 
646 262 361 464 
647 393 418 465 
648 465 435 393 
649 466 287 310 
650 310 321 318 
651 310 318 466 
652 467 279 261 
653 261 464 467 
654 468 397 396 
655 396 432 469 
656 469 468 396 
657 153 324 470 
658 470 391 153 
659 227 325 471 
660 471 371 227 
661 468 454 397 
662 472 363 94 
663 94 391 472 
664 473 328 176 
665 176 371 473 
666 386 439 474 
667 474 461 386 
668 259 305 475 
669 475 415 259 
670 476 379 377 
671 477 476 377 
672 377 395 477 
673 478 418 403 
674 403 442 478 
675 345 321 245 
676 436 345 245 
677 319 334 479 
678 479 438 319 
679 480 422 410 
680 410 445 480 
681 251 333 455 
682 455 314 251 
683 346 450 456 
684 346 456 481 
685 481 405 346 
686 482 458 422 
687 422 480 482 
688 483 366 255 
689 255 399 483 
690 484 357 382 
691 456 450 382 
692 382 450 484 
693 485 439 427 
694 427 462 486 
695 486 485 427 
696 487 318 317 
697 317 360 487 
698 488 358 357 
699 357 484 488 
700 489 474 439 
701 439 485 489 
702 490 291 287 
703 287 466 490 
704 211 322 491 
705 491 388 211 
706 492 445 430 
707 430 458 493 
708 430 493 492 
709 494 161 276 
710 276 330 494 
711 281 282 495 
712 495 390 281 
713 432 448 496 
714 496 469 432 
715 333 352 301 
716 301 352 449 
717 401 402 476 
718 401 476 497 
719 497 431 401 
720 498 465 418 
721 418 478 498 
722 230 336 499 
723 499 446 230 
724 500 378 379 
725 379 402 500 
726 476 402 379 
727 501 442 435 
728 435 465 502 
729 503 501 435 
730 435 502 503 
731 504 394 161 
732 161 494 504 
733 378 500 505 
734 505 416 378 
735 506 478 442 
736 442 501 506 
737 507 374 239 
738 239 376 507 
739 331 405 508 
740 508 417 331 
741 448 454 509 
742 510 496 448 
743 448 509 510 
744 463 376 280 
745 511 408 409 
746 409 424 426 
747 444 424 409 
748 409 426 511 
749 512 462 461 
750 461 474 513 
751 513 512 461 
752 490 440 291 
753 408 511 514 
754 514 412 408 
755 454 468 515 
756 516 509 454 
757 454 515 516 
758 270 340 338 
759 270 338 428 
760 364 313 517 
761 518 426 364 
762 517 518 364 
763 519 480 445 
764 445 492 519 
765 520 383 243 
766 243 428 520 
767 313 279 521 
768 521 517 313 
769 468 469 522 
770 522 515 468 
771 344 345 523 
772 523 381 344 
773 467 521 279 
774 458 482 524 
775 524 493 458 
776 324 383 525 
777 525 470 324 
778 402 400 500 
779 526 486 462 
780 462 512 526 
781 527 387 294 
782 294 423 527 
783 528 500 400 
784 400 417 529 
785 529 528 400 
786 474 489 530 
787 530 513 474 
788 531 348 296 
789 296 407 531 
790 316 315 532 
791 533 451 316 
792 316 532 533 
793 465 498 534 
794 534 502 465 
795 305 370 535 
796 535 475 305 
797 424 444 536 
798 536 425 424 
799 469 496 537 
800 537 522 469 
801 447 429 286 
802 538 498 478 
803 478 506 539 
804 539 538 478 
805 315 328 540 
806 540 532 315 
807 485 486 541 
808 542 489 485 
809 485 541 542 
810 352 353 449 
811 334 416 543 
812 543 479 334 
813 544 482 480 
814 480 519 545 
815 545 544 480 
816 336 459 499 
817 450 451 546 
818 546 484 450 
819 547 506 501 
820 501 503 548 
821 548 547 501 
822 308 373 374 
823 308 374 507 
824 507 452 308 
825 437 406 453 
826 438 441 437 
827 549 524 482 
828 482 544 549 
829 550 338 356 
830 356 381 550 
831 406 355 551 
832 552 453 406 
833 551 552 406 
834 486 526 553 
835 553 541 486 
836 554 384 385 
837 385 441 555 
838 385 555 554 
839 556 492 493 
840 493 524 557 
841 557 556 493 
842 345 436 523 
843 558 457 351 
844 351 460 558 
845 559 530 489 
846 489 542 559 
847 487 466 318 
848 355 354 560 
849 560 551 355 
850 496 510 561 
851 562 537 496 
852 496 561 562 
853 327 440 563 
854 563 433 327 
855 564 511 426 
856 426 518 564 
857 565 534 498 
858 498 538 565 
859 349 348 566 
860 567 353 349 
861 566 567 349 
862 282 392 568 
863 568 495 282 
864 569 510 509 
865 509 516 570 
866 570 569 509 
867 330 387 571 
868 571 494 330 
869 457 481 456 
870 572 503 502 
871 502 534 573 
872 573 572 502 
873 398 404 574 
874 574 399 398 
875 575 421 384 
876 384 554 575 
877 576 539 506 
878 506 547 576 
879 354 388 560 
880 577 519 492 
881 492 556 578 
882 578 577 492 
883 550 428 338 
884 579 361 309 
885 309 443 579 
886 503 572 580 
887 580 548 503 
888 360 452 581 
889 581 487 360 
890 500 528 505 
891 515 522 582 
892 583 516 515 
893 582 583 515 
894 348 531 566 
895 405 481 584 
896 584 508 405 
897 512 513 585 
898 586 526 512 
899 585 586 512 
900 587 423 314 
901 314 455 588 
902 314 588 587 
903 441 438 589 
904 589 555 441 
905 590 561 510 
906 510 569 590 
907 567 449 353 
908 591 444 421 
909 421 575 591 
910 513 530 592 
911 592 585 513 
912 593 407 411 
913 411 446 593 
914 511 564 514 
915 522 537 594 
916 594 582 522 
917 588 455 366 
918 366 483 588 
919 367 368 595 
920 595 414 367 
921 596 545 519 
922 519 577 596 
923 370 449 597 
924 597 535 370 
925 325 375 598 
926 598 471 325 
927 524 549 599 
928 599 557 524 
929 574 404 394 
930 504 574 394 
931 476 477 600 
932 600 497 476 
933 601 570 516 
934 516 583 601 
935 602 436 363 
936 363 472 602 
937 438 479 603 
938 603 589 438 
939 604 553 526 
940 526 586 604 
941 391 470 605 
942 605 472 391 
943 606 420 453 
944 453 552 606 
945 534 565 607 
946 607 573 534 
947 387 527 571 
948 608 443 358 
949 358 488 608 
950 609 542 541 
951 541 553 609 
952 610 536 444 
953 444 591 610 
954 530 559 611 
955 611 592 530 
956 322 390 612 
957 612 491 322 
958 537 562 613 
959 613 594 537 
960 593 531 407 
961 392 412 614 
962 614 568 392 
963 538 539 615 
964 616 565 538 
965 615 616 538 
966 415 475 459 
967 395 414 617 
968 617 477 395 
969 618 549 544 
970 544 545 619 
971 544 619 618 
972 376 463 620 
973 620 507 376 
974 417 508 621 
975 621 529 417 
976 622 599 549 
977 549 618 622 
978 383 520 525 
979 623 460 425 
980 425 536 623 
981 624 562 561 
982 561 590 625 
983 561 625 624 
984 626 527 423 
985 423 587 626 
986 368 429 627 
987 627 595 368 
988 569 570 628 
989 628 590 569 
990 629 483 399 
991 399 574 629 
992 375 431 630 
993 630 598 375 
994 539 576 631 
995 631 615 539 
996 381 523 632 
997 632 550 381 
998 328 473 633 
999 633 540 328 
1000 547 548 634 
1001 635 576 547 
1002 547 634 635 
1003 470 525 605 
1004 416 505 636 
1005 636 543 416 
1006 556 557 637 
1007 638 578 556 
1008 556 637 638 
1009 440 490 639 
1010 639 563 440 
1011 640 419 420 
1012 420 606 640 
1013 641 559 542 
1014 542 609 642 
1015 642 641 542 
1016 481 457 643 
1017 481 643 644 
1018 644 584 481 
1019 557 599 645 
1020 645 637 557 
1021 567 597 449 
1022 646 473 371 
1023 371 471 646 
1024 572 573 647 
1025 648 580 572 
1026 647 648 572 
1027 428 550 520 
1028 649 546 451 
1029 451 533 649 
1030 548 580 650 
1031 650 634 548 
1032 452 507 651 
1033 651 581 452 
1034 484 546 652 
1035 652 488 484 
1036 545 596 653 
1037 653 619 545 
1038 654 463 433 
1039 433 563 654 
1040 655 464 361 
1041 361 579 655 
1042 656 613 562 
1043 562 624 656 
1044 602 523 436 
1045 657 434 419 
1046 640 657 419 
1047 577 578 658 
1048 659 596 577 
1049 577 658 659 
1050 660 490 466 
1051 466 487 660 
1052 661 643 457 
1053 457 558 661 
1054 662 611 559 
1055 559 641 662 
1056 446 499 663 
1057 663 593 446 
1058 388 491 664 
1059 664 560 388 
1060 565 616 665 
1061 665 607 565 
1062 666 459 475 
1063 475 535 666 
1064 412 514 667 
1065 667 614 412 
1066 553 604 668 
1067 669 609 553 
1068 668 669 553 
1069 654 620 463 
1070 390 495 670 
1071 670 612 390 
1072 586 585 671 
1073 672 604 586 
1074 586 671 672 
1075 490 660 639 
1076 431 497 673 
1077 673 630 431 
1078 585 592 674 
1079 674 671 585 
1080 666 499 459 
1081 675 447 434 
1082 434 657 675 
1083 570 601 676 
1084 677 628 570 
1085 570 676 677 
1086 487 581 660 
1087 678 558 460 
1088 460 623 678 
1089 583 582 679 
1090 680 601 583 
1091 679 680 583 
1092 681 588 483 
1093 483 629 681 
1094 479 543 682 
1095 682 603 479 
1096 573 607 683 
1097 683 647 573 
1098 523 602 632 
1099 414 595 38 
1100 38 617 414 
1101 580 648 684 
1102 684 650 580 
1103 685 602 472 
1104 472 605 685 
1105 429 447 686 
1106 686 627 429 
1107 582 594 687 
1108 687 679 582 
1109 688 504 494 
1110 494 571 688 
1111 447 675 686 
1112 578 638 689 
1113 689 658 578 
1114 499 666 663 
1115 71 533 532 
1116 532 540 71 
1117 690 645 599 
1118 599 622 690 
1119 535 597 691 
1120 691 666 535 
1121 508 584 692 
1122 692 621 508 
1123 693 625 590 
1124 590 628 694 
1125 590 694 693 
1126 574 504 629 
1127 112 579 443 
1128 443 608 112 
1129 576 635 695 
1130 695 631 576 
1131 620 651 507 
1132 518 517 696 
1133 697 564 518 
1134 518 696 697 
1135 594 613 698 
1136 698 687 594 
1137 699 566 531 
1138 531 593 699 
1139 517 521 700 
1140 700 696 517 
1141 592 611 701 
1142 702 674 592 
1143 592 701 702 
1144 681 587 588 
1145 30 467 464 
1146 464 655 30 
1147 703 676 601 
1148 601 680 703 
1149 597 567 691 
1150 521 467 704 
1151 704 700 521 
1152 705 668 604 
1153 604 672 705 
1154 688 629 504 
1155 30 704 467 
1156 611 662 706 
1157 706 701 611 
1158 707 520 550 
1159 550 632 707 
1160 473 646 633 
1161 609 669 708 
1162 708 642 609 
1163 707 525 520 
1164 709 600 477 
1165 477 617 709 
1166 75 653 596 
1167 596 659 75 
1168 626 571 527 
1169 497 600 710 
1170 710 673 497 
1171 616 615 711 
1172 23 665 616 
1173 616 711 23 
1174 587 681 626 
1175 600 505 528 
1176 528 529 710 
1177 710 600 528 
1178 634 650 712 
1179 712 635 634 
1180 567 566 691 
1181 505 600 709 
1182 709 636 505 
1183 641 642 713 
1184 714 662 641 
1185 713 714 641 
1186 581 651 715 
1187 715 660 581 
1188 536 564 697 
1189 610 564 536 
1190 697 623 536 
1191 716 618 619 
1192 619 653 154 
1193 154 716 619 
1194 563 639 654 
1195 471 598 62 
1196 62 646 471 
1197 13 622 618 
1198 618 716 13 
1199 699 691 566 
1200 644 643 546 
1201 546 643 652 
1202 649 644 546 
1203 607 665 106 
1204 106 683 607 
1205 666 691 663 
1206 552 551 717 
1207 552 589 606 
1208 717 589 552 
1209 613 656 117 
1210 117 698 613 
1211 688 681 629 
1212 10 554 555 
1213 555 589 717 
1214 555 717 10 
1215 31 624 625 
1216 625 693 31 
1217 651 620 715 
1218 551 560 9 
1219 9 717 551 
1220 615 631 126 
1221 126 711 615 
1222 685 605 525 
1223 525 707 685 
1224 91 608 488 
1225 488 652 91 
1226 637 645 718 
1227 719 638 637 
1228 718 719 637 
1229 715 639 660 
1230 495 568 53 
1231 53 670 495 
1232 645 690 720 
1233 645 720 718 
1234 685 632 602 
1235 554 10 11 
1236 11 575 554 
1237 624 31 32 
1238 32 656 624 
1239 571 626 688 
1240 491 612 190 
1241 190 664 491 
1242 648 647 721 
1243 722 684 648 
1244 648 721 722 
1245 593 663 699 
1246 610 514 564 
1247 723 694 628 
1248 628 677 723 
1249 685 707 632 
1250 529 621 157 
1251 157 710 529 
1252 650 684 724 
1253 724 712 650 
1254 654 715 620 
1255 543 636 133 
1256 133 682 543 
1257 725 689 638 
1258 638 719 725 
1259 533 71 72 
1260 72 649 533 
1261 671 145 146 
1262 146 672 671 
1263 671 674 145 
1264 688 626 681 
1265 589 603 606 
1266 13 14 622 
1267 14 690 622 
1268 639 715 654 
1269 514 610 123 
1270 123 667 514 
1271 647 683 205 
1272 205 721 647 
1273 661 652 643 
1274 179 695 635 
1275 635 712 726 
1276 635 726 179 
1277 699 663 691 
1278 558 678 152 
1279 152 661 558 
1280 669 668 727 
1281 56 708 669 
1282 669 727 56 
1283 79 9 560 
1284 560 664 79 
1285 658 64 65 
1286 658 689 64 
1287 65 659 658 
1288 575 11 103 
1289 103 591 575 
1290 642 708 193 
1291 193 713 642 
1292 52 53 568 
1293 568 614 52 
1294 728 706 662 
1295 662 714 728 
1296 74 71 540 
1297 540 633 74 
1298 125 126 631 
1299 631 695 125 
1300 584 644 143 
1301 143 692 584 
1302 172 677 676 
1303 676 703 172 
1304 103 123 591 
1305 123 610 591 
1306 136 137 680 
1307 680 679 136 
1308 137 703 680 
1309 41 38 595 
1310 595 627 41 
1311 668 705 237 
1312 237 727 668 
1313 61 62 598 
1314 598 630 61 
1315 665 23 24 
1316 24 106 665 
1317 46 44 694 
1318 44 693 694 
1319 694 723 46 
1320 166 606 603 
1321 603 682 166 
1322 684 722 219 
1323 219 724 684 
1324 166 640 606 
1325 162 136 679 
1326 679 687 162 
1327 579 112 113 
1328 113 655 579 
1329 677 172 173 
1330 173 723 677 
1331 617 38 39 
1332 617 39 196 
1333 196 709 617 
1334 672 146 198 
1335 198 705 672 
1336 690 14 15 
1337 15 82 690 
1338 82 720 690 
1339 224 52 614 
1340 614 667 224 
1341 653 75 76 
1342 76 154 653 
1343 657 167 168 
1344 657 640 167 
1345 168 675 657 
1346 148 145 674 
1347 674 702 148 
1348 166 167 640 
1349 116 117 656 
1350 656 32 116 
1351 608 91 92 
1352 92 112 608 
1353 67 64 689 
1354 689 184 67 
1355 689 725 184 
1356 623 697 213 
1357 213 151 623 
1358 151 678 623 
1359 77 75 659 
1360 659 65 77 
1361 189 190 612 
1362 612 670 189 
1363 701 289 290 
1364 701 706 289 
1365 290 702 701 
1366 158 61 630 
1367 630 673 158 
1368 34 31 693 
1369 693 44 47 
1370 693 47 34 
1371 160 157 621 
1372 621 692 160 
1373 277 162 687 
1374 687 698 277 
1375 644 649 143 
1376 683 106 107 
1377 107 205 683 
1378 652 661 91 
1379 695 179 180 
1380 180 125 695 
1381 646 62 63 
1382 63 633 646 
1383 703 137 138 
1384 171 172 703 
1385 138 171 703 
1386 132 133 636 
1387 636 196 132 
1388 636 709 196 
1389 708 56 57 
1390 57 193 708 
1391 72 143 649 
1392 288 289 706 
1393 706 728 288 
1394 151 152 678 
1395 226 81 714 
1396 714 713 226 
1397 81 728 714 
1398 229 41 627 
1399 627 686 229 
1400 698 117 118 
1401 118 277 698 
1402 675 168 248 
1403 248 686 675 
1404 721 205 206 
1405 42 43 721 
1406 206 42 721 
1407 43 722 721 
1408 9 10 717 
1409 722 43 210 
1410 210 219 722 
1411 29 30 655 
1412 655 113 29 
1413 260 257 712 
1414 257 726 712 
1415 712 724 260 
1416 670 53 51 
1417 51 189 670 
1418 240 237 705 
1419 705 198 240 
1420 248 229 686 
1421 720 82 80 
1422 720 80 285 
1423 285 718 720 
1424 673 157 158 
1425 673 710 157 
1426 95 13 716 
1427 716 154 95 
1428 234 74 633 
1429 633 63 234 
1430 178 179 726 
1431 726 257 55 
1432 726 55 178 
1433 343 339 719 
1434 719 718 343 
1435 339 725 719 
1436 718 285 343 
1437 682 133 134 
1438 134 166 682 
1439 713 193 194 
1440 194 226 713 
1441 93 91 661 
1442 661 152 93 
1443 702 290 312 
1444 312 148 702 
1445 664 190 191 
1446 191 79 664 
1447 25 23 711 
1448 711 126 127 
1449 127 25 711 
1450 667 123 122 
1451 122 224 667 
1452 215 46 723 
1453 723 173 215 
1454 213 697 696 
1455 217 213 696 
1456 696 700 217 
1457 724 219 220 
1458 220 260 724 
1459 300 217 700 
1460 700 704 300 
1461 55 56 727 
1462 727 237 238 
1463 178 55 727 
1464 238 178 727 
1465 704 30 28 
1466 28 300 704 
1467 185 184 725 
1468 339 185 725 
1469 692 143 144 
1470 144 160 692 
1471 728 81 83 
1472 83 288 728 
$EndElements
