$MeshFormat
4.1 0 8
$EndMeshFormat
$PhysicalNames
1
2 1 "torus_primal"
$EndPhysicalNames
$Entities
1 2 1 1
1 2 -4.898587196589413e-16 -1.224646799147353e-16 0 
1 -2.0000001 -2.0000001 -1.000000001224647e-07 2.0000001 2.0000001 9.999999987753531e-08 0 2 1 -1 
2 0.9999999000000001 -1.000000004898587e-07 -0.5000000999999999 2.0000001 9.999999975507065e-08 0.5000000999999999 0 2 1 -1 
1 -2.164784500584788 -2.164784500584788 -0.5000000999999999 2.164784500584788 2.164784500584788 0.5000000999999999 1 1 4 -1 2 1 -2 
1 -2.164784500584788 -2.164784500584788 -0.5000000999999999 2.164784500584788 2.164784500584788 0.5000000999999999 0 1 1 
$EndEntities
$Nodes
4 412 1 412
0 1 0 1
1
2 -4.898587196589413e-16 -1.224646799147353e-16
1 1 0 41
2
3
4
5
6
7
8
9
10
11
12
13
14
15
16
17
18
19
20
21
22
23
24
25
26
27
28
29
30
31
32
33
34
35
36
37
38
39
40
41
42
1.977661652450257 0.2980845323523486 -1.224646799147353e-16
1.911145611572282 0.5895103488218079 -1.224646799147353e-16
1.801937735804839 0.8677674782351155 -1.224646799147353e-16
1.65247754863199 1.126640116127243 -1.224646799147353e-16
1.466103743659654 1.360345475541837 -1.224646799147353e-16
1.246979603717469 1.563662964936058 -1.224646799147353e-16
1.000000000000002 1.732050807568876 -1.224646799147353e-16
0.7306820487327924 1.861747497288408 -1.224646799147353e-16
0.4450418679126315 1.949855824363647 -1.224646799147353e-16
0.1494601871728514 1.99440759436236 -1.224646799147353e-16
-0.1494601871728459 1.99440759436236 -1.224646799147353e-16
-0.4450418679126261 1.949855824363648 -1.224646799147353e-16
-0.7306820487327876 1.861747497288409 -1.224646799147353e-16
-0.9999999999999981 1.732050807568878 -1.224646799147353e-16
-1.246979603717466 1.563662964936061 -1.224646799147353e-16
-1.466103743659651 1.360345475541841 -1.224646799147353e-16
-1.652477548631988 1.126640116127246 -1.224646799147353e-16
-1.801937735804837 0.8677674782351197 -1.224646799147353e-16
-1.91114561157228 0.5895103488218134 -1.224646799147353e-16
-1.977661652450256 0.2980845323523564 -1.224646799147353e-16
-2 6.462178297730347e-15 -1.224646799147353e-16
-1.977661652450258 -0.2980845323523419 -1.224646799147353e-16
-1.911145611572284 -0.5895103488218002 -1.224646799147353e-16
-1.801937735804842 -0.8677674782351088 -1.224646799147353e-16
-1.652477548631995 -1.126640116127237 -1.224646799147353e-16
-1.466103743659659 -1.360345475541832 -1.224646799147353e-16
-1.246979603717476 -1.563662964936053 -1.224646799147353e-16
-1.00000000000001 -1.732050807568871 -1.224646799147353e-16
-0.7306820487328031 -1.861747497288403 -1.224646799147353e-16
-0.445041867912643 -1.949855824363644 -1.224646799147353e-16
-0.1494601871728636 -1.994407594362359 -1.224646799147353e-16
0.1494601871728328 -1.994407594362361 -1.224646799147353e-16
0.4450418679126129 -1.949855824363651 -1.224646799147353e-16
0.7306820487327775 -1.861747497288413 -1.224646799147353e-16
0.9999999999999893 -1.732050807568883 -1.224646799147353e-16
1.246979603717458 -1.563662964936066 -1.224646799147353e-16
1.466103743659647 -1.360345475541845 -1.224646799147353e-16
1.652477548631986 -1.12664011612725 -1.224646799147353e-16
1.801937735804836 -0.8677674782351215 -1.224646799147353e-16
1.91114561157228 -0.5895103488218129 -1.224646799147353e-16
1.977661652450257 -0.2980845323523506 -1.224646799147353e-16
1 2 0 10
43
44
45
46
47
48
49
50
51
52
1.920626766415591 -4.704178843695169e-16 0.2703204087277985
1.707707506500944 -4.182677063432577e-16 0.4548159976772589
1.428842580863358 -3.499654986279509e-16 0.4949107209404665
1.172569633027358 -2.871967295728681e-16 0.3778747871771296
1.020253513192752 -2.49890039850069e-16 0.1408662784207163
1.020253513192751 -2.498900398500688e-16 -0.1408662784207126
1.172569633027355 -2.871967295728674e-16 -0.3778747871771274
1.428842580863354 -3.499654986279499e-16 -0.4949107209404658
1.70770750650094 -4.182677063432568e-16 -0.4548159976772606
1.920626766415589 -4.704178843695166e-16 -0.2703204087278006
2 1 0 360
53
54
55
56
57
58
59
60
61
62
63
64
65
66
67
68
69
70
71
72
73
74
75
76
77
78
79
80
81
82
83
84
85
86
87
88
89
90
91
92
93
94
95
96
97
98
99
100
101
102
103
104
105
106
107
108
109
110
111
112
113
114
115
116
117
118
119
120
121
122
123
124
125
126
127
128
129
130
131
132
133
134
135
136
137
138
139
140
141
142
143
144
145
146
147
148
149
150
151
152
153
154
155
156
157
158
159
160
161
162
163
164
165
166
167
168
169
170
171
172
173
174
175
176
177
178
179
180
181
182
183
184
185
186
187
188
189
190
191
192
193
194
195
196
197
198
199
200
201
202
203
204
205
206
207
208
209
210
211
212
213
214
215
216
217
218
219
220
221
222
223
224
225
226
227
228
229
230
231
232
233
234
235
236
237
238
239
240
241
242
243
244
245
246
247
248
249
250
251
252
253
254
255
256
257
258
259
260
261
262
263
264
265
266
267
268
269
270
271
272
273
274
275
276
277
278
279
280
281
282
283
284
285
286
287
288
289
290
291
292
293
294
295
296
297
298
299
300
301
302
303
304
305
306
307
308
309
310
311
312
313
314
315
316
317
318
319
320
321
322
323
324
325
326
327
328
329
330
331
332
333
334
335
336
337
338
339
340
341
342
343
344
345
346
347
348
349
350
351
352
353
354
355
356
357
358
359
360
361
362
363
364
365
366
367
368
369
370
371
372
373
374
375
376
377
378
379
380
381
382
383
384
385
386
387
388
389
390
391
392
393
394
395
396
397
398
399
400
401
402
403
404
405
406
407
408
409
410
411
412
1.284848168305852 -0.2455207755040354 0.4617064788601069
1.288572692373381 -0.2422329906082893 -0.4629612259775635
1.300366220436602 0.2669833561860269 0.4692980431672313
1.288572692373374 0.2422329906082857 -0.4629612259775606
-1.507536545179505 -1.196901763162525 -0.2635525252281995
-0.2793131475249886 -1.905406254405863 -0.2621453539562167
-1.510700572206843 1.204743504904381 0.2513016908344271
0.5695432080040758 1.846413730909411 0.2513016908348675
-0.5695432080042255 1.846413730909914 0.2513016908339655
-1.926855570273429 0.1443978628050701 0.2513016908339643
0.9703551407151053 -0.2417127478614007 0.002660022625972666
1.314269592862095 1.416445752139306 0.2513016908344244
0.5931774392629278 -1.852774147686396 -0.2271724249715245
0.8221897855345506 1.754622833833904 -0.2416921310601506
-0.01552281437199939 1.936602852215467 -0.2435644125102957
0.9710269459369586 0.2389700195931342 0
1.088480002577918 -1.596506941877593 0.2513016908344299
1.326728220421167 -1.414253813976553 -0.2390460156154328
1.52028054195985 1.202639625959844 -0.2403333229040927
0 1.932258557097255 0.2513016908343417
-0.8392520426110714 -1.745043445469814 -0.2440964191296581
-1.798688766394962 0.7059333205906475 0.2513016908343402
-1.088480002577955 1.59650694187763 0.2513016908343418
-1.797174894333016 -0.7276040442512397 -0.2395552161955704
1.510700572206878 -1.204743504904415 0.2513016908343426
0.5695432080041506 -1.846413730909708 0.2513016908343421
-1.922965376545871 -0.1240122472659502 -0.2602021340919685
-1.580066330381329e-14 -1.932258557097255 0.2513016908343414
-0.5791056485042954 1.841744842935099 -0.2540580359957412
-0.569543208004176 -1.846413730909701 0.2513016908343407
-1.088693660728516 1.597998145158154 -0.2489606347041601
-1.883812800866292 -0.429967978770354 0.2513016908343406
-1.074926897359026 -1.601815644140575 0.2567208199074825
-1.510700572206094 1.204743504903783 -0.2513016908360753
-1.510700572206889 -1.204743504904403 0.251301690834341
-1.800552992034806 0.6894264682861676 -0.2584381227459572
1.673384997126374 0.9661292785487918 0.2513016908337736
1.674534580578201 -0.9583826043412725 -0.2561646578655081
1.816315228676922 -0.2379117007064838 0.3740167350366751
1.820361132818846 0.2438041469673169 0.3697164560605923
1.820361132818837 0.2438041469674172 -0.3697164560605886
1.82036113281882 -0.2438041469673916 -0.3697164560606065
1.798688766394946 -0.7059333205906422 0.2513016908343703
1.798360159887078 0.7128509134336797 -0.2474217299248784
1.058379361821747 -0.2421154259699193 0.279949347069559
0.9119636787737371 -0.4679849775926757 0.1562179579894768
0.9143178902827648 -0.4762518978643653 -0.1730970867617654
0.7286634011114949 -0.6915155939340634 0.06738598519774924
0.7888093604413602 -0.7260693626815858 -0.2586522722071097
0.5504284816683986 -0.849599879301812 -0.1103089584025257
0.6512929617042919 -0.9542395287454529 -0.3622058825436638
0.3802681211145537 -1.008150821944 -0.2673579808479041
0.3027535611675874 -0.9531973051978687 0.01106292204811017
0.1013977784873029 -1.026562027499066 -0.174819131189583
0.04715203998315529 -1.012354956754614 0.1152019268738871
-0.1643182383540494 -0.9927653562627994 -0.07894782579572915
-0.2391384291356801 -1.044266963370989 0.2573229587937281
-0.4285014076672731 -0.905171122927557 0.03835171934925809
-0.5078999732237997 -0.9815978218336224 0.3068281978451536
-0.6695205892557111 -0.7788755195999916 0.1623329913563235
-0.6500851214754151 -0.7837447564101411 -0.1339132587313835
-0.820116459108114 -0.5721977771621715 0.0008070588851549646
-0.8707384981325156 -0.6510017235418725 -0.2821177774253117
-0.9577000083403885 -0.3864250668615327 -0.1779066526691716
-0.7290446160041344 -0.9353208216793516 -0.3890165141360247
-0.9593558889643171 -0.3299561083448028 0.1195887828268182
-0.9986412029781397 -0.1153297153805699 -0.07246241302719497
-1.049141010826833 -0.07914768430607884 0.2222735156735292
-0.9895178322898783 0.1614228575612071 0.05090495821701788
-1.051644575414753 0.1286663461187154 -0.2365327265462261
-0.9402222193973356 0.3942634915249822 -0.1384126157806348
-0.9316980688258119 0.4309238368674339 0.1606948658899974
-0.7853371291366043 0.6197558492126083 -0.02062977455468346
-0.8245826289078173 0.6891369599616201 0.262805904637593
-0.6039597545348629 0.8109197083095143 0.1048507904836859
-0.641241502467484 0.8146074103157923 -0.1880586958958118
-0.3955556242767301 0.9238327526372567 -0.0702054134004523
-0.3875849396386469 0.9771086541615212 0.2203492284265156
-0.1339115386138301 0.9950858513593144 0.06355628202454967
-0.1724806414136254 1.040880338162684 -0.2281249283996509
0.09635489517487586 1.00887648239692 -0.1152647298215609
0.1368130568930493 1.024954248660275 0.1813447573354939
0.3527999363927259 0.9357302855398727 0.005429539018051354
0.3948074940253509 1.02052081241872 0.292146144130265
0.345012182457111 1.022448529224562 -0.2698785824484621
0.568417864370985 0.8603757187297656 -0.1738210063453494
-0.7867633941597326 -0.9120863918558285 0.4033594900389653
0.2009705403758047 1.19209088667038 0.4065318750965518
0.2851781970254805 -1.051739412123883 0.2857754002872774
0.8770298455891454 -0.7052538630757944 0.3311916184986173
-0.6855962066811294 -1.161990167790394 0.4767082082023655
-0.1228655945859962 -1.123301188550124 -0.336304171707421
-1.056758314242955 0.5607812296548595 0.3972236474235492
-1.110392190863289 0.3833599953926127 -0.3797159908255691
-1.267141935059377 0.1319667565849531 -0.4460065638541918
-1.113393636688223 -0.330943340596854 0.3680258095788183
-1.255392468736388 -0.07824815007253022 0.4374392055697811
0.6048771553576856 1.039046154048254 -0.4017048476729654
0.4077837306381714 1.237506853925922 -0.4595390616741162
0.80087680596224 0.8267007958523965 -0.3580644878044453
0.8818223231508729 1.067917503070451 -0.486581096135055
1.063125767912543 0.8401574126949326 -0.4785218059381323
-1.108372301618952 -0.544410915660083 -0.4239095623054666
0.5028416625967796 -1.196677936468266 -0.4573937509412687
0.9217261391617393 -0.8853346071422387 -0.4480351882886873
-0.9522178930706408 -1.137335213814243 0.4997218360714281
-1.08764246931545 -0.8474599902756713 0.4850940991471249
0.4851828997196494 1.229589056828505 0.4671864224223981
0.6679739628570045 1.008711686941127 0.4071871019190848
0.7766590075788232 1.265319311846327 0.4997648032466747
0.9471785465807965 1.030598492499824 0.4898454173856208
0.7644983054872624 0.6752091281032584 -0.1399412058869561
-0.9936988764194266 0.8391791584455366 0.4585354720726836
-1.265250816263906 0.7463294493620488 0.4990360919839573
-1.318606621952046 0.4541646006956318 0.4887707706603917
-1.383841267816722 0.4051140151118794 -0.4966152868560376
-1.203704795111173 0.668435070128086 -0.4845963354163477
-1.557401476172406 0.1625428547815847 -0.4956433963675794
-1.443797620831881 -0.1281193493094042 -0.4974402664501756
0.306088716004081 1.457732961607592 0.4998901987628403
0.009326582289356249 1.398502768518283 0.4895963888409356
-1.383255023029942 -0.3414994600138797 0.4943105473704044
-1.534921207797585 -0.07287960797767269 0.498654936609113
0.8506961232247746 0.7857604455314181 0.3647974190400895
1.116447059637557 0.79411995902808 0.4828220452475547
1.006961189673838 0.596909768894609 0.3761469988103239
1.118536551590685 -0.5105192086923068 0.4205331708682528
1.071867736928291 -0.7924915945722693 0.4712937634268974
0.8611699412222323 -0.974889547847389 0.4585963130143448
1.094302427815566 -1.071848917798859 0.4989888444734346
1.31012644558705 -0.6445641955691991 0.4984055103346861
0.8579846281798496 -1.2565100732095 0.4995376360303485
1.236043991236401 1.058629898850419 0.4834911185503115
1.170317513099427 1.105469465305982 -0.4877775287739728
1.347065558510921 0.8741977262494474 -0.4886637695959319
0.9934940564613004 1.337455468681608 -0.4716120562091554
-0.7074645244871717 0.9553964332975659 0.3913640313440024
-0.4572057819003593 1.168062831228713 0.4354983532872467
-0.7401748358338427 1.224956214705291 0.4952460302424245
-1.209522761870131 1.037884548726586 0.491125677744199
-0.558201869805562 1.434062988215372 0.4984867040936569
1.235489152122569 0.620288499571958 -0.4859876291316035
0.1087860742602088 1.188773655146998 -0.3952282025078581
-0.2121904340499354 1.242960443523238 -0.439148504026781
0.01893660433287537 1.435344934720228 -0.4958183731241
-0.2560949354809829 1.535332053875414 -0.496792491304907
-0.4735807896580941 1.335640527652397 -0.4930821890960618
-0.4011513883561059 -1.008813040047086 -0.2798398854508797
-0.5962882408172966 -1.175296329894472 -0.4656634544304498
-0.8983673904435734 -1.152242168688583 -0.4984821629575648
-1.047968798310677 -0.8840533461414503 -0.4830868607092311
-1.347259198076855 -0.7206703735559973 -0.499221079619495
-0.7655893791281058 -1.419536344093981 -0.4871037838220011
-0.45488646213486 -1.448838684029127 -0.4996550314391314
-1.05925430866404 -1.388212154956199 -0.4351945171169957
-0.9358025015230668 -0.6059379686615923 0.3188390036088335
0.1442848738630318 -1.231223938984774 -0.426869464148577
0.326637211621892 -1.440656798688189 -0.4994808784620786
0.02123146543882002 -1.48071181558673 -0.4996336802112166
0.1811820570055163 -1.707935301449462 -0.4502062696173716
0.6381255366258815 -1.454019054799135 -0.4922158080834542
0.8323420675197807 -1.207803491905252 -0.4988983643529983
0.9298044073238085 -1.467560236533337 -0.4400917953363094
1.136096721332461 -1.09341825067899 -0.494067491154326
1.209011995089696 -0.8280941410968571 -0.4988026515398206
0.5123281278573056 -0.90395640708592 0.1937052484078925
-0.8852762998557711 0.6656135868217289 -0.3098618721876917
-1.012380406766791 0.8988176181877731 -0.4781494931760851
-1.314252371830115 0.930053115074944 -0.4877388607849556
-1.136775792137069 1.171154941091124 -0.4822244997072894
-0.8939891575812192 1.18063126588341 -0.4996355985747804
-1.15351581357512 -0.1910799933343383 -0.3749592794570084
-0.1363994555555839 1.150763551555102 0.3655072519624699
0.6059078294717125 0.8149408468469199 0.1235547513308742
1.382040498295077 0.7978385692571762 0.4907362621144937
0.5994183442731135 -1.119095708610594 0.4437097462436946
0.3199477893391066 -1.300877456850126 0.4735887206462657
0.03414496030411305 -1.174309533158418 0.3798009442760115
0.04561906075222614 -1.443821085828422 0.4969148474133346
-0.1835621736943405 -1.337201987250679 0.476888475447296
-0.1952587158121332 -1.618060686487383 0.4828582550750293
-0.389844947269366 -1.51717442271864 0.4955633685681498
-0.8647146622162187 -1.4485364102704 0.4637119398732022
0.2873626624226484 -1.566364836270651 0.4913680870561377
0.5741455443671724 -1.467920267235735 0.4941581478504007
1.065375680573492 -0.2099961931721684 -0.2801788523380732
1.016986058444459 -0.6151787298924246 -0.3911689591687468
1.406311628581427 -1.0317903333622 -0.4362986962539292
-1.681387836108918 0.4431024620029276 -0.4392919167226509
-1.828786446642386 0.17357231220976 -0.3693611490356635
-0.4749734503167629 1.039456677759208 -0.3499036684144816
1.521646257846493 0.6624459950897986 -0.4738467446534153
-1.38801170681371 -0.4226036200615688 -0.4975853729535049
-1.690061825094235 -0.3089772074990652 -0.4499378100133165
-1.28572771402017 -1.114607606083261 0.4575555133804254
-1.3577685463714 -0.8218707455161074 0.4923484269534406
0.09558027878416497 1.718427144183354 0.4484665106749406
-0.1760274066598011 1.623344331816156 0.4820250661792788
-1.127211109747186 0.2248512949636887 0.3565005514222568
-1.32292573414981 -1.018895184414395 -0.4702798034225276
-1.555339724776233 -0.8843450838769668 -0.4078942328991963
1.27788793998306 -0.5553916407462791 -0.488495979053598
1.495635497585286 -0.750077056885342 -0.469049753369266
1.747255846848902 -0.664097450600096 -0.3371757011199361
-1.49543157543529 0.7005274968473243 -0.4765335625084381
0.9709214469294754 0.6300201595929041 -0.3641933728728401
-0.1048800974933259 -1.713920110720335 -0.4503956756055761
0.7072847875566448 1.300272241340309 -0.4996073727539976
0.4822586118598699 1.517224077369416 -0.4914585194189305
0.732714391371715 1.61208727310306 -0.4203248749365587
-0.8864205145790475 1.472536077253356 0.4496088847315302
-1.565189560219548 0.6625050169370988 0.4584202667886844
-1.593078486332465 0.3664899925837973 0.4815167610179332
0.6010574030877005 1.468581701392875 0.4924043472803519
0.8488704090163145 1.5346697648962 0.4308001508051884
0.4283493447339463 1.705631649594843 0.4279342558634662
1.269964067902859 1.332005704864863 -0.3662407968160609
1.060535951250562 0.2402317467834635 0.2824263949996103
1.050692882310319 0.2490500922419665 -0.270992971511419
1.090830213862873 1.307646397528608 0.4569833962557059
-1.607916785902332 0.9966905925032696 -0.3106724079787275
-1.455999837492406 0.9671399723304652 0.4341953629874878
0.009988082699442161 -1.922424884500872 -0.2674608293314013
-1.113932254757129 -1.345341300684589 0.4349292890310772
-0.8142869032746156 -1.677283745388145 0.3422615107660772
1.075888209826761 1.574632956928291 -0.2903018162695973
0.7791808883305151 -1.662032642270819 -0.3706263130995406
0.8475501705281131 -1.529161922297896 0.4339693707218337
1.586986135982525 0.9194850628963983 -0.3719773878527325
1.511620188970248 -1.213278992823529 -0.2405936022162205
-1.64711830383461 -0.579116577008809 -0.4353204618475666
1.675661570575225 -0.9652077040106712 0.2486831686180503
1.480438821946104 -1.001146199823263 0.4093052484202248
1.558291858943147 -0.2476076736891168 0.4939035700089328
1.688958967926693 -0.5029982276065756 0.4256939407669027
1.576411519562551 0.2356460664708426 -0.4910985376588264
1.574579117228565 0.2358485679558954 0.4914360596209032
1.69467588702845 0.4876629231501184 0.424966176103208
1.583606627286945 -0.2333761165291048 -0.4897523650008039
1.517127137559691 1.203737960815045 0.2435698441712844
0.2895580573947583 1.909670772295301 0.2526045786783455
-0.2933831436256026 1.914310884068621 0.2435698441712836
-0.5714031107241438 -1.84812511699228 -0.2475069178799201
-0.8423557273701816 1.739978947417941 0.2497526279642764
-1.139242950648123 1.345050822519497 0.4254408280043799
-1.324154584196036 1.414407331231009 0.2420487666409584
1.318040886162305 -1.415877148882671 0.2475650200774039
-1.677538360118374 0.9550149380588616 0.2545836648115171
1.804927191445788 0.6997233950519994 0.245084369144938
1.088687026474881 1.596810590164954 0.2506684841004858
0.8471724789110214 1.740595813788846 0.2450843691449261
1.084641998012928 -1.598695616468549 -0.2519004192826763
-1.0874090059426 -1.601455869639597 -0.2452017976295086
-1.313745099083238 -1.422930575015485 -0.2435708731474989
-1.317842639419931 -1.409655373776709 0.2556103773246172
-0.02000864134173756 1.716211326626463 -0.4507795626343582
-0.289471877311916 1.796854090301452 -0.3841694699821361
0.2432322279998953 1.812336920605512 -0.3768702586875919
0.8370674077760237 -1.745616133955182 0.2448626177411056
-1.889166646947367 0.4262736326455867 0.2435698441712848
0.5618458944506328 1.851763707412943 -0.2463093318445597
-1.879613405069885 -0.4469123334165963 -0.2517222820271184
0.2795266476750122 -1.912288674624476 0.2506954430675606
-0.2839040847856816 -1.915739622304982 0.2435698441712817
-0.8487026647312216 1.741110217037739 -0.2430595065361058
-0.8856953578422536 1.516779753849133 -0.4292309012752191
-1.322970197268969 1.410991537339134 -0.2479241905406108
-1.924859652243762 -0.1574768263908521 0.2529592111663104
-1.889056006488594 0.4228976239622215 -0.2450843691449134
-1.684568347175542 -0.9467222647147066 0.2511100156354077
-0.506736809938397 1.615604185191541 -0.4611615910012684
-1.674074456308481 -0.3538154237543449 0.453272115886875
-1.712476361098302 -0.6406273892270958 0.3770485659180687
0.8201685331629531 0.6060896019454037 0.1393614353130703
-1.373190183299913 0.1623665243420293 0.4860595081866232
-0.3953297871416727 -1.708304945440466 -0.4310016745669413
-1.177474923880125 -0.586257058719481 0.4646549524892429
1.549892253676833 -0.5010011678400086 -0.4831111921774152
1.099902310440578 -1.364751859517558 0.4313798443137516
1.248001358805972 0.5588555388977835 0.4821011517854508
-0.2695563797630349 1.360934970247447 0.4871501034861813
-0.1925304743232609 -1.335330607389297 -0.4766979476818363
1.730643974062757 0.4704336379454926 -0.4048350754930346
0.4506630930520125 -1.699581793117094 -0.4281037191261589
0.9180954924661213 0.4448257541410824 -0.1406191058041691
-1.718026224630394 -0.04650280435342447 -0.4496551857863071
1.889694249259851 -0.4547909453938911 0.2305944527418894
1.572460779563863 -0.7489418232720554 0.4376953765417005
0.3211655715552047 -1.907714146532333 -0.2473014591845822
0.09434124102309109 -1.737359988174236 0.4386782594881846
1.89355257771625 0.4490622218137482 0.2258745427663933
1.902305335708584 0.4348681536625062 -0.2150766068439248
1.307624732911846 -1.188172030368027 0.4228590309509435
1.428592631220185 -0.4801071002667718 0.499949449205444
1.89623909681109 -0.4674588070318445 -0.2116216090886382
-1.767303893713724 -0.01842231069723915 0.4224893954668848
-0.6654141620271907 -1.65056013780374 -0.4144882253524343
-0.3910377301534416 1.754101455639717 0.4021146677130575
-0.635070242728957 1.659255310622461 0.4164990343431643
-0.7314421353605893 0.9606709533271606 -0.4054688564548622
1.620114635478427 0.7284930997768356 0.4166800077005822
-1.691280826950927 -0.9764614407153607 -0.2118038325349182
-0.3826546326729767 -1.754468726411692 0.403179659522566
1.131981101855653 0.4385646996226074 -0.4101050401895193
-0.9690372491537091 1.084525337947055 0.4979146933894033
-1.108628515674867 1.389594743783047 -0.4158267061943177
1.136137416836836 -1.346033827490849 -0.426212828799944
-0.4251884000609466 -1.195206699134355 0.4432227743928213
-1.482593635398506 -0.59208698589346 0.49060931622527
1.423856162994295 0.4433311543098246 -0.4999239139785001
0.260930137138353 1.429122252228314 -0.4977621820147424
-1.492478039540856 -0.9898289102274788 0.4066800909446757
-0.2288059620099904 -1.530069312128575 -0.4977783020583702
-1.257287183331114 -1.259087223068083 -0.4146877010188997
0.6670703149460987 1.674225359671565 0.3983218750045543
0.6395353943898923 -1.690542674088509 0.3942886214390064
0.9478162419973185 0.3954175047542887 0.1620572123456889
-0.292256871399089 1.938997648317648 -0.1938346204857303
1.473300187840272 1.016494184978393 0.4073532029901334
1.475707829631027 0.505311850769209 0.4964080815211384
-0.7048823080081315 1.382909688316206 -0.4972685927437844
1.38965246848122 1.089671367450668 -0.4234145648790123
-1.325190594569387 1.212517891838505 0.4028229554070311
1.701419096592846 0.9823147734222482 -0.1847143313310482
0.2927080895317112 1.941991285024405 -0.1864725043155567
-1.828122446676819 -0.717485188844207 0.1865937568133643
-1.734505497314061 0.4997466170915213 0.396151439605757
1.331327623398308 1.224325296493391 0.3933225219042633
-1.9594458995089 0.1563708959747149 -0.1820613850059238
0.8530942668984193 -1.771468498507788 -0.1807612361116349
-0.362322795347451 -1.197901173835361 -0.4338736180442807
-1.773603392003892 0.2610002565789475 0.4053689197540586
-1.350084360795143 1.169518156461767 -0.4099892105103438
0.4583848698002574 1.723101960391858 -0.4121818150271011
1.123202619215893 0.4083189625610592 0.3962919880915871
-0.9051196335962646 -1.566765595380166 -0.3927595659268832
1.338899111135647 1.442990059886575 -0.1747471677147417
-1.601631213833095 0.1364189828648566 0.4883223282278209
1.285713711079444 -0.8886681314780122 0.4960223581832528
1.948396083071559 -0.203568395240187 0.1982864172170986
1.946860378752147 -0.2199286934975461 -0.1977262553177087
1.948396083071544 0.2035683952401549 -0.1982864172171412
1.946860378751002 0.219928693501353 0.1977262553193587
-0.1436105756895946 1.813832337646913 0.3845961768113358
0.4088364154838572 -1.761454804248931 0.3936553294780045
-0.6162393003012286 -1.644051183826621 0.4296421287453503
-0.6623560408179467 1.175624545680675 -0.476772094524265
1.12930705207784 -0.4133910563768013 -0.401930653571489
-1.562985699942156 -0.8122299895535692 0.4262082044317947
0.2143856011020345 1.629725228387576 -0.4788856214328079
1.763284306670737 -0.453583445949827 -0.3836122777680739
-0.1464867296200808 -1.817539757198996 0.3813015567015658
-1.120732764880467 -1.127976820137827 -0.4918175516649157
1.329402769015949 -1.244090008569564 -0.3835750405145024
-0.8473479869727324 -1.782600952698543 0.1598961189817497
-0.3733411803526999 1.55399705774123 0.4902589687212075
-0.7260679152164284 1.644914362471773 -0.4014687100641459
0.7166992370505995 -0.8543799105075977 0.319237096473692
1.83484911818776 -0.7304756381749867 -0.1564012431179175
-0.6084710833888535 -1.400269368586578 0.4992834719538481
$EndNodes
$Elements
1 824 1 824
2 1 2 824
1 113 200 117 
2 18 273 19 
3 112 208 139 
4 87 307 247 
5 264 300 74 
6 122 224 147 
7 130 225 190 
8 274 300 264 
9 109 232 230 
10 297 357 263 
11 109 360 232 
12 139 208 159 
13 200 201 117 
14 169 219 146 
15 88 257 241 
16 263 357 191 
17 332 372 227 
18 54 330 254 
19 230 231 229 
20 141 230 229 
21 324 348 320 
22 315 397 342 
23 147 224 171 
24 179 346 53 
25 227 372 353 
26 315 342 80 
27 64 302 272 
28 115 203 155 
29 247 307 276 
30 203 204 155 
31 238 400 99 
32 240 255 90 
33 161 226 176 
34 268 293 249 
35 224 245 171 
36 223 358 318 
37 196 243 199 
38 249 293 72 
39 262 386 313 
40 246 314 79 
41 336 341 212 
42 99 400 239 
43 169 220 219 
44 235 276 85 
45 84 324 320 
46 211 334 209 
47 262 313 66 
48 209 334 144 
49 318 373 223 
50 189 357 165 
51 7 278 8 
52 291 330 54 
53 86 273 18 
54 146 219 123 
55 58 275 32 
56 225 333 190 
57 283 314 246 
58 272 302 267 
59 114 208 112 
60 120 251 149 
61 255 256 90 
62 110 200 113 
63 57 253 252 
64 102 218 100 
65 126 189 165 
66 119 224 122 
67 65 341 336 
68 85 277 235 
69 132 243 196 
70 214 215 213 
71 19 273 88 
72 131 225 130 
73 136 226 161 
74 228 237 184 
75 226 326 176 
76 183 346 179 
77 137 195 151 
78 156 214 213 
79 195 363 151 
80 251 327 149 
81 141 228 218 
82 156 209 104 
83 358 385 319 
84 325 361 324 
85 156 210 209 
86 76 314 283 
87 214 359 215 
88 79 338 246 
89 32 275 33 
90 216 359 214 
91 88 273 257 
92 97 179 53 
93 141 229 228 
94 167 327 251 
95 167 251 145 
96 263 296 75 
97 222 385 358 
98 259 275 58 
99 8 278 66 
100 244 281 96 
101 49 238 48 
102 218 410 100 
103 191 357 189 
104 54 238 49 
105 155 245 224 
106 342 397 236 
107 222 358 223 
108 96 335 244 
109 345 391 182 
110 243 399 199 
111 229 237 228 
112 262 278 188 
113 285 391 345 
114 242 338 79 
115 208 329 159 
116 164 326 226 
117 241 321 88 
118 117 203 115 
119 89 371 353 
120 308 309 67 
121 237 280 184 
122 65 336 279 
123 59 300 274 
124 197 363 195 
125 76 283 253 
126 75 297 263 
127 260 262 188 
128 175 348 324 
129 288 362 335 
130 236 397 237 
131 237 397 368 
132 337 356 271 
133 324 361 174 
134 79 381 242 
135 273 385 221 
136 258 356 337 
137 57 354 253 
138 245 246 171 
139 90 282 240 
140 7 389 278 
141 152 258 164 
142 241 257 168 
143 257 273 221 
144 232 360 234 
145 247 364 87 
146 288 335 93 
147 272 380 64 
148 135 226 136 
149 337 369 326 
150 201 202 117 
151 153 260 188 
152 123 219 125 
153 164 226 138 
154 121 251 120 
155 277 398 235 
156 129 243 132 
157 127 189 126 
158 172 268 249 
159 398 412 235 
160 253 283 204 
161 133 195 137 
162 203 252 204 
163 360 412 234 
164 231 236 229 
165 230 232 231 
166 145 251 124 
167 142 180 179 
168 353 371 227 
169 105 218 102 
170 72 396 249 
171 118 208 114 
172 104 209 106 
173 46 97 53 
174 215 304 279 
175 58 328 259 
176 49 271 56 
177 281 374 71 
178 69 331 280 
179 107 230 141 
180 108 200 110 
181 71 376 281 
182 48 238 63 
183 116 224 119 
184 173 333 225 
185 164 337 326 
186 274 375 59 
187 134 225 131 
188 169 221 220 
189 99 239 101 
190 263 351 296 
191 309 370 67 
192 252 366 57 
193 204 245 155 
194 309 323 81 
195 353 372 290 
196 66 278 262 
197 156 213 210 
198 142 179 98 
199 210 211 209 
200 103 214 156 
201 228 410 218 
202 192 357 297 
203 86 385 273 
204 310 377 313 
205 212 341 275 
206 204 283 245 
207 157 239 217 
208 255 330 256 
209 373 409 323 
210 173 225 140 
211 286 287 91 
212 325 378 322 
213 253 354 76 
214 313 386 310 
215 287 346 340 
216 162 272 267 
217 48 271 49 
218 47 97 46 
219 168 257 169 
220 51 288 93 
221 44 286 91 
222 304 382 279 
223 154 258 152 
224 201 205 202 
225 47 270 68 
226 180 183 179 
227 236 237 229 
228 287 340 95 
229 202 203 117 
230 290 343 301 
231 266 268 172 
232 150 260 153 
233 322 401 325 
234 217 255 240 
235 239 254 217 
236 252 253 204 
237 254 330 255 
238 174 329 148 
239 177 332 227 
240 232 233 231 
241 221 222 220 
242 67 310 308 
243 261 386 262 
244 3 96 4 
245 41 95 40 
246 95 339 287 
247 70 282 38 
248 210 212 211 
249 55 270 46 
250 142 181 180 
251 89 301 4 
252 176 178 177 
253 187 194 154 
254 5 89 4 
255 39 90 40 
256 7 64 6 
257 10 60 9 
258 37 70 38 
259 34 65 35 
260 12 72 11 
261 194 258 154 
262 31 58 32 
263 5 71 6 
264 14 61 13 
265 60 303 9 
266 152 164 138 
267 29 73 30 
268 178 332 177 
269 84 325 324 
270 201 206 205 
271 16 75 15 
272 39 77 38 
273 26 57 27 
274 18 59 17 
275 205 207 202 
276 280 311 69 
277 60 293 268 
278 176 177 163 
279 133 135 134 
280 95 340 284 
281 150 152 138 
282 222 223 220 
283 101 239 157 
284 129 131 130 
285 132 133 131 
286 138 226 135 
287 161 176 163 
288 157 217 216 
289 136 161 160 
290 137 138 135 
291 176 326 178 
292 187 244 194 
293 133 134 131 
294 305 306 207 
295 8 302 7 
296 20 74 19 
297 153 154 152 
298 37 69 36 
299 258 337 164 
300 36 304 37 
301 8 66 9 
302 128 129 127 
303 129 130 127 
304 232 234 233 
305 135 136 134 
306 125 127 126 
307 95 284 40 
308 129 132 131 
309 133 137 135 
310 212 259 211 
311 161 163 162 
312 141 218 105 
313 28 305 29 
314 24 76 25 
315 165 192 166 
316 125 126 124 
317 126 165 145 
318 125 128 127 
319 130 190 189 
320 35 78 34 
321 106 209 144 
322 27 307 87 
323 123 125 124 
324 11 67 12 
325 123 124 121 
326 190 193 191 
327 113 117 115 
328 161 162 160 
329 126 145 124 
330 33 80 32 
331 13 81 14 
332 22 62 21 
333 165 166 145 
334 31 82 30 
335 132 195 133 
336 124 251 121 
337 128 243 129 
338 15 83 16 
339 29 85 28 
340 17 86 18 
341 19 88 20 
342 130 189 127 
343 27 87 26 
344 22 79 23 
345 193 263 191 
346 100 410 142 
347 190 191 189 
348 24 84 23 
349 148 208 118 
350 177 227 185 
351 177 185 163 
352 137 150 138 
353 147 171 170 
354 186 187 154 
355 183 391 340 
356 168 169 146 
357 122 123 121 
358 110 113 112 
359 166 264 167 
360 119 122 121 
361 217 240 216 
362 122 146 123 
363 119 121 120 
364 335 362 244 
365 122 147 146 
366 149 175 174 
367 147 168 146 
368 170 241 168 
369 170 242 241 
370 147 170 168 
371 120 149 148 
372 120 148 118 
373 149 174 148 
374 136 160 140 
375 166 167 145 
376 119 120 118 
377 150 153 152 
378 115 155 116 
379 264 265 167 
380 113 115 114 
381 116 119 118 
382 159 329 248 
383 159 248 247 
384 155 224 116 
385 139 159 158 
386 113 114 112 
387 181 182 180 
388 158 235 143 
389 116 118 114 
390 125 219 128 
391 139 143 111 
392 159 247 158 
393 115 116 114 
394 66 313 9 
395 139 158 143 
396 112 139 111 
397 106 144 108 
398 249 250 173 
399 136 140 134 
400 110 112 111 
401 160 172 140 
402 101 157 103 
403 63 238 99 
404 109 230 107 
405 172 249 173 
406 157 216 214 
407 196 197 195 
408 144 200 108 
409 64 292 6 
410 103 156 104 
411 172 173 140 
412 157 214 103 
413 107 141 105 
414 196 199 198 
415 212 275 259 
416 10 293 60 
417 103 104 102 
418 181 228 184 
419 110 111 109 
420 50 54 49 
421 49 56 50 
422 46 53 45 
423 45 55 46 
424 140 225 134 
425 153 186 154 
426 196 198 197 
427 265 327 167 
428 108 110 109 
429 104 105 102 
430 48 63 47 
431 132 196 195 
432 12 294 72 
433 106 108 107 
434 108 109 107 
435 46 270 47 
436 101 103 102 
437 279 336 213 
438 104 106 105 
439 106 107 105 
440 47 68 48 
441 181 184 182 
442 73 295 30 
443 198 308 197 
444 137 151 150 
445 63 97 47 
446 75 296 15 
447 88 321 20 
448 68 271 48 
449 87 322 26 
450 276 307 85 
451 7 302 64 
452 37 304 70 
453 101 102 100 
454 57 306 27 
455 77 299 38 
456 153 188 186 
457 18 300 59 
458 29 305 73 
459 100 142 98 
460 304 359 70 
461 99 101 100 
462 51 93 52 
463 52 94 51 
464 43 92 44 
465 44 91 43 
466 169 257 221 
467 98 179 97 
468 280 331 184 
469 163 272 162 
470 63 98 97 
471 4 301 3 
472 111 360 109 
473 69 311 36 
474 20 312 74 
475 215 279 213 
476 340 346 183 
477 28 307 27 
478 63 99 98 
479 99 100 98 
480 299 331 69 
481 74 379 264 
482 9 303 8 
483 33 315 80 
484 275 341 33 
485 79 314 23 
486 81 317 14 
487 31 316 82 
488 175 324 174 
489 17 319 86 
490 84 320 23 
491 59 298 17 
492 215 359 304 
493 40 284 39 
494 181 410 228 
495 9 313 10 
496 6 292 5 
497 11 293 10 
498 38 282 39 
499 13 294 12 
500 30 295 31 
501 15 296 14 
502 20 321 21 
503 26 322 25 
504 149 327 175 
505 27 306 28 
506 38 299 37 
507 19 300 18 
508 319 385 86 
509 151 261 260 
510 261 262 260 
511 92 290 289 
512 36 311 35 
513 21 312 20 
514 160 266 172 
515 284 285 77 
516 23 314 24 
517 34 315 33 
518 32 316 31 
519 14 317 15 
520 16 319 17 
521 23 320 22 
522 151 260 150 
523 246 338 171 
524 250 333 173 
525 5 292 89 
526 220 352 219 
527 50 291 54 
528 45 289 55 
529 39 284 77 
530 72 293 11 
531 75 298 297 
532 31 295 58 
533 61 294 13 
534 14 296 61 
535 50 288 51 
536 45 286 44 
537 284 340 285 
538 287 339 91 
539 190 333 193 
540 199 373 323 
541 198 309 308 
542 295 328 58 
543 188 269 186 
544 92 343 290 
545 74 300 19 
546 37 299 69 
547 28 306 305 
548 317 318 83 
549 193 408 351 
550 351 408 350 
551 347 411 256 
552 8 303 302 
553 35 311 78 
554 254 255 217 
555 24 314 76 
556 62 312 21 
557 185 272 163 
558 94 403 291 
559 78 315 34 
560 80 316 32 
561 15 317 83 
562 83 319 16 
563 22 320 62 
564 39 282 90 
565 166 274 264 
566 71 374 269 
567 3 344 96 
568 206 349 205 
569 158 276 235 
570 261 402 386 
571 92 289 44 
572 94 291 51 
573 245 283 246 
574 85 307 28 
575 187 281 244 
576 171 338 170 
577 269 389 71 
578 340 391 285 
579 42 339 41 
580 1 395 43 
581 1 393 52 
582 242 321 241 
583 89 353 301 
584 325 401 361 
585 51 291 50 
586 44 289 45 
587 33 341 34 
588 198 323 309 
589 77 345 299 
590 302 303 267 
591 29 407 85 
592 256 411 90 
593 22 381 79 
594 81 370 309 
595 286 346 287 
596 188 278 269 
597 26 354 57 
598 148 329 208 
599 184 331 182 
600 55 372 332 
601 318 409 373 
602 301 353 290 
603 279 382 65 
604 291 403 330 
605 76 354 25 
606 281 376 96 
607 278 389 269 
608 16 298 75 
609 3 343 2 
610 85 407 277 
611 96 376 4 
612 342 404 80 
613 297 375 192 
614 2 395 1 
615 42 393 1 
616 162 267 266 
617 332 387 55 
618 128 352 243 
619 53 346 286 
620 54 400 238 
621 5 376 71 
622 53 286 45 
623 56 288 50 
624 57 366 306 
625 254 400 54 
626 65 382 35 
627 17 298 16 
628 199 323 198 
629 71 389 6 
630 68 369 337 
631 67 370 12 
632 13 370 81 
633 36 382 304 
634 259 365 211 
635 200 383 201 
636 41 339 95 
637 11 377 67 
638 24 378 84 
639 285 345 77 
640 68 337 271 
641 306 366 207 
642 1 394 2 
643 1 392 42 
644 67 377 310 
645 34 341 65 
646 277 407 82 
647 73 349 295 
648 84 378 325 
649 182 391 180 
650 96 344 335 
651 192 375 274 
652 162 266 160 
653 223 352 220 
654 174 361 329 
655 323 409 81 
656 41 347 42 
657 43 392 1 
658 52 394 1 
659 271 356 56 
660 363 402 261 
661 192 274 166 
662 2 344 3 
663 249 396 250 
664 247 276 158 
665 193 351 263 
666 59 375 298 
667 90 411 40 
668 170 338 242 
669 269 374 186 
670 299 345 331 
671 219 352 128 
672 231 342 236 
673 210 336 212 
674 201 383 206 
675 301 343 3 
676 206 383 334 
677 312 384 379 
678 194 362 356 
679 328 349 206 
680 41 411 347 
681 82 407 30 
682 256 403 347 
683 187 374 281 
684 25 354 26 
685 313 377 10 
686 61 350 294 
687 322 378 25 
688 240 406 216 
689 320 348 62 
690 295 349 328 
691 289 372 55 
692 326 369 178 
693 356 362 56 
694 292 371 89 
695 328 365 259 
696 352 399 243 
697 296 351 61 
698 369 387 178 
699 207 405 202 
700 83 358 319 
701 244 362 194 
702 270 387 369 
703 316 355 82 
704 248 364 247 
705 61 351 350 
706 270 369 68 
707 213 336 210 
708 144 383 200 
709 82 398 277 
710 87 364 322 
711 321 381 21 
712 60 367 303 
713 194 356 258 
714 318 358 83 
715 335 344 93 
716 308 402 197 
717 62 384 312 
718 234 355 233 
719 165 357 192 
720 12 370 13 
721 298 375 297 
722 233 342 231 
723 185 380 272 
724 303 367 267 
725 333 408 193 
726 327 390 175 
727 143 360 111 
728 143 412 360 
729 81 409 317 
730 349 388 205 
731 290 372 289 
732 42 392 339 
733 267 367 266 
734 55 387 270 
735 64 380 292 
736 73 388 349 
737 203 405 252 
738 239 400 254 
739 4 376 5 
740 10 377 11 
741 242 381 321 
742 25 378 24 
743 223 399 352 
744 312 379 74 
745 266 367 268 
746 234 412 398 
747 206 365 328 
748 35 382 36 
749 151 363 261 
750 21 381 22 
751 70 406 282 
752 202 405 203 
753 221 385 222 
754 227 371 185 
755 311 368 78 
756 334 383 144 
757 205 388 207 
758 280 368 311 
759 364 401 322 
760 6 389 7 
761 186 374 187 
762 264 379 265 
763 379 384 265 
764 386 402 310 
765 294 396 72 
766 329 361 248 
767 310 402 308 
768 178 387 332 
769 216 406 359 
770 331 345 182 
771 265 390 327 
772 180 391 183 
773 43 395 92 
774 52 393 94 
775 40 411 41 
776 305 388 73 
777 237 368 280 
778 30 407 29 
779 142 410 181 
780 56 362 288 
781 235 412 143 
782 330 403 256 
783 93 394 52 
784 91 392 43 
785 350 396 294 
786 207 388 305 
787 339 392 91 
788 317 409 318 
789 368 397 78 
790 366 405 207 
791 343 395 2 
792 211 365 334 
793 78 397 315 
794 268 367 60 
795 250 408 333 
796 334 365 206 
797 282 406 240 
798 80 404 316 
799 316 404 355 
800 348 384 62 
801 197 402 363 
802 2 394 344 
803 92 395 343 
804 250 396 350 
805 344 394 93 
806 355 404 233 
807 347 393 42 
808 347 403 94 
809 292 380 371 
810 94 393 347 
811 175 390 348 
812 355 398 82 
813 233 404 342 
814 359 406 70 
815 373 399 223 
816 361 401 248 
817 199 399 373 
818 348 390 384 
819 248 401 364 
820 234 398 355 
821 371 380 185 
822 384 390 265 
823 252 405 366 
824 350 408 250 
$EndElements
