$MeshFormat
4.1 0 8
$EndMeshFormat
$PhysicalNames
1
2 1 "torus_primal"
$EndPhysicalNames
$Entities
1 2 1 1
1 2 -4.898587196589413e-16 -1.224646799147353e-16 0 
1 -2.0000001 -2.0000001 -1.000000001224647e-07 2.0000001 2.0000001 9.999999987753531e-08 0 2 1 -1 
2 0.9999999000000001 -1.000000004898587e-07 -0.5000000999999999 2.0000001 9.999999975507065e-08 0.5000000999999999 0 2 1 -1 
1 -2.164784500584788 -2.164784500584788 -0.5000000999999999 2.164784500584788 2.164784500584788 0.5000000999999999 1 1 4 -1 2 1 -2 
1 -2.164784500584788 -2.164784500584788 -0.5000000999999999 2.164784500584788 2.164784500584788 0.5000000999999999 0 1 1 
$EndEntities
$Nodes
4 231 1 231
0 1 0 1
1
2 -4.898587196589413e-16 -1.224646799147353e-16
1 1 0 31
2
3
4
5
6
7
8
9
10
11
12
13
14
15
16
17
18
19
20
21
22
23
24
25
26
27
28
29
30
31
32
1.961570560806461 0.3901806440322556 -1.224646799147353e-16
1.847759065022574 0.7653668647301777 -1.224646799147353e-16
1.662939224605092 1.111140466039202 -1.224646799147353e-16
1.414213562373098 1.414213562373092 -1.224646799147353e-16
1.111140466039208 1.662939224605088 -1.224646799147353e-16
0.7653668647301846 1.847759065022571 -1.224646799147353e-16
0.3901806440322627 1.96157056080646 -1.224646799147353e-16
6.783802827665674e-15 2 -1.224646799147353e-16
-0.3901806440322481 1.961570560806463 -1.224646799147353e-16
-0.7653668647301703 1.847759065022577 -1.224646799147353e-16
-1.111140466039196 1.662939224605096 -1.224646799147353e-16
-1.414213562373087 1.414213562373103 -1.224646799147353e-16
-1.662939224605084 1.111140466039215 -1.224646799147353e-16
-1.847759065022569 0.7653668647301912 -1.224646799147353e-16
-1.961570560806458 0.3901806440322694 -1.224646799147353e-16
-2 1.445578407503147e-14 -1.224646799147353e-16
-1.961570560806464 -0.3901806440322402 -1.224646799147353e-16
-1.84775906502258 -0.7653668647301645 -1.224646799147353e-16
-1.662939224605098 -1.111140466039193 -1.224646799147353e-16
-1.414213562373104 -1.414213562373086 -1.224646799147353e-16
-1.111140466039215 -1.662939224605084 -1.224646799147353e-16
-0.7653668647301889 -1.84775906502257 -1.224646799147353e-16
-0.390180644032266 -1.961570560806459 -1.224646799147353e-16
-9.249178236745458e-15 -2 -1.224646799147353e-16
0.3901806440322479 -1.961570560806463 -1.224646799147353e-16
0.7653668647301718 -1.847759065022577 -1.224646799147353e-16
1.111140466039201 -1.662939224605093 -1.224646799147353e-16
1.414213562373092 -1.414213562373098 -1.224646799147353e-16
1.662939224605088 -1.111140466039207 -1.224646799147353e-16
1.847759065022573 -0.7653668647301808 -1.224646799147353e-16
1.961570560806461 -0.3901806440322574 -1.224646799147353e-16
1 2 0 7
33
34
35
36
37
38
39
1.853553390593274 -4.539896453677554e-16 0.3535533905932731
1.500000000000002 -3.673940397442063e-16 0.5
1.146446609406728 -2.807984341206571e-16 0.3535533905932758
1 -2.449293598294706e-16 3.613946018757869e-15
1.146446609406724 -2.80798434120656e-16 -0.3535533905932715
1.499999999999998 -3.673940397442054e-16 -0.5
1.853553390593273 -4.539896453677551e-16 -0.3535533905932745
2 1 0 192
40
41
42
43
44
45
46
47
48
49
50
51
52
53
54
55
56
57
58
59
60
61
62
63
64
65
66
67
68
69
70
71
72
73
74
75
76
77
78
79
80
81
82
83
84
85
86
87
88
89
90
91
92
93
94
95
96
97
98
99
100
101
102
103
104
105
106
107
108
109
110
111
112
113
114
115
116
117
118
119
120
121
122
123
124
125
126
127
128
129
130
131
132
133
134
135
136
137
138
139
140
141
142
143
144
145
146
147
148
149
150
151
152
153
154
155
156
157
158
159
160
161
162
163
164
165
166
167
168
169
170
171
172
173
174
175
176
177
178
179
180
181
182
183
184
185
186
187
188
189
190
191
192
193
194
195
196
197
198
199
200
201
202
203
204
205
206
207
208
209
210
211
212
213
214
215
216
217
218
219
220
221
222
223
224
225
226
227
228
229
230
231
1.303267702758918 -0.3272853487409871 0.474953780156236
1.30326770275892 0.3272853487409871 0.4749537801562365
1.29841641604125 -0.3760065212986949 -0.4775207935172358
1.303267702758914 0.3272853487409889 -0.4749537801562348
0.9813598026833565 -0.3458892432801024 0.1972028777977682
0.9830820171509483 0.3304645747020427 0.1891020822294391
-1.873477106957983 -0.1845213894217975 0.3219651707192518
-0.5103115894329547 1.809824137179366 -0.3245003224407054
-0.1892453315530076 -1.903430297786486 -0.2821061683050584
0.839233183779634 -1.689528806677215 -0.3172231370113786
-1.191812187039811 -1.490823179210545 -0.2880968207238996
-1.430774171116634 1.218709792416257 -0.3255924329482444
0.546473114750643 1.801480432395306 -0.3219651707196788
1.194272040994748 -1.455224692463257 0.3219651707171248
1.194272040994756 1.455224692463252 0.3219651707171237
0.5464731147511301 1.801480432396913 0.3219651707176844
0.5464731147511163 -1.801480432396916 0.3219651707176855
1.21273420123431 1.429272519651084 -0.3313471260684879
-0.1845213894219506 -1.873477106959292 0.3219651707176854
-0.1845213894219341 1.873477106959295 0.3219651707176838
-1.660253875099393 -0.887424184746064 0.3219651707176855
-1.801480432396911 0.546473114751137 0.3219651707176845
-0.8751667784184907 1.646650091231666 0.3419672828672186
-1.657768203373328 -0.8939498429859856 -0.3208966837747136
-1.77860088761261 0.5794852488559009 -0.3356185450703398
-0.8613617986139094 -1.671209470516793 0.3248105690866483
-1.455224692462882 1.194272040994462 0.3219651707176845
-1.909475403437648 -0.1803705856433806 -0.2744021045516667
1.455224692461003 -1.194272040992911 -0.3219651707205802
1.067911450568448 0.6343685329750074 0.4283656361361965
0.7890915133784964 0.6635934206846085 0.1733971908524583
0.8134404896850993 0.9254872747263876 0.4222089527563964
0.5067543783372099 0.9035430201426452 0.186162607616901
1.067911450564629 -0.6343685329719218 0.428365636133271
1.801480432395704 -0.5464731147507581 0.3219651707191875
1.770893393239568 0.4207262671466203 0.3840331572710871
1.798983194424337 -0.5721939027134478 -0.3156261695476497
1.77089339323959 0.4207262671466184 -0.3840331572710696
0.6395835301984526 0.8045862496532074 -0.1644738269205407
0.2928803132389835 0.9743104360151441 -0.1306782908439085
0.1446537287817531 1.066953500936815 0.2661381727161866
-0.0903664034156212 1.001157096753941 -0.07210981214698611
-0.2484893200505051 1.05090771025376 0.2711167623754349
-0.4515879741741229 0.8922887015975276 0.007443661938032292
-0.6144079580113937 0.9590211690057103 0.3458996777215237
-0.7596111825416246 0.6731876936791807 0.1214852544843015
-0.7386147287908793 0.8080905516659556 -0.292922708892825
-0.9218989524818745 0.4453697014042884 -0.1525558388634414
0.1013122326226635 1.207419492410418 -0.4084868205681222
-1.007223209645691 0.3888820445660603 0.2708107630421834
-1.002798352001153 0.07024478706476914 -0.07230491065202731
-1.14682509779999 0.01941167643871138 0.3540953206441252
-0.9873509422289168 -0.2361942626791076 0.1223839416639814
-1.040378312545115 -0.2870067702037407 -0.270113660446228
-0.8464473910753191 -0.5505109558296324 -0.0981122665383198
-1.196063044797391 -0.366354422414913 0.4335383195884649
-0.3822831055526116 1.086285757027985 -0.35862200566323
-0.7647217369632229 1.12211522750684 -0.4793879124185621
1.482018457479736 0.6990950413743112 -0.4803970843089352
0.8741912561530695 0.5525132684011903 -0.1816330178090604
0.8967943488549304 0.8648811336760238 -0.4306178061196058
0.5389427745353784 1.08767170006444 -0.4100386145751374
0.4980167219728207 1.238485958242557 0.471943716634486
0.1197855854920099 1.373531054562725 0.4850743051971639
-0.2591430085415011 1.45826632697146 0.4996431546637139
-1.091503511715851 0.6420040576055326 -0.4420299543410122
-1.174517485110747 0.2855250519956103 -0.4063973606443564
1.64657444358249 0.8963933980637537 0.33098980317209
-1.097022519536776 -0.5867001842924169 -0.4295261419433183
-0.8354029328054295 -0.8941078345622627 -0.416692193677522
-0.5759232503139468 -0.8226308678771219 -0.06463869466973801
-0.5122182923313253 -1.076149853454377 -0.3937424897770448
-0.2322971225889449 -0.9823027989630284 -0.09647765232950407
-0.774973690027693 -0.7453848808137689 0.2638094914743703
-0.5049419577897306 -1.000549699454923 0.3258290001413199
-0.1244022049848664 -1.099167783367842 0.3080745254538654
0.1544852049663782 -0.9895780272403812 0.03951590002809872
0.1503836340870458 -1.124361983843489 -0.3410540505909164
0.4590111912603727 -0.9612997330477338 -0.2469919901599184
0.5312933119254766 -0.885274137336207 0.1772301556201828
0.6946662651070579 -0.7607365962266045 -0.1710964109368986
0.7541910167699568 -1.004655472932573 -0.4365554145541102
-0.90088208688942 -1.00738493277971 0.4774227054294005
-0.4181019877640275 -1.30290881035576 0.4823568941957018
0.4710475511932138 -1.267249221968634 -0.4775827813112968
0.1463071947044444 -1.492560234554128 -0.4999999181595913
-0.9609462488715728 0.7989200418115975 0.4328256687974495
-0.8590913886089262 1.247229145497836 0.4997905831321096
-1.270339397067194 0.5285328709547141 0.484355184625981
-1.247447539233926 1.045335862103425 0.4834627333452535
-1.503695403353065 0.1598149796126091 0.4998520093234475
-1.264592781975398 -0.923529386296014 -0.4956356752788061
-0.750387004642888 -1.241424679738388 -0.4975528179787796
-0.5196036665512107 -1.435427972882839 -0.4992930919938449
0.2646106475525846 -1.169564756776321 0.3993421734716759
0.6517602282401409 -1.118021237009625 0.4556490094735157
-0.2325452601554332 1.424832718000408 -0.4968184671474468
-1.357197784463827 -0.2994684996873125 -0.4877147979632739
1.021119040380939 -0.6944201594372467 -0.4239174251946883
0.1523949772362737 1.567672275972559 -0.4943335739468132
1.21127522658745 1.015438222892524 0.4934605647724382
0.4820728069993599 -1.646374892124643 -0.451175375045603
-0.07514982054160804 -1.402041362260928 0.4907080132767696
1.019772873308555 -0.2896053622832066 -0.2376685029349594
1.418351855520408 -0.7236581355175292 -0.4914078239394112
-0.8020574753362867 -1.558032361769071 -0.431642309752116
-0.1410615612994312 1.766410880510032 -0.4195203314967331
-1.177129178447229 1.376048406216072 0.3916354871246765
-1.436673067617609 0.4635035061195963 -0.4999080041533354
-1.477693942784897 0.118077440875488 -0.4996902854706777
0.8919981531553919 1.228224710473129 -0.4996774043356833
1.231669122222106 1.00897998569675 -0.4914286685730755
1.476010043298248 -0.6368787138801909 0.4882957989945731
1.231083121251398 -1.000708813765392 0.4924608273814076
0.2909564071431014 -1.547557913002124 0.4943926875762036
0.8891067199419102 1.637352428479184 -0.3436589193377338
-1.574919672809304 0.8551046111961991 0.4058142127270561
-1.117897371156225 1.027150949117198 -0.4996710168123447
-1.043466952152663 1.382892663696762 -0.4427069950407622
0.8072931062745355 -0.6526149042916238 0.1914106853316078
1.119453208340817 -1.066312652324949 -0.4978770478380411
1.682577953281356 -0.9035103007531123 -0.2864443352502795
-1.064718409382232 -0.7196217732925948 0.4514618318646179
-1.291807609352208 -1.013621332470387 0.4794093344332273
1.167192864124474 -1.46765302148946 -0.330501219115288
-0.6295194495468966 1.459394018804031 -0.4919465341438284
0.8891596521013132 1.29003852562448 0.4955201616334455
1.458748492028674 1.210328045248508 0.3059350520903779
1.661170269310823 -0.9080580908225099 0.308909256875101
1.478378883391209 1.170316705620966 -0.318374204982857
0.8926814898393004 1.661867220852437 0.3172673786295991
0.9024842181885484 -1.666842336884778 0.305935052090413
0.1724133009687541 1.893847836080708 -0.2977471361784168
0.189143942505681 1.882116439388734 0.3108892047604406
0.1834827589396138 -1.881053349485179 0.312913620566823
-1.806926525098343 -0.5417458015652263 0.3173354617089659
-1.867875111866568 0.2237686021586399 0.323516577963313
0.1804726567428829 -1.880300781072223 -0.31420410224985
-0.56616185820878 -1.803450248153546 -0.3126020017624482
-0.9080580908225084 1.661170269310852 -0.3089092568750701
-0.5310303599628985 1.796637819318804 0.3324424686530645
-1.441912456404928 -1.227247394379777 -0.308508344697261
-0.5400738435352856 -1.814790955122934 0.3085426041993687
-1.662268783969527 0.9316647099258111 -0.2924479893232774
-1.456051774240545 -1.19495080946764 0.3206896090553056
-1.154838514232172 -1.401780305272901 0.3873080627101833
-1.816180897958324 -0.5355624354398154 -0.3084771967831105
-1.865971716662183 0.1692942506371933 -0.3322594061274637
0.5269830014734083 1.455583063115412 -0.4976866424282782
-0.608399058712853 1.457096914408579 0.4937175376229391
0.6318602403707315 -1.464259156022116 0.4909358411808876
1.467899926465883 -1.203725752652329 0.302203749903053
-1.531978807012131 -0.2253425348580633 0.4976457745727915
-1.469979593368839 -0.6153509745973625 0.4911647447395493
-0.7623223973126368 -1.331424693929626 0.4988277033105556
1.414583710730411 0.6630768251704465 0.4961060727220132
-1.4998640267496 -0.5626637784334979 -0.489499837062996
0.8307556038902387 -1.358009489861215 -0.4914701373483188
0.9508621842100691 -1.248059346053419 0.4952147811985934
1.686047579551723 0.8833833758742564 -0.2953437716509509
-0.1835137920881382 -1.291387698074192 -0.4601365707070046
-0.22134557485417 -1.60175033321941 -0.4861250704839553
0.6327893047248224 1.52677374635389 0.4761078962578911
1.619906823883639 -0.2941288457906167 0.4780889988658772
1.619906823882342 -0.29412884579057 -0.4780889988662706
-1.404210024028647 0.8109540113403574 -0.484998467779406
1.141441405901404 0.6342054681485149 -0.460744054549107
-0.3122592353665982 -1.626247103829072 0.4750559737851546
0.0123055116702979 1.637934145842486 0.4805844541385212
0.881847896210509 -0.9142627201078476 0.444088267837254
1.018710049197174 0.2573724218847743 -0.2194235994302862
0.342316053810044 1.610703004624447 0.4780020076918696
0.5619763380547348 -1.852587710443458 -0.2448437198427331
-1.218696554673903 1.510984352174634 -0.2352318475476294
-0.4317929100290185 1.211172592254083 0.4518134988413398
0.01847234111830897 -1.677043108456952 0.4675678620163396
-1.628457100023557 -0.1859764004729324 -0.4802782854072292
-1.574347763620585 0.4639543201817405 0.4796226189424323
1.898444105636078 -0.2837826564380855 -0.2720085197707685
1.900559245343046 -0.2780114285904809 0.2700737162083199
-0.594381455796855 -1.583479866397153 0.4619322961922621
-0.9471597753443283 -1.697483782902428 -0.2302061938474978
-1.210224777960123 -0.04100375629416436 -0.4079611427640927
-1.070337960575426 -1.23256366237396 -0.4821426957112249
-1.675776931358274 0.3408613690519162 -0.4537194434215615
-1.222144994117201 0.2538622267871827 0.4319874240903379
0.8629637860083047 -0.5189293467399776 -0.08321149029969525
-0.9695984924490111 -0.4959661407437658 0.2848647469952188
1.925932142000001 0.2472255363853502 0.2342437364739454
1.921723913945298 0.2409628574120017 -0.2433725393962572
-0.08998876481225948 1.208142389721414 0.4083644225364601
-0.1735764153739023 1.946000932638325 -0.2100761591470608
$EndNodes
$Elements
1 462 1 462
2 1 2 462
1 43 77 38 
2 34 75 41 
3 3 107 75 
4 186 216 196 
5 77 199 3 
6 177 201 125 
7 88 188 101 
8 48 201 177 
9 59 180 104 
10 6 155 7 
11 130 176 46 
12 131 181 63 
13 163 193 60 
14 63 196 131 
15 134 190 135 
16 15 156 14 
17 139 188 88 
18 46 192 130 
19 196 216 137 
20 38 77 39 
21 33 75 34 
22 154 190 134 
23 3 75 2 
24 2 77 3 
25 68 160 144 
26 151 169 98 
27 129 156 128 
28 169 199 98 
29 140 195 107 
30 162 193 163 
31 47 146 136 
32 107 167 140 
33 136 165 47 
34 126 129 128 
35 13 147 12 
36 86 157 97 
37 130 192 91 
38 42 144 138 
39 180 189 104 
40 105 157 86 
41 43 98 77 
42 64 205 148 
43 52 188 139 
44 138 143 42 
45 183 205 64 
46 62 147 127 
47 127 189 62 
48 107 195 75 
49 22 185 21 
50 54 166 140 
51 75 195 41 
52 43 210 206 
53 139 172 52 
54 7 155 52 
55 112 200 111 
56 114 115 112 
57 144 204 76 
58 141 197 49 
59 206 210 99 
60 28 164 29 
61 12 147 62 
62 61 156 15 
63 144 161 68 
64 98 199 77 
65 53 191 153 
66 153 168 152 
67 126 128 89 
68 91 192 95 
69 86 97 96 
70 153 191 168 
71 57 155 6 
72 96 136 88 
73 51 158 157 
74 185 194 122 
75 134 135 119 
76 96 165 136 
77 153 198 53 
78 163 185 122 
79 102 103 80 
80 140 167 54 
81 117 200 112 
82 97 165 96 
83 124 125 117 
84 149 216 187 
85 14 156 66 
86 119 209 159 
87 110 114 112 
88 106 148 105 
89 85 126 89 
90 86 96 83 
91 81 96 88 
92 104 208 59 
93 42 204 144 
94 116 134 119 
95 114 194 123 
96 88 101 79 
97 102 211 103 
98 87 106 105 
99 36 143 44 
100 101 150 100 
101 144 160 138 
102 122 194 114 
103 175 192 46 
104 78 101 100 
105 72 102 80 
106 70 99 45 
107 175 193 192 
108 51 213 158 
109 118 124 117 
110 57 151 150 
111 202 211 102 
112 135 209 119 
113 65 185 22 
114 49 164 28 
115 124 197 141 
116 99 210 45 
117 21 185 184 
118 187 216 67 
119 141 177 125 
120 130 217 176 
121 60 184 163 
122 76 161 144 
123 29 164 68 
124 187 224 149 
125 53 198 171 
126 109 223 131 
127 66 147 13 
128 74 203 152 
129 132 223 109 
130 171 198 190 
131 67 216 186 
132 115 116 112 
133 101 188 150 
134 114 123 115 
135 98 206 151 
136 136 139 88 
137 44 73 40 
138 41 69 45 
139 157 205 51 
140 57 169 151 
141 95 193 162 
142 37 143 36 
143 142 154 134 
144 176 217 61 
145 90 222 106 
146 54 170 166 
147 127 214 189 
148 41 45 35 
149 35 44 40 
150 93 222 90 
151 186 196 63 
152 150 188 155 
153 138 226 143 
154 84 214 127 
155 156 217 128 
156 49 212 141 
157 140 166 71 
158 154 174 56 
159 124 141 125 
160 150 155 57 
161 65 194 185 
162 31 161 76 
163 133 201 178 
164 115 134 116 
165 116 117 112 
166 158 165 97 
167 152 168 74 
168 56 190 154 
169 50 223 145 
170 44 159 73 
171 115 142 134 
172 143 226 44 
173 133 178 145 
174 116 118 117 
175 69 70 45 
176 131 196 108 
177 31 76 32 
178 32 74 31 
179 131 223 181 
180 119 120 118 
181 116 119 118 
182 29 68 30 
183 4 107 3 
184 5 57 6 
185 27 49 28 
186 78 99 70 
187 120 138 121 
188 6 54 5 
189 29 53 28 
190 7 52 8 
191 120 121 118 
192 73 152 40 
193 110 112 111 
194 27 56 26 
195 8 55 7 
196 24 48 25 
197 10 47 11 
198 78 100 99 
199 18 46 17 
200 110 111 109 
201 10 59 9 
202 21 50 22 
203 13 51 14 
204 25 58 24 
205 113 114 110 
206 20 60 19 
207 16 61 15 
208 14 66 13 
209 94 110 109 
210 94 109 108 
211 12 62 11 
212 23 65 22 
213 19 63 20 
214 17 67 18 
215 15 64 16 
216 92 94 93 
217 94 113 110 
218 109 131 108 
219 94 108 93 
220 113 122 114 
221 91 95 92 
222 91 92 90 
223 108 137 93 
224 92 93 90 
225 89 91 90 
226 90 106 87 
227 89 90 87 
228 85 89 87 
229 87 105 86 
230 84 127 126 
231 127 129 126 
232 85 86 83 
233 85 87 86 
234 84 126 85 
235 83 96 81 
236 4 169 5 
237 84 85 83 
238 79 101 78 
239 82 84 83 
240 81 88 79 
241 35 45 36 
242 36 44 35 
243 82 83 81 
244 38 42 37 
245 37 43 38 
246 34 41 35 
247 35 40 34 
248 152 203 40 
249 72 78 70 
250 80 82 81 
251 80 81 79 
252 74 168 31 
253 42 143 37 
254 72 80 79 
255 69 140 71 
256 72 79 78 
257 121 124 118 
258 23 178 24 
259 21 184 20 
260 69 71 70 
261 71 102 72 
262 165 179 47 
263 71 72 70 
264 164 197 160 
265 73 153 152 
266 52 172 8 
267 48 177 25 
268 47 179 11 
269 62 189 180 
270 30 161 31 
271 77 229 39 
272 91 225 130 
273 69 195 140 
274 23 221 178 
275 51 205 183 
276 158 179 165 
277 4 167 107 
278 160 197 121 
279 45 210 36 
280 5 169 57 
281 120 226 138 
282 55 170 7 
283 27 171 56 
284 8 173 55 
285 18 175 46 
286 46 176 17 
287 25 174 58 
288 10 180 59 
289 23 182 65 
290 63 181 20 
291 15 183 64 
292 19 186 63 
293 17 187 67 
294 155 188 52 
295 24 178 48 
296 33 228 75 
297 20 184 60 
298 31 168 30 
299 138 160 121 
300 8 172 9 
301 25 177 26 
302 75 228 2 
303 11 179 12 
304 159 209 73 
305 47 231 146 
306 5 167 4 
307 103 208 104 
308 111 133 132 
309 7 170 6 
310 28 171 27 
311 26 174 25 
312 9 173 8 
313 19 175 18 
314 17 176 16 
315 11 180 10 
316 20 181 21 
317 24 182 23 
318 14 183 15 
319 18 186 19 
320 16 187 17 
321 2 229 77 
322 170 202 166 
323 37 210 43 
324 71 166 102 
325 29 191 53 
326 43 206 98 
327 92 227 94 
328 94 227 113 
329 49 197 164 
330 157 158 97 
331 106 149 148 
332 30 191 29 
333 128 217 130 
334 130 225 128 
335 68 164 160 
336 181 223 50 
337 111 132 109 
338 10 231 47 
339 111 200 133 
340 39 204 38 
341 34 203 33 
342 104 230 103 
343 13 213 51 
344 60 193 175 
345 137 216 149 
346 4 199 169 
347 149 222 137 
348 54 167 5 
349 6 170 54 
350 53 171 28 
351 178 201 48 
352 136 146 139 
353 56 174 26 
354 59 173 9 
355 60 175 19 
356 16 176 61 
357 21 181 50 
358 58 182 24 
359 51 183 14 
360 62 180 11 
361 67 186 18 
362 64 187 16 
363 68 161 30 
364 150 151 100 
365 145 223 132 
366 1 219 32 
367 178 221 145 
368 41 195 69 
369 33 219 1 
370 171 190 56 
371 148 224 64 
372 133 145 132 
373 123 142 115 
374 61 217 156 
375 3 199 4 
376 32 218 1 
377 162 163 122 
378 127 147 129 
379 27 212 49 
380 1 218 39 
381 55 202 170 
382 145 221 50 
383 119 159 120 
384 125 200 117 
385 151 206 100 
386 192 193 95 
387 108 196 137 
388 168 191 30 
389 121 197 124 
390 146 172 139 
391 128 225 89 
392 113 162 122 
393 148 205 105 
394 100 206 99 
395 103 230 80 
396 190 198 135 
397 203 219 33 
398 154 215 174 
399 39 218 204 
400 73 209 153 
401 44 226 159 
402 1 229 2 
403 105 205 157 
404 177 212 26 
405 2 228 1 
406 50 221 22 
407 1 228 33 
408 40 203 34 
409 38 204 42 
410 173 211 55 
411 184 185 163 
412 153 209 198 
413 58 207 182 
414 39 229 1 
415 59 208 173 
416 141 212 177 
417 26 212 27 
418 162 227 95 
419 66 156 129 
420 12 213 13 
421 36 210 37 
422 22 221 23 
423 76 218 32 
424 166 202 102 
425 179 213 12 
426 32 219 74 
427 80 230 82 
428 174 215 58 
429 65 220 194 
430 89 225 91 
431 172 231 9 
432 58 215 207 
433 82 214 84 
434 142 215 154 
435 95 227 92 
436 55 211 202 
437 9 231 10 
438 204 218 76 
439 125 201 200 
440 137 222 93 
441 74 219 203 
442 208 211 173 
443 106 222 149 
444 182 220 65 
445 146 231 172 
446 123 207 142 
447 129 147 66 
448 207 215 142 
449 194 220 123 
450 198 209 135 
451 149 224 148 
452 158 213 179 
453 214 230 104 
454 189 214 104 
455 123 220 207 
456 64 224 187 
457 200 201 133 
458 103 211 208 
459 82 230 214 
460 207 220 182 
461 113 227 162 
462 159 226 120 
$EndElements
